<?xml version="1.0" encoding="UTF-8" standalone="no"?>
<svg width="677.333mm" height="341.136mm"
 viewBox="0 0 1920 967"
 xmlns="http://www.w3.org/2000/svg" xmlns:xlink="http://www.w3.org/1999/xlink"  version="1.2" baseProfile="tiny">
<title>Qt SVG Document</title>
<desc>Generated with Qt</desc>
<defs>
</defs>
<g fill="none" stroke="black" stroke-width="1" fill-rule="evenodd" stroke-linecap="square" stroke-linejoin="bevel" >

<g fill="none" stroke="#000000" stroke-opacity="1" stroke-width="1" stroke-linecap="square" stroke-linejoin="bevel" transform="matrix(1,0,0,1,0,0)"
font-family="Cantarell" font-size="10" font-weight="400" font-style="normal" 
>
</g>

<g fill="none" stroke="#000000" stroke-opacity="1" stroke-width="1" stroke-linecap="square" stroke-linejoin="bevel" transform="matrix(1.00104,0,0,1.00104,0,0)"
font-family="Cantarell" font-size="10" font-weight="400" font-style="normal" 
>
</g>

<g fill="none" stroke="#a0a0a4" stroke-opacity="1" stroke-dasharray="0.5,1" stroke-dashoffset="0" stroke-width="0.5" stroke-linecap="round" stroke-linejoin="round" transform="matrix(1.00104,0,0,1.00104,0,0)"
font-family="Cantarell" font-size="10" font-weight="400" font-style="normal" 
>
<polyline fill="none" vector-effect="none" points="523.5,937.5 1418.5,937.5 " />
</g>

<g fill="none" stroke="#000000" stroke-opacity="1" stroke-width="1" stroke-linecap="round" stroke-linejoin="round" transform="matrix(1.00104,0,0,1.00104,0,0)"
font-family="Cantarell" font-size="10" font-weight="400" font-style="normal" 
>
<polyline fill="none" vector-effect="none" points="523.5,937.5 529.5,937.5 " />
<polyline fill="none" vector-effect="none" points="1418.5,937.5 1413.5,937.5 " />
</g>

<g fill="none" stroke="#000000" stroke-opacity="1" stroke-width="1" stroke-linecap="square" stroke-linejoin="bevel" transform="matrix(1.00104,0,0,1.00104,0,0)"
font-family="Cantarell" font-size="10" font-weight="400" font-style="normal" 
>
</g>

<g fill="none" stroke="#000000" stroke-opacity="1" stroke-width="1" stroke-linecap="square" stroke-linejoin="bevel" transform="matrix(1.00104,0,0,1.00104,506.528,941.981)"
font-family="Cantarell" font-size="10" font-weight="400" font-style="normal" 
>
</g>

<g fill="none" stroke="#000000" stroke-opacity="1" stroke-width="1" stroke-linecap="square" stroke-linejoin="bevel" transform="matrix(1.00104,0,0,1.00104,506.528,941.981)"
font-family="Cantarell" font-size="10" font-weight="400" font-style="normal" 
>
</g>

<g fill="none" stroke="#000000" stroke-opacity="1" stroke-width="1" stroke-linecap="square" stroke-linejoin="bevel" transform="matrix(1.00104,0,0,1.00104,506.528,941.981)"
font-family="Cantarell" font-size="10" font-weight="400" font-style="normal" 
>
</g>

<g fill="none" stroke="#000000" stroke-opacity="1" stroke-width="1" stroke-linecap="square" stroke-linejoin="bevel" transform="matrix(1.00104,0,0,1.00104,506.528,941.981)"
font-family="Cantarell" font-size="10" font-weight="400" font-style="normal" 
>
</g>

<g fill="none" stroke="#000000" stroke-opacity="1" stroke-width="1" stroke-linecap="square" stroke-linejoin="bevel" transform="matrix(1.00104,0,0,1.00104,506.528,941.981)"
font-family="Cantarell" font-size="10" font-weight="400" font-style="normal" 
>
</g>

<g fill="none" stroke="#000000" stroke-opacity="1" stroke-width="1" stroke-linecap="square" stroke-linejoin="bevel" transform="matrix(1.00104,0,0,1.00104,506.528,941.981)"
font-family="Sans" font-size="9" font-weight="400" font-style="normal" 
>
<text fill="#000000" fill-opacity="1" stroke="none" xml:space="preserve" x="0" y="0" font-family="Sans" font-size="9" font-weight="400" font-style="normal" 
 >-2</text>
</g>

<g fill="none" stroke="#000000" stroke-opacity="1" stroke-width="1" stroke-linecap="square" stroke-linejoin="bevel" transform="matrix(1.00104,0,0,1.00104,506.528,941.981)"
font-family="Cantarell" font-size="10" font-weight="400" font-style="normal" 
>
</g>

<g fill="none" stroke="#000000" stroke-opacity="1" stroke-width="1" stroke-linecap="square" stroke-linejoin="bevel" transform="matrix(1.00104,0,0,1.00104,0,0)"
font-family="Cantarell" font-size="10" font-weight="400" font-style="normal" 
>
</g>

<g fill="none" stroke="#a0a0a4" stroke-opacity="1" stroke-dasharray="0.5,1" stroke-dashoffset="0" stroke-width="0.5" stroke-linecap="round" stroke-linejoin="round" transform="matrix(1.00104,0,0,1.00104,0,0)"
font-family="Cantarell" font-size="10" font-weight="400" font-style="normal" 
>
<polyline fill="none" vector-effect="none" points="523.5,713.5 1418.5,713.5 " />
</g>

<g fill="none" stroke="#000000" stroke-opacity="1" stroke-width="1" stroke-linecap="round" stroke-linejoin="round" transform="matrix(1.00104,0,0,1.00104,0,0)"
font-family="Cantarell" font-size="10" font-weight="400" font-style="normal" 
>
<polyline fill="none" vector-effect="none" points="523.5,713.5 529.5,713.5 " />
<polyline fill="none" vector-effect="none" points="1418.5,713.5 1413.5,713.5 " />
</g>

<g fill="none" stroke="#000000" stroke-opacity="1" stroke-width="1" stroke-linecap="square" stroke-linejoin="bevel" transform="matrix(1.00104,0,0,1.00104,0,0)"
font-family="Cantarell" font-size="10" font-weight="400" font-style="normal" 
>
</g>

<g fill="none" stroke="#000000" stroke-opacity="1" stroke-width="1" stroke-linecap="square" stroke-linejoin="bevel" transform="matrix(1.00104,0,0,1.00104,494.515,717.748)"
font-family="Cantarell" font-size="10" font-weight="400" font-style="normal" 
>
</g>

<g fill="none" stroke="#000000" stroke-opacity="1" stroke-width="1" stroke-linecap="square" stroke-linejoin="bevel" transform="matrix(1.00104,0,0,1.00104,494.515,717.748)"
font-family="Cantarell" font-size="10" font-weight="400" font-style="normal" 
>
</g>

<g fill="none" stroke="#000000" stroke-opacity="1" stroke-width="1" stroke-linecap="square" stroke-linejoin="bevel" transform="matrix(1.00104,0,0,1.00104,494.515,717.748)"
font-family="Cantarell" font-size="10" font-weight="400" font-style="normal" 
>
</g>

<g fill="none" stroke="#000000" stroke-opacity="1" stroke-width="1" stroke-linecap="square" stroke-linejoin="bevel" transform="matrix(1.00104,0,0,1.00104,494.515,717.748)"
font-family="Cantarell" font-size="10" font-weight="400" font-style="normal" 
>
</g>

<g fill="none" stroke="#000000" stroke-opacity="1" stroke-width="1" stroke-linecap="square" stroke-linejoin="bevel" transform="matrix(1.00104,0,0,1.00104,494.515,717.748)"
font-family="Cantarell" font-size="10" font-weight="400" font-style="normal" 
>
</g>

<g fill="none" stroke="#000000" stroke-opacity="1" stroke-width="1" stroke-linecap="square" stroke-linejoin="bevel" transform="matrix(1.00104,0,0,1.00104,494.515,717.748)"
font-family="Sans" font-size="9" font-weight="400" font-style="normal" 
>
<text fill="#000000" fill-opacity="1" stroke="none" xml:space="preserve" x="0" y="0" font-family="Sans" font-size="9" font-weight="400" font-style="normal" 
 >-1.5</text>
</g>

<g fill="none" stroke="#000000" stroke-opacity="1" stroke-width="1" stroke-linecap="square" stroke-linejoin="bevel" transform="matrix(1.00104,0,0,1.00104,494.515,717.748)"
font-family="Cantarell" font-size="10" font-weight="400" font-style="normal" 
>
</g>

<g fill="none" stroke="#000000" stroke-opacity="1" stroke-width="1" stroke-linecap="square" stroke-linejoin="bevel" transform="matrix(1.00104,0,0,1.00104,0,0)"
font-family="Cantarell" font-size="10" font-weight="400" font-style="normal" 
>
</g>

<g fill="none" stroke="#a0a0a4" stroke-opacity="1" stroke-dasharray="0.5,1" stroke-dashoffset="0" stroke-width="0.5" stroke-linecap="round" stroke-linejoin="round" transform="matrix(1.00104,0,0,1.00104,0,0)"
font-family="Cantarell" font-size="10" font-weight="400" font-style="normal" 
>
<polyline fill="none" vector-effect="none" points="523.5,489.5 1418.5,489.5 " />
</g>

<g fill="none" stroke="#000000" stroke-opacity="1" stroke-width="1" stroke-linecap="round" stroke-linejoin="round" transform="matrix(1.00104,0,0,1.00104,0,0)"
font-family="Cantarell" font-size="10" font-weight="400" font-style="normal" 
>
<polyline fill="none" vector-effect="none" points="523.5,489.5 529.5,489.5 " />
<polyline fill="none" vector-effect="none" points="1418.5,489.5 1413.5,489.5 " />
</g>

<g fill="none" stroke="#000000" stroke-opacity="1" stroke-width="1" stroke-linecap="square" stroke-linejoin="bevel" transform="matrix(1.00104,0,0,1.00104,0,0)"
font-family="Cantarell" font-size="10" font-weight="400" font-style="normal" 
>
</g>

<g fill="none" stroke="#000000" stroke-opacity="1" stroke-width="1" stroke-linecap="square" stroke-linejoin="bevel" transform="matrix(1.00104,0,0,1.00104,506.528,494.515)"
font-family="Cantarell" font-size="10" font-weight="400" font-style="normal" 
>
</g>

<g fill="none" stroke="#000000" stroke-opacity="1" stroke-width="1" stroke-linecap="square" stroke-linejoin="bevel" transform="matrix(1.00104,0,0,1.00104,506.528,494.515)"
font-family="Cantarell" font-size="10" font-weight="400" font-style="normal" 
>
</g>

<g fill="none" stroke="#000000" stroke-opacity="1" stroke-width="1" stroke-linecap="square" stroke-linejoin="bevel" transform="matrix(1.00104,0,0,1.00104,506.528,494.515)"
font-family="Cantarell" font-size="10" font-weight="400" font-style="normal" 
>
</g>

<g fill="none" stroke="#000000" stroke-opacity="1" stroke-width="1" stroke-linecap="square" stroke-linejoin="bevel" transform="matrix(1.00104,0,0,1.00104,506.528,494.515)"
font-family="Cantarell" font-size="10" font-weight="400" font-style="normal" 
>
</g>

<g fill="none" stroke="#000000" stroke-opacity="1" stroke-width="1" stroke-linecap="square" stroke-linejoin="bevel" transform="matrix(1.00104,0,0,1.00104,506.528,494.515)"
font-family="Cantarell" font-size="10" font-weight="400" font-style="normal" 
>
</g>

<g fill="none" stroke="#000000" stroke-opacity="1" stroke-width="1" stroke-linecap="square" stroke-linejoin="bevel" transform="matrix(1.00104,0,0,1.00104,506.528,494.515)"
font-family="Sans" font-size="9" font-weight="400" font-style="normal" 
>
<text fill="#000000" fill-opacity="1" stroke="none" xml:space="preserve" x="0" y="0" font-family="Sans" font-size="9" font-weight="400" font-style="normal" 
 >-1</text>
</g>

<g fill="none" stroke="#000000" stroke-opacity="1" stroke-width="1" stroke-linecap="square" stroke-linejoin="bevel" transform="matrix(1.00104,0,0,1.00104,506.528,494.515)"
font-family="Cantarell" font-size="10" font-weight="400" font-style="normal" 
>
</g>

<g fill="none" stroke="#000000" stroke-opacity="1" stroke-width="1" stroke-linecap="square" stroke-linejoin="bevel" transform="matrix(1.00104,0,0,1.00104,0,0)"
font-family="Cantarell" font-size="10" font-weight="400" font-style="normal" 
>
</g>

<g fill="none" stroke="#a0a0a4" stroke-opacity="1" stroke-dasharray="0.5,1" stroke-dashoffset="0" stroke-width="0.5" stroke-linecap="round" stroke-linejoin="round" transform="matrix(1.00104,0,0,1.00104,0,0)"
font-family="Cantarell" font-size="10" font-weight="400" font-style="normal" 
>
<polyline fill="none" vector-effect="none" points="523.5,265.5 1418.5,265.5 " />
</g>

<g fill="none" stroke="#000000" stroke-opacity="1" stroke-width="1" stroke-linecap="round" stroke-linejoin="round" transform="matrix(1.00104,0,0,1.00104,0,0)"
font-family="Cantarell" font-size="10" font-weight="400" font-style="normal" 
>
<polyline fill="none" vector-effect="none" points="523.5,265.5 529.5,265.5 " />
<polyline fill="none" vector-effect="none" points="1418.5,265.5 1413.5,265.5 " />
</g>

<g fill="none" stroke="#000000" stroke-opacity="1" stroke-width="1" stroke-linecap="square" stroke-linejoin="bevel" transform="matrix(1.00104,0,0,1.00104,0,0)"
font-family="Cantarell" font-size="10" font-weight="400" font-style="normal" 
>
</g>

<g fill="none" stroke="#000000" stroke-opacity="1" stroke-width="1" stroke-linecap="square" stroke-linejoin="bevel" transform="matrix(1.00104,0,0,1.00104,494.515,270.282)"
font-family="Cantarell" font-size="10" font-weight="400" font-style="normal" 
>
</g>

<g fill="none" stroke="#000000" stroke-opacity="1" stroke-width="1" stroke-linecap="square" stroke-linejoin="bevel" transform="matrix(1.00104,0,0,1.00104,494.515,270.282)"
font-family="Cantarell" font-size="10" font-weight="400" font-style="normal" 
>
</g>

<g fill="none" stroke="#000000" stroke-opacity="1" stroke-width="1" stroke-linecap="square" stroke-linejoin="bevel" transform="matrix(1.00104,0,0,1.00104,494.515,270.282)"
font-family="Cantarell" font-size="10" font-weight="400" font-style="normal" 
>
</g>

<g fill="none" stroke="#000000" stroke-opacity="1" stroke-width="1" stroke-linecap="square" stroke-linejoin="bevel" transform="matrix(1.00104,0,0,1.00104,494.515,270.282)"
font-family="Cantarell" font-size="10" font-weight="400" font-style="normal" 
>
</g>

<g fill="none" stroke="#000000" stroke-opacity="1" stroke-width="1" stroke-linecap="square" stroke-linejoin="bevel" transform="matrix(1.00104,0,0,1.00104,494.515,270.282)"
font-family="Cantarell" font-size="10" font-weight="400" font-style="normal" 
>
</g>

<g fill="none" stroke="#000000" stroke-opacity="1" stroke-width="1" stroke-linecap="square" stroke-linejoin="bevel" transform="matrix(1.00104,0,0,1.00104,494.515,270.282)"
font-family="Sans" font-size="9" font-weight="400" font-style="normal" 
>
<text fill="#000000" fill-opacity="1" stroke="none" xml:space="preserve" x="0" y="0" font-family="Sans" font-size="9" font-weight="400" font-style="normal" 
 >-0.5</text>
</g>

<g fill="none" stroke="#000000" stroke-opacity="1" stroke-width="1" stroke-linecap="square" stroke-linejoin="bevel" transform="matrix(1.00104,0,0,1.00104,494.515,270.282)"
font-family="Cantarell" font-size="10" font-weight="400" font-style="normal" 
>
</g>

<g fill="none" stroke="#000000" stroke-opacity="1" stroke-width="1" stroke-linecap="square" stroke-linejoin="bevel" transform="matrix(1.00104,0,0,1.00104,0,0)"
font-family="Cantarell" font-size="10" font-weight="400" font-style="normal" 
>
</g>

<g fill="none" stroke="#a0a0a4" stroke-opacity="1" stroke-dasharray="0.5,1" stroke-dashoffset="0" stroke-width="0.5" stroke-linecap="round" stroke-linejoin="round" transform="matrix(1.00104,0,0,1.00104,0,0)"
font-family="Cantarell" font-size="10" font-weight="400" font-style="normal" 
>
<polyline fill="none" vector-effect="none" points="523.5,42.5 1418.5,42.5 " />
</g>

<g fill="none" stroke="#000000" stroke-opacity="1" stroke-width="1" stroke-linecap="round" stroke-linejoin="round" transform="matrix(1.00104,0,0,1.00104,0,0)"
font-family="Cantarell" font-size="10" font-weight="400" font-style="normal" 
>
<polyline fill="none" vector-effect="none" points="523.5,42.5 529.5,42.5 " />
<polyline fill="none" vector-effect="none" points="1418.5,42.5 1413.5,42.5 " />
</g>

<g fill="none" stroke="#000000" stroke-opacity="1" stroke-width="1" stroke-linecap="square" stroke-linejoin="bevel" transform="matrix(1.00104,0,0,1.00104,0,0)"
font-family="Cantarell" font-size="10" font-weight="400" font-style="normal" 
>
</g>

<g fill="none" stroke="#000000" stroke-opacity="1" stroke-width="1" stroke-linecap="square" stroke-linejoin="bevel" transform="matrix(1.00104,0,0,1.00104,506.528,46.048)"
font-family="Cantarell" font-size="10" font-weight="400" font-style="normal" 
>
</g>

<g fill="none" stroke="#000000" stroke-opacity="1" stroke-width="1" stroke-linecap="square" stroke-linejoin="bevel" transform="matrix(1.00104,0,0,1.00104,506.528,46.048)"
font-family="Cantarell" font-size="10" font-weight="400" font-style="normal" 
>
</g>

<g fill="none" stroke="#000000" stroke-opacity="1" stroke-width="1" stroke-linecap="square" stroke-linejoin="bevel" transform="matrix(1.00104,0,0,1.00104,506.528,46.048)"
font-family="Cantarell" font-size="10" font-weight="400" font-style="normal" 
>
</g>

<g fill="none" stroke="#000000" stroke-opacity="1" stroke-width="1" stroke-linecap="square" stroke-linejoin="bevel" transform="matrix(1.00104,0,0,1.00104,506.528,46.048)"
font-family="Cantarell" font-size="10" font-weight="400" font-style="normal" 
>
</g>

<g fill="none" stroke="#000000" stroke-opacity="1" stroke-width="1" stroke-linecap="square" stroke-linejoin="bevel" transform="matrix(1.00104,0,0,1.00104,506.528,46.048)"
font-family="Cantarell" font-size="10" font-weight="400" font-style="normal" 
>
</g>

<g fill="none" stroke="#000000" stroke-opacity="1" stroke-width="1" stroke-linecap="square" stroke-linejoin="bevel" transform="matrix(1.00104,0,0,1.00104,506.528,46.048)"
font-family="Sans" font-size="9" font-weight="400" font-style="normal" 
>
<text fill="#000000" fill-opacity="1" stroke="none" xml:space="preserve" x="0" y="0" font-family="Sans" font-size="9" font-weight="400" font-style="normal" 
 > 0</text>
</g>

<g fill="none" stroke="#000000" stroke-opacity="1" stroke-width="1" stroke-linecap="square" stroke-linejoin="bevel" transform="matrix(1.00104,0,0,1.00104,506.528,46.048)"
font-family="Cantarell" font-size="10" font-weight="400" font-style="normal" 
>
</g>

<g fill="none" stroke="#000000" stroke-opacity="1" stroke-width="1" stroke-linecap="square" stroke-linejoin="bevel" transform="matrix(1.00104,0,0,1.00104,0,0)"
font-family="Cantarell" font-size="10" font-weight="400" font-style="normal" 
>
</g>

<g fill="none" stroke="#a0a0a4" stroke-opacity="1" stroke-dasharray="0.5,1" stroke-dashoffset="0" stroke-width="0.5" stroke-linecap="round" stroke-linejoin="round" transform="matrix(1.00104,0,0,1.00104,0,0)"
font-family="Cantarell" font-size="10" font-weight="400" font-style="normal" 
>
<polyline fill="none" vector-effect="none" points="523.5,937.5 523.5,42.5 " />
</g>

<g fill="none" stroke="#000000" stroke-opacity="1" stroke-width="1" stroke-linecap="round" stroke-linejoin="round" transform="matrix(1.00104,0,0,1.00104,0,0)"
font-family="Cantarell" font-size="10" font-weight="400" font-style="normal" 
>
<polyline fill="none" vector-effect="none" points="523.5,937.5 523.5,931.5 " />
<polyline fill="none" vector-effect="none" points="523.5,42.5 523.5,47.5 " />
</g>

<g fill="none" stroke="#000000" stroke-opacity="1" stroke-width="1" stroke-linecap="square" stroke-linejoin="bevel" transform="matrix(1.00104,0,0,1.00104,0,0)"
font-family="Cantarell" font-size="10" font-weight="400" font-style="normal" 
>
</g>

<g fill="none" stroke="#000000" stroke-opacity="1" stroke-width="1" stroke-linecap="square" stroke-linejoin="bevel" transform="matrix(1.00104,0,0,1.00104,519.041,955.996)"
font-family="Cantarell" font-size="10" font-weight="400" font-style="normal" 
>
</g>

<g fill="none" stroke="#000000" stroke-opacity="1" stroke-width="1" stroke-linecap="square" stroke-linejoin="bevel" transform="matrix(1.00104,0,0,1.00104,519.041,955.996)"
font-family="Cantarell" font-size="10" font-weight="400" font-style="normal" 
>
</g>

<g fill="none" stroke="#000000" stroke-opacity="1" stroke-width="1" stroke-linecap="square" stroke-linejoin="bevel" transform="matrix(1.00104,0,0,1.00104,519.041,955.996)"
font-family="Cantarell" font-size="10" font-weight="400" font-style="normal" 
>
</g>

<g fill="none" stroke="#000000" stroke-opacity="1" stroke-width="1" stroke-linecap="square" stroke-linejoin="bevel" transform="matrix(1.00104,0,0,1.00104,519.041,955.996)"
font-family="Cantarell" font-size="10" font-weight="400" font-style="normal" 
>
</g>

<g fill="none" stroke="#000000" stroke-opacity="1" stroke-width="1" stroke-linecap="square" stroke-linejoin="bevel" transform="matrix(1.00104,0,0,1.00104,519.041,955.996)"
font-family="Cantarell" font-size="10" font-weight="400" font-style="normal" 
>
</g>

<g fill="none" stroke="#000000" stroke-opacity="1" stroke-width="1" stroke-linecap="square" stroke-linejoin="bevel" transform="matrix(1.00104,0,0,1.00104,519.041,955.996)"
font-family="Sans" font-size="9" font-weight="400" font-style="normal" 
>
<text fill="#000000" fill-opacity="1" stroke="none" xml:space="preserve" x="0" y="0" font-family="Sans" font-size="9" font-weight="400" font-style="normal" 
 > 0</text>
</g>

<g fill="none" stroke="#000000" stroke-opacity="1" stroke-width="1" stroke-linecap="square" stroke-linejoin="bevel" transform="matrix(1.00104,0,0,1.00104,519.041,955.996)"
font-family="Cantarell" font-size="10" font-weight="400" font-style="normal" 
>
</g>

<g fill="none" stroke="#000000" stroke-opacity="1" stroke-width="1" stroke-linecap="square" stroke-linejoin="bevel" transform="matrix(1.00104,0,0,1.00104,0,0)"
font-family="Cantarell" font-size="10" font-weight="400" font-style="normal" 
>
</g>

<g fill="none" stroke="#a0a0a4" stroke-opacity="1" stroke-dasharray="0.5,1" stroke-dashoffset="0" stroke-width="0.5" stroke-linecap="round" stroke-linejoin="round" transform="matrix(1.00104,0,0,1.00104,0,0)"
font-family="Cantarell" font-size="10" font-weight="400" font-style="normal" 
>
<polyline fill="none" vector-effect="none" points="747.5,937.5 747.5,42.5 " />
</g>

<g fill="none" stroke="#000000" stroke-opacity="1" stroke-width="1" stroke-linecap="round" stroke-linejoin="round" transform="matrix(1.00104,0,0,1.00104,0,0)"
font-family="Cantarell" font-size="10" font-weight="400" font-style="normal" 
>
<polyline fill="none" vector-effect="none" points="747.5,937.5 747.5,931.5 " />
<polyline fill="none" vector-effect="none" points="747.5,42.5 747.5,47.5 " />
</g>

<g fill="none" stroke="#000000" stroke-opacity="1" stroke-width="1" stroke-linecap="square" stroke-linejoin="bevel" transform="matrix(1.00104,0,0,1.00104,0,0)"
font-family="Cantarell" font-size="10" font-weight="400" font-style="normal" 
>
</g>

<g fill="none" stroke="#000000" stroke-opacity="1" stroke-width="1" stroke-linecap="square" stroke-linejoin="bevel" transform="matrix(1.00104,0,0,1.00104,737.268,955.996)"
font-family="Cantarell" font-size="10" font-weight="400" font-style="normal" 
>
</g>

<g fill="none" stroke="#000000" stroke-opacity="1" stroke-width="1" stroke-linecap="square" stroke-linejoin="bevel" transform="matrix(1.00104,0,0,1.00104,737.268,955.996)"
font-family="Cantarell" font-size="10" font-weight="400" font-style="normal" 
>
</g>

<g fill="none" stroke="#000000" stroke-opacity="1" stroke-width="1" stroke-linecap="square" stroke-linejoin="bevel" transform="matrix(1.00104,0,0,1.00104,737.268,955.996)"
font-family="Cantarell" font-size="10" font-weight="400" font-style="normal" 
>
</g>

<g fill="none" stroke="#000000" stroke-opacity="1" stroke-width="1" stroke-linecap="square" stroke-linejoin="bevel" transform="matrix(1.00104,0,0,1.00104,737.268,955.996)"
font-family="Cantarell" font-size="10" font-weight="400" font-style="normal" 
>
</g>

<g fill="none" stroke="#000000" stroke-opacity="1" stroke-width="1" stroke-linecap="square" stroke-linejoin="bevel" transform="matrix(1.00104,0,0,1.00104,737.268,955.996)"
font-family="Cantarell" font-size="10" font-weight="400" font-style="normal" 
>
</g>

<g fill="none" stroke="#000000" stroke-opacity="1" stroke-width="1" stroke-linecap="square" stroke-linejoin="bevel" transform="matrix(1.00104,0,0,1.00104,737.268,955.996)"
font-family="Sans" font-size="9" font-weight="400" font-style="normal" 
>
<text fill="#000000" fill-opacity="1" stroke="none" xml:space="preserve" x="0" y="0" font-family="Sans" font-size="9" font-weight="400" font-style="normal" 
 > 0.5</text>
</g>

<g fill="none" stroke="#000000" stroke-opacity="1" stroke-width="1" stroke-linecap="square" stroke-linejoin="bevel" transform="matrix(1.00104,0,0,1.00104,737.268,955.996)"
font-family="Cantarell" font-size="10" font-weight="400" font-style="normal" 
>
</g>

<g fill="none" stroke="#000000" stroke-opacity="1" stroke-width="1" stroke-linecap="square" stroke-linejoin="bevel" transform="matrix(1.00104,0,0,1.00104,0,0)"
font-family="Cantarell" font-size="10" font-weight="400" font-style="normal" 
>
</g>

<g fill="none" stroke="#a0a0a4" stroke-opacity="1" stroke-dasharray="0.5,1" stroke-dashoffset="0" stroke-width="0.5" stroke-linecap="round" stroke-linejoin="round" transform="matrix(1.00104,0,0,1.00104,0,0)"
font-family="Cantarell" font-size="10" font-weight="400" font-style="normal" 
>
<polyline fill="none" vector-effect="none" points="971.5,937.5 971.5,42.5 " />
</g>

<g fill="none" stroke="#000000" stroke-opacity="1" stroke-width="1" stroke-linecap="round" stroke-linejoin="round" transform="matrix(1.00104,0,0,1.00104,0,0)"
font-family="Cantarell" font-size="10" font-weight="400" font-style="normal" 
>
<polyline fill="none" vector-effect="none" points="971.5,937.5 971.5,931.5 " />
<polyline fill="none" vector-effect="none" points="971.5,42.5 971.5,47.5 " />
</g>

<g fill="none" stroke="#000000" stroke-opacity="1" stroke-width="1" stroke-linecap="square" stroke-linejoin="bevel" transform="matrix(1.00104,0,0,1.00104,0,0)"
font-family="Cantarell" font-size="10" font-weight="400" font-style="normal" 
>
</g>

<g fill="none" stroke="#000000" stroke-opacity="1" stroke-width="1" stroke-linecap="square" stroke-linejoin="bevel" transform="matrix(1.00104,0,0,1.00104,966.507,955.996)"
font-family="Cantarell" font-size="10" font-weight="400" font-style="normal" 
>
</g>

<g fill="none" stroke="#000000" stroke-opacity="1" stroke-width="1" stroke-linecap="square" stroke-linejoin="bevel" transform="matrix(1.00104,0,0,1.00104,966.507,955.996)"
font-family="Cantarell" font-size="10" font-weight="400" font-style="normal" 
>
</g>

<g fill="none" stroke="#000000" stroke-opacity="1" stroke-width="1" stroke-linecap="square" stroke-linejoin="bevel" transform="matrix(1.00104,0,0,1.00104,966.507,955.996)"
font-family="Cantarell" font-size="10" font-weight="400" font-style="normal" 
>
</g>

<g fill="none" stroke="#000000" stroke-opacity="1" stroke-width="1" stroke-linecap="square" stroke-linejoin="bevel" transform="matrix(1.00104,0,0,1.00104,966.507,955.996)"
font-family="Cantarell" font-size="10" font-weight="400" font-style="normal" 
>
</g>

<g fill="none" stroke="#000000" stroke-opacity="1" stroke-width="1" stroke-linecap="square" stroke-linejoin="bevel" transform="matrix(1.00104,0,0,1.00104,966.507,955.996)"
font-family="Cantarell" font-size="10" font-weight="400" font-style="normal" 
>
</g>

<g fill="none" stroke="#000000" stroke-opacity="1" stroke-width="1" stroke-linecap="square" stroke-linejoin="bevel" transform="matrix(1.00104,0,0,1.00104,966.507,955.996)"
font-family="Sans" font-size="9" font-weight="400" font-style="normal" 
>
<text fill="#000000" fill-opacity="1" stroke="none" xml:space="preserve" x="0" y="0" font-family="Sans" font-size="9" font-weight="400" font-style="normal" 
 > 1</text>
</g>

<g fill="none" stroke="#000000" stroke-opacity="1" stroke-width="1" stroke-linecap="square" stroke-linejoin="bevel" transform="matrix(1.00104,0,0,1.00104,966.507,955.996)"
font-family="Cantarell" font-size="10" font-weight="400" font-style="normal" 
>
</g>

<g fill="none" stroke="#000000" stroke-opacity="1" stroke-width="1" stroke-linecap="square" stroke-linejoin="bevel" transform="matrix(1.00104,0,0,1.00104,0,0)"
font-family="Cantarell" font-size="10" font-weight="400" font-style="normal" 
>
</g>

<g fill="none" stroke="#a0a0a4" stroke-opacity="1" stroke-dasharray="0.5,1" stroke-dashoffset="0" stroke-width="0.5" stroke-linecap="round" stroke-linejoin="round" transform="matrix(1.00104,0,0,1.00104,0,0)"
font-family="Cantarell" font-size="10" font-weight="400" font-style="normal" 
>
<polyline fill="none" vector-effect="none" points="1195.5,937.5 1195.5,42.5 " />
</g>

<g fill="none" stroke="#000000" stroke-opacity="1" stroke-width="1" stroke-linecap="round" stroke-linejoin="round" transform="matrix(1.00104,0,0,1.00104,0,0)"
font-family="Cantarell" font-size="10" font-weight="400" font-style="normal" 
>
<polyline fill="none" vector-effect="none" points="1195.5,937.5 1195.5,931.5 " />
<polyline fill="none" vector-effect="none" points="1195.5,42.5 1195.5,47.5 " />
</g>

<g fill="none" stroke="#000000" stroke-opacity="1" stroke-width="1" stroke-linecap="square" stroke-linejoin="bevel" transform="matrix(1.00104,0,0,1.00104,0,0)"
font-family="Cantarell" font-size="10" font-weight="400" font-style="normal" 
>
</g>

<g fill="none" stroke="#000000" stroke-opacity="1" stroke-width="1" stroke-linecap="square" stroke-linejoin="bevel" transform="matrix(1.00104,0,0,1.00104,1184.73,955.996)"
font-family="Cantarell" font-size="10" font-weight="400" font-style="normal" 
>
</g>

<g fill="none" stroke="#000000" stroke-opacity="1" stroke-width="1" stroke-linecap="square" stroke-linejoin="bevel" transform="matrix(1.00104,0,0,1.00104,1184.73,955.996)"
font-family="Cantarell" font-size="10" font-weight="400" font-style="normal" 
>
</g>

<g fill="none" stroke="#000000" stroke-opacity="1" stroke-width="1" stroke-linecap="square" stroke-linejoin="bevel" transform="matrix(1.00104,0,0,1.00104,1184.73,955.996)"
font-family="Cantarell" font-size="10" font-weight="400" font-style="normal" 
>
</g>

<g fill="none" stroke="#000000" stroke-opacity="1" stroke-width="1" stroke-linecap="square" stroke-linejoin="bevel" transform="matrix(1.00104,0,0,1.00104,1184.73,955.996)"
font-family="Cantarell" font-size="10" font-weight="400" font-style="normal" 
>
</g>

<g fill="none" stroke="#000000" stroke-opacity="1" stroke-width="1" stroke-linecap="square" stroke-linejoin="bevel" transform="matrix(1.00104,0,0,1.00104,1184.73,955.996)"
font-family="Cantarell" font-size="10" font-weight="400" font-style="normal" 
>
</g>

<g fill="none" stroke="#000000" stroke-opacity="1" stroke-width="1" stroke-linecap="square" stroke-linejoin="bevel" transform="matrix(1.00104,0,0,1.00104,1184.73,955.996)"
font-family="Sans" font-size="9" font-weight="400" font-style="normal" 
>
<text fill="#000000" fill-opacity="1" stroke="none" xml:space="preserve" x="0" y="0" font-family="Sans" font-size="9" font-weight="400" font-style="normal" 
 > 1.5</text>
</g>

<g fill="none" stroke="#000000" stroke-opacity="1" stroke-width="1" stroke-linecap="square" stroke-linejoin="bevel" transform="matrix(1.00104,0,0,1.00104,1184.73,955.996)"
font-family="Cantarell" font-size="10" font-weight="400" font-style="normal" 
>
</g>

<g fill="none" stroke="#000000" stroke-opacity="1" stroke-width="1" stroke-linecap="square" stroke-linejoin="bevel" transform="matrix(1.00104,0,0,1.00104,0,0)"
font-family="Cantarell" font-size="10" font-weight="400" font-style="normal" 
>
</g>

<g fill="none" stroke="#a0a0a4" stroke-opacity="1" stroke-dasharray="0.5,1" stroke-dashoffset="0" stroke-width="0.5" stroke-linecap="round" stroke-linejoin="round" transform="matrix(1.00104,0,0,1.00104,0,0)"
font-family="Cantarell" font-size="10" font-weight="400" font-style="normal" 
>
<polyline fill="none" vector-effect="none" points="1418.5,937.5 1418.5,42.5 " />
</g>

<g fill="none" stroke="#000000" stroke-opacity="1" stroke-width="1" stroke-linecap="round" stroke-linejoin="round" transform="matrix(1.00104,0,0,1.00104,0,0)"
font-family="Cantarell" font-size="10" font-weight="400" font-style="normal" 
>
<polyline fill="none" vector-effect="none" points="1418.5,937.5 1418.5,931.5 " />
<polyline fill="none" vector-effect="none" points="1418.5,42.5 1418.5,47.5 " />
</g>

<g fill="none" stroke="#000000" stroke-opacity="1" stroke-width="1" stroke-linecap="square" stroke-linejoin="bevel" transform="matrix(1.00104,0,0,1.00104,0,0)"
font-family="Cantarell" font-size="10" font-weight="400" font-style="normal" 
>
</g>

<g fill="none" stroke="#000000" stroke-opacity="1" stroke-width="1" stroke-linecap="square" stroke-linejoin="bevel" transform="matrix(1.00104,0,0,1.00104,1414.97,955.996)"
font-family="Cantarell" font-size="10" font-weight="400" font-style="normal" 
>
</g>

<g fill="none" stroke="#000000" stroke-opacity="1" stroke-width="1" stroke-linecap="square" stroke-linejoin="bevel" transform="matrix(1.00104,0,0,1.00104,1414.97,955.996)"
font-family="Cantarell" font-size="10" font-weight="400" font-style="normal" 
>
</g>

<g fill="none" stroke="#000000" stroke-opacity="1" stroke-width="1" stroke-linecap="square" stroke-linejoin="bevel" transform="matrix(1.00104,0,0,1.00104,1414.97,955.996)"
font-family="Cantarell" font-size="10" font-weight="400" font-style="normal" 
>
</g>

<g fill="none" stroke="#000000" stroke-opacity="1" stroke-width="1" stroke-linecap="square" stroke-linejoin="bevel" transform="matrix(1.00104,0,0,1.00104,1414.97,955.996)"
font-family="Cantarell" font-size="10" font-weight="400" font-style="normal" 
>
</g>

<g fill="none" stroke="#000000" stroke-opacity="1" stroke-width="1" stroke-linecap="square" stroke-linejoin="bevel" transform="matrix(1.00104,0,0,1.00104,1414.97,955.996)"
font-family="Cantarell" font-size="10" font-weight="400" font-style="normal" 
>
</g>

<g fill="none" stroke="#000000" stroke-opacity="1" stroke-width="1" stroke-linecap="square" stroke-linejoin="bevel" transform="matrix(1.00104,0,0,1.00104,1414.97,955.996)"
font-family="Sans" font-size="9" font-weight="400" font-style="normal" 
>
<text fill="#000000" fill-opacity="1" stroke="none" xml:space="preserve" x="0" y="0" font-family="Sans" font-size="9" font-weight="400" font-style="normal" 
 > 2</text>
</g>

<g fill="none" stroke="#000000" stroke-opacity="1" stroke-width="1" stroke-linecap="square" stroke-linejoin="bevel" transform="matrix(1.00104,0,0,1.00104,1414.97,955.996)"
font-family="Cantarell" font-size="10" font-weight="400" font-style="normal" 
>
</g>

<g fill="none" stroke="#000000" stroke-opacity="1" stroke-width="1" stroke-linecap="square" stroke-linejoin="bevel" transform="matrix(1.00104,0,0,1.00104,0,0)"
font-family="Cantarell" font-size="10" font-weight="400" font-style="normal" 
>
</g>

<g fill="none" stroke="#000000" stroke-opacity="1" stroke-width="1" stroke-linecap="round" stroke-linejoin="round" transform="matrix(1.00104,0,0,1.00104,0,0)"
font-family="Cantarell" font-size="10" font-weight="400" font-style="normal" 
>
<polyline fill="none" vector-effect="none" points="523.5,42.5 523.5,937.5 1418.5,937.5 1418.5,42.5 523.5,42.5 " />
</g>

<g fill="none" stroke="#000000" stroke-opacity="1" stroke-width="1" stroke-linecap="square" stroke-linejoin="bevel" transform="matrix(1.00104,0,0,1.00104,0,0)"
font-family="Cantarell" font-size="10" font-weight="400" font-style="normal" 
>
</g>

<g fill="none" stroke="#000000" stroke-opacity="1" stroke-width="1" stroke-linecap="square" stroke-linejoin="bevel" transform="matrix(1.00104,0,0,1.00104,936.475,25.0261)"
font-family="Cantarell" font-size="10" font-weight="400" font-style="normal" 
>
</g>

<g fill="none" stroke="#000000" stroke-opacity="1" stroke-width="1" stroke-linecap="square" stroke-linejoin="bevel" transform="matrix(1.00104,0,0,1.00104,936.475,25.0261)"
font-family="Cantarell" font-size="10" font-weight="400" font-style="normal" 
>
</g>

<g fill="none" stroke="#000000" stroke-opacity="1" stroke-width="1" stroke-linecap="square" stroke-linejoin="bevel" transform="matrix(1.00104,0,0,1.00104,936.475,25.0261)"
font-family="Cantarell" font-size="10" font-weight="400" font-style="normal" 
>
</g>

<g fill="none" stroke="#000000" stroke-opacity="1" stroke-width="1" stroke-linecap="square" stroke-linejoin="bevel" transform="matrix(1.00104,0,0,1.00104,936.475,25.0261)"
font-family="Cantarell" font-size="10" font-weight="400" font-style="normal" 
>
</g>

<g fill="none" stroke="#000000" stroke-opacity="1" stroke-width="1" stroke-linecap="square" stroke-linejoin="bevel" transform="matrix(1.00104,0,0,1.00104,936.475,25.0261)"
font-family="Cantarell" font-size="10" font-weight="400" font-style="normal" 
>
</g>

<g fill="none" stroke="#000000" stroke-opacity="1" stroke-width="1" stroke-linecap="square" stroke-linejoin="bevel" transform="matrix(1.00104,0,0,1.00104,936.475,25.0261)"
font-family="Sans" font-size="9" font-weight="400" font-style="normal" 
>
<text fill="#000000" fill-opacity="1" stroke="none" xml:space="preserve" x="0" y="0" font-family="Sans" font-size="9" font-weight="400" font-style="normal" 
 >Comparacio</text>
</g>

<g fill="none" stroke="#000000" stroke-opacity="1" stroke-width="1" stroke-linecap="square" stroke-linejoin="bevel" transform="matrix(1.00104,0,0,1.00104,936.475,25.0261)"
font-family="Cantarell" font-size="10" font-weight="400" font-style="normal" 
>
</g>

<g fill="none" stroke="#000000" stroke-opacity="1" stroke-width="1" stroke-linecap="square" stroke-linejoin="bevel" transform="matrix(1.00104,0,0,1.00104,1311.37,59.0615)"
font-family="Cantarell" font-size="10" font-weight="400" font-style="normal" 
>
</g>

<g fill="none" stroke="#000000" stroke-opacity="1" stroke-width="1" stroke-linecap="square" stroke-linejoin="bevel" transform="matrix(1.00104,0,0,1.00104,1311.37,59.0615)"
font-family="Cantarell" font-size="10" font-weight="400" font-style="normal" 
>
</g>

<g fill="none" stroke="#000000" stroke-opacity="1" stroke-width="1" stroke-linecap="square" stroke-linejoin="bevel" transform="matrix(1.00104,0,0,1.00104,1311.37,59.0615)"
font-family="Cantarell" font-size="10" font-weight="400" font-style="normal" 
>
</g>

<g fill="none" stroke="#000000" stroke-opacity="1" stroke-width="1" stroke-linecap="square" stroke-linejoin="bevel" transform="matrix(1.00104,0,0,1.00104,1311.37,59.0615)"
font-family="Cantarell" font-size="10" font-weight="400" font-style="normal" 
>
</g>

<g fill="none" stroke="#000000" stroke-opacity="1" stroke-width="1" stroke-linecap="square" stroke-linejoin="bevel" transform="matrix(1.00104,0,0,1.00104,1311.37,59.0615)"
font-family="Cantarell" font-size="10" font-weight="400" font-style="normal" 
>
</g>

<g fill="none" stroke="#000000" stroke-opacity="1" stroke-width="1" stroke-linecap="square" stroke-linejoin="bevel" transform="matrix(1.00104,0,0,1.00104,1311.37,59.0615)"
font-family="Sans" font-size="9" font-weight="400" font-style="normal" 
>
<text fill="#000000" fill-opacity="1" stroke="none" xml:space="preserve" x="0" y="0" font-family="Sans" font-size="9" font-weight="400" font-style="normal" 
 >Variant 1</text>
</g>

<g fill="none" stroke="#000000" stroke-opacity="1" stroke-width="1" stroke-linecap="square" stroke-linejoin="bevel" transform="matrix(1.00104,0,0,1.00104,1311.37,59.0615)"
font-family="Cantarell" font-size="10" font-weight="400" font-style="normal" 
>
</g>

<g fill="none" stroke="#000000" stroke-opacity="1" stroke-width="1" stroke-linecap="square" stroke-linejoin="bevel" transform="matrix(1.00104,0,0,1.00104,0,0)"
font-family="Cantarell" font-size="10" font-weight="400" font-style="normal" 
>
</g>

<g fill="none" stroke="#9400d3" stroke-opacity="1" stroke-width="1" stroke-linecap="round" stroke-linejoin="round" transform="matrix(1.00104,0,0,1.00104,0,0)"
font-family="Cantarell" font-size="10" font-weight="400" font-style="normal" 
>
<path vector-effect="none" fill-rule="evenodd" d="M1371.5,54.5 L1404.5,54.5"/>
</g>

<g fill="none" stroke="#000000" stroke-opacity="1" stroke-width="1" stroke-linecap="square" stroke-linejoin="bevel" transform="matrix(1.00104,0,0,1.00104,0,0)"
font-family="Cantarell" font-size="10" font-weight="400" font-style="normal" 
>
</g>

<g fill="none" stroke="#000000" stroke-opacity="1" stroke-width="1" stroke-linecap="square" stroke-linejoin="bevel" transform="matrix(1.00104,0,0,1.00104,0,0)"
font-family="Cantarell" font-size="10" font-weight="400" font-style="normal" 
>
</g>

<g fill="none" stroke="#000000" stroke-opacity="1" stroke-width="1" stroke-linecap="square" stroke-linejoin="bevel" transform="matrix(1.00104,0,0,1.00104,0,0)"
font-family="Cantarell" font-size="10" font-weight="400" font-style="normal" 
>
</g>

<g fill="none" stroke="#000000" stroke-opacity="1" stroke-width="1" stroke-linecap="square" stroke-linejoin="bevel" transform="matrix(1.00104,0,0,1.00104,0,0)"
font-family="Cantarell" font-size="10" font-weight="400" font-style="normal" 
>
</g>

<g fill="none" stroke="#9400d3" stroke-opacity="1" stroke-width="1" stroke-linecap="round" stroke-linejoin="round" transform="matrix(1.00104,0,0,1.00104,0,0)"
font-family="Cantarell" font-size="10" font-weight="400" font-style="normal" 
>
<polyline fill="none" vector-effect="none" points="523.7,42.1 523.7,42.1 523.7,42.1 523.7,42.1 523.7,42.1 523.7,42.1 523.7,42.2 523.8,42.2 523.8,42.3 523.8,42.4 523.8,42.5 523.8,42.6 523.9,42.8 523.9,42.9 523.9,43.1 524,43.3 524,43.6 524.1,43.8 524.1,44.1 524.2,44.4 524.2,44.7 524.3,45 524.3,45.4 524.4,45.7 524.4,46.1 524.5,46.5 524.6,47 524.6,47.4 524.7,47.9 524.8,48.4 524.9,48.9 525,49.4 525,49.9 525.1,50.5 525.2,51.1 525.3,51.7 525.4,52.3 525.5,52.9 525.6,53.5 525.7,54.2 525.8,54.8 525.9,55.5 526.1,56.2 526.2,56.9 526.3,57.6 526.4,58.3 526.5,59 526.7,59.8 526.8,60.5 526.9,61.3 527.1,62.1 527.2,62.9 527.3,63.6 527.5,64.4 527.6,65.2 527.8,66.1 527.9,66.9 528.1,67.7 528.2,68.6 528.4,69.4 528.6,70.2 528.7,71.1 528.9,72 529.1,72.8 529.3,73.7 529.4,74.6 529.6,75.5 529.8,76.4 530,77.3 530.2,78.2 530.4,79.1 530.6,80 530.7,80.9 530.9,81.8 531.2,82.8 531.4,83.7 531.6,84.6 531.8,85.6 532,86.5 532.2,87.5 532.4,88.4 532.7,89.4 532.9,90.3 533.1,91.3 533.3,92.3 533.6,93.2 533.8,94.2 534,95.2 534.3,96.2 534.5,97.2 534.8,98.1 535,99.1 535.3,100.1 535.5,101.1 535.8,102.1 536.1,103.1 536.3,104.1 536.6,105.2 536.9,106.2 537.1,107.2 537.4,108.2 537.7,109.2 538,110.2 538.2,111.3 538.5,112.3 538.8,113.3 539.1,114.4 539.4,115.4 539.7,116.5 540,117.5 540.3,118.5 540.6,119.6 540.9,120.6 541.2,121.7 541.6,122.8 541.9,123.8 542.2,124.9 542.5,125.9 542.8,127 543.2,128.1 543.5,129.1 543.8,130.2 544.2,131.3 544.5,132.4 544.9,133.5 545.2,134.5 545.6,135.6 545.9,136.7 546.3,137.8 546.6,138.9 547,140 547.3,141.1 547.7,142.2 548.1,143.3 548.4,144.4 548.8,145.5 549.2,146.6 549.6,147.7 549.9,148.8 550.3,149.9 550.7,151 551.1,152.1 551.5,153.3 551.9,154.4 552.3,155.5 552.7,156.6 553.1,157.7 553.5,158.9 553.9,160 554.3,161.1 554.7,162.3 555.2,163.4 555.6,164.5 556,165.7 556.4,166.8 556.9,167.9 557.3,169.1 557.7,170.2 558.2,171.4 558.6,172.5 559.1,173.7 559.5,174.8 559.9,176 560.4,177.1 560.9,178.3 561.3,179.4 561.8,180.6 562.2,181.8 562.7,182.9 563.2,184.1 563.6,185.3 564.1,186.4 564.6,187.6 565.1,188.8 565.6,189.9 566,191.1 566.5,192.3 567,193.4 567.5,194.6 568,195.8 568.5,197 569,198.2 569.5,199.3 570,200.5 570.5,201.7 571,202.9 571.6,204.1 572.1,205.3 572.6,206.5 573.1,207.7 573.7,208.9 574.2,210.1 574.7,211.2 575.3,212.4 575.8,213.6 576.3,214.8 576.9,216 577.4,217.2 578,218.5 578.5,219.7 579.1,220.9 579.6,222.1 580.2,223.3 580.8,224.5 581.3,225.7 581.9,226.9 582.5,228.1 583,229.3 583.6,230.6 584.2,231.8 584.8,233 585.4,234.2 586,235.4 586.6,236.6 587.1,237.9 587.7,239.1 588.3,240.3 588.9,241.5 589.6,242.8 590.2,244 590.8,245.2 591.4,246.5 592,247.7 592.6,248.9 593.2,250.2 593.9,251.4 594.5,252.6 595.1,253.9 595.8,255.1 596.4,256.3 597,257.6 597.7,258.8 598.3,260.1 599,261.3 599.6,262.5 600.3,263.8 600.9,265 601.6,266.3 602.2,267.5 602.9,268.8 603.6,270 604.3,271.3 604.9,272.5 605.6,273.8 606.3,275 607,276.3 607.6,277.5 608.3,278.8 609,280 609.7,281.3 610.4,282.5 611.1,283.8 611.8,285 612.5,286.3 613.2,287.6 613.9,288.8 614.6,290.1 615.3,291.3 616.1,292.6 616.8,293.9 617.5,295.1 618.2,296.4 619,297.7 619.7,298.9 620.4,300.2 621.2,301.5 621.9,302.7 622.6,304 623.4,305.3 624.1,306.5 624.9,307.8 625.6,309.1 626.4,310.4 627.2,311.6 627.9,312.9 628.7,314.2 629.5,315.5 630.2,316.7 631,318 631.8,319.3 632.6,320.6 633.3,321.8 634.1,323.1 634.9,324.4 635.7,325.7 636.5,327 637.3,328.2 638.1,329.5 638.9,330.8 639.7,332.1 640.5,333.4 641.3,334.6 642.1,335.9 642.9,337.2 643.8,338.5 644.6,339.8 645.4,341.1 646.2,342.4 647.1,343.6 647.9,344.9 648.7,346.2 649.6,347.5 650.4,348.8 651.2,350.1 652.1,351.4 652.9,352.7 653.8,353.9 654.6,355.2 655.5,356.5 656.4,357.8 657.2,359.1 658.1,360.4 659,361.7 659.8,363 660.7,364.3 661.6,365.6 662.5,366.9 663.3,368.2 664.2,369.5 665.1,370.8 666,372 666.9,373.3 667.8,374.6 668.7,375.9 669.6,377.2 670.5,378.5 671.4,379.8 672.3,381.1 673.2,382.4 674.1,383.7 675.1,385 676,386.3 676.9,387.6 677.8,388.9 678.8,390.2 679.7,391.5 680.6,392.8 681.6,394.1 682.5,395.4 683.5,396.7 684.4,398 685.4,399.3 686.3,400.6 687.3,401.9 688.2,403.2 689.2,404.5 690.1,405.8 691.1,407.1 692.1,408.4 693.1,409.7 694,411 695,412.3 696,413.6 697,414.9 698,416.3 698.9,417.6 699.9,418.9 700.9,420.2 701.9,421.5 702.9,422.8 703.9,424.1 704.9,425.4 705.9,426.7 707,428 708,429.3 709,430.6 710,431.9 711,433.2 712.1,434.5 713.1,435.8 714.1,437.1 715.1,438.4 716.2,439.7 717.2,441 718.3,442.3 719.3,443.6 720.4,444.9 721.4,446.3 722.5,447.6 723.5,448.9 724.6,450.2 725.6,451.5 726.7,452.8 727.8,454.1 728.8,455.4 729.9,456.7 731,458 732.1,459.3 733.1,460.6 734.2,461.9 735.3,463.2 736.4,464.5 737.5,465.8 738.6,467.1 739.7,468.4 740.8,469.7 741.9,471 743,472.3 744.1,473.7 745.2,475 746.3,476.3 747.5,477.6 748.6,478.9 749.7,480.2 750.8,481.5 751.9,482.8 753.1,484.1 754.2,485.4 755.3,486.7 756.5,488 757.6,489.3 758.8,490.6 759.9,491.9 761.1,493.2 762.2,494.5 763.4,495.8 764.5,497.1 765.7,498.4 766.9,499.7 768,501 769.2,502.3 770.4,503.6 771.6,504.9 772.7,506.2 773.9,507.5 775.1,508.8 776.3,510.1 777.5,511.4 778.7,512.7 779.9,514 781.1,515.3 782.3,516.6 783.5,517.9 784.7,519.2 785.9,520.5 787.1,521.8 788.3,523.1 789.5,524.4 790.8,525.7 792,527 793.2,528.3 794.4,529.6 795.7,530.9 796.9,532.1 798.1,533.4 799.4,534.7 800.6,536 801.9,537.3 803.1,538.6 804.4,539.9 805.6,541.2 806.9,542.5 808.1,543.8 809.4,545.1 810.7,546.4 811.9,547.6 813.2,548.9 814.5,550.2 815.8,551.5 817,552.8 818.3,554.1 819.6,555.4 820.9,556.7 822.2,558 823.5,559.2 824.8,560.5 826.1,561.8 827.4,563.1 828.7,564.4 830,565.7 831.3,566.9 832.6,568.2 833.9,569.5 835.2,570.8 836.6,572.1 837.9,573.4 839.2,574.6 840.6,575.9 841.9,577.2 843.2,578.5 844.6,579.8 845.9,581 847.2,582.3 848.6,583.6 849.9,584.9 851.3,586.1 852.6,587.4 854,588.7 855.4,590 856.7,591.2 858.1,592.5 859.5,593.8 860.8,595.1 862.2,596.3 863.6,597.6 865,598.9 866.4,600.1 867.7,601.4 869.1,602.7 870.5,603.9 871.9,605.2 873.3,606.5 874.7,607.7 876.1,609 877.5,610.3 878.9,611.5 880.3,612.8 881.8,614.1 883.2,615.3 884.6,616.6 886,617.9 887.4,619.1 888.9,620.4 890.3,621.6 891.7,622.9 893.2,624.1 894.6,625.4 896,626.7 897.5,627.9 898.9,629.2 900.4,630.4 901.8,631.7 903.3,632.9 904.8,634.2 906.2,635.4 907.7,636.7 909.1,637.9 910.6,639.2 912.1,640.4 913.6,641.7 915,642.9 916.5,644.2 918,645.4 919.5,646.7 921,647.9 922.5,649.2 924,650.4 925.5,651.6 927,652.9 928.5,654.1 930,655.4 931.5,656.6 933,657.8 934.5,659.1 936,660.3 937.5,661.5 939.1,662.8 940.6,664 942.1,665.2 943.7,666.5 945.2,667.7 946.7,668.9 948.3,670.2 949.8,671.4 951.4,672.6 952.9,673.8 954.5,675.1 956,676.3 957.6,677.5 959.1,678.7 960.7,680 962.3,681.2 963.8,682.4 965.4,683.6 967,684.8 968.5,686.1 970.1,687.3 971.7,688.5 973.3,689.7 974.9,690.9 976.5,692.1 978.1,693.4 979.6,694.6 981.2,695.8 982.8,697 984.5,698.2 986.1,699.4 987.7,700.6 989.3,701.8 990.9,703 992.5,704.2 994.1,705.4 995.8,706.6 997.4,707.8 999,709 1000.6,710.2 1002.3,711.4 1003.9,712.6 1005.6,713.8 1007.2,715 1008.8,716.2 1010.5,717.4 1012.1,718.6 1013.8,719.8 1015.5,721 1017.1,722.2 1018.8,723.3 1020.4,724.5 1022.1,725.7 1023.8,726.9 1025.5,728.1 1027.1,729.3 1028.8,730.4 1030.5,731.6 1032.2,732.8 1033.9,734 1035.6,735.1 1037.3,736.3 1039,737.5 1040.7,738.7 1042.4,739.8 1044.1,741 1045.8,742.2 1047.5,743.3 1049.2,744.5 1050.9,745.7 1052.6,746.8 1054.3,748 1056.1,749.2 1057.8,750.3 1059.5,751.5 1061.3,752.7 1063,753.8 1064.7,755 1066.5,756.1 1068.2,757.3 1070,758.4 1071.7,759.6 1073.5,760.7 1075.2,761.9 1077,763 1078.7,764.2 1080.5,765.3 1082.3,766.5 1084,767.6 1085.8,768.7 1087.6,769.9 1089.4,771 1091.1,772.2 1092.9,773.3 1094.7,774.4 1096.5,775.6 1098.3,776.7 1100.1,777.8 1101.9,779 1103.7,780.1 1105.5,781.2 1107.3,782.4 1109.1,783.5 1110.9,784.6 1112.7,785.7 1114.5,786.8 1116.4,788 1118.2,789.1 1120,790.2 1121.8,791.3 1123.7,792.4 1125.5,793.5 1127.3,794.7 1129.2,795.8 1131,796.9 1132.9,798 1134.7,799.1 1136.6,800.2 1138.4,801.3 1140.3,802.4 1142.1,803.5 1144,804.6 1145.8,805.7 1147.7,806.8 1149.6,807.9 1151.5,809 1153.3,810.1 1155.2,811.2 1157.1,812.2 1159,813.3 1160.9,814.4 1162.8,815.5 1164.6,816.6 1166.5,817.7 1168.4,818.8 1170.3,819.8 1172.2,820.9 1174.1,822 1176.1,823.1 1178,824.1 1179.9,825.2 1181.8,826.3 1183.7,827.3 1185.6,828.4 1187.6,829.5 1189.5,830.5 1191.4,831.6 1193.4,832.7 1195.3,833.7 1197.2,834.8 1199.2,835.8 1201.1,836.9 1203.1,837.9 1205,839 1207,840 1208.9,841.1 1210.9,842.1 1212.9,843.2 1214.8,844.2 1216.8,845.3 1218.8,846.3 1220.7,847.3 1222.7,848.4 1224.7,849.4 1226.7,850.4 1228.7,851.5 1230.6,852.5 1232.6,853.5 1234.6,854.6 1236.6,855.6 1238.6,856.6 1240.6,857.6 1242.6,858.7 1244.6,859.7 1246.6,860.7 1248.7,861.7 1250.7,862.7 1252.7,863.7 1254.7,864.7 1256.7,865.8 1258.8,866.8 1260.8,867.8 1262.8,868.8 1264.8,869.8 1266.9,870.8 1268.9,871.8 1271,872.8 1273,873.8 1275.1,874.8 1277.1,875.7 1279.2,876.7 1281.2,877.7 1283.3,878.7 1285.4,879.7 1287.4,880.7 1289.5,881.7 1291.6,882.6 1293.6,883.6 1295.7,884.6 1297.8,885.6 1299.9,886.5 1302,887.5 1304,888.5 1306.1,889.4 1308.2,890.4 1310.3,891.4 1312.4,892.3 1314.5,893.3 1316.6,894.2 1318.7,895.2 1320.8,896.1 1323,897.1 1325.1,898 1327.2,899 1329.3,899.9 1331.4,900.9 1333.6,901.8 1335.7,902.8 1337.8,903.7 1340,904.6 1342.1,905.6 1344.2,906.5 1346.4,907.4 1348.5,908.4 1350.7,909.3 1352.8,910.2 1355,911.1 1357.1,912.1 1359.3,913 1361.5,913.9 1363.6,914.8 1365.8,915.7 1368,916.6 1370.2,917.5 1372.3,918.4 1374.5,919.3 1376.7,920.2 1378.9,921.1 1381.1,922 1383.3,922.9 1385.5,923.8 1387.6,924.7 1389.8,925.6 1392.1,926.5 1394.3,927.4 1396.5,928.3 1398.7,929.2 1400.9,930 1403.1,930.9 1405.3,931.8 1407.5,932.7 1409.8,933.5 1412,934.4 1414.2,935.3 1416.5,936.1 1418.7,937 " />
</g>

<g fill="none" stroke="#000000" stroke-opacity="1" stroke-width="1" stroke-linecap="square" stroke-linejoin="bevel" transform="matrix(1.00104,0,0,1.00104,0,0)"
font-family="Cantarell" font-size="10" font-weight="400" font-style="normal" 
>
</g>

<g fill="none" stroke="#000000" stroke-opacity="1" stroke-width="1" stroke-linecap="square" stroke-linejoin="bevel" transform="matrix(1.00104,0,0,1.00104,1311.37,73.0761)"
font-family="Cantarell" font-size="10" font-weight="400" font-style="normal" 
>
</g>

<g fill="none" stroke="#000000" stroke-opacity="1" stroke-width="1" stroke-linecap="square" stroke-linejoin="bevel" transform="matrix(1.00104,0,0,1.00104,1311.37,73.0761)"
font-family="Cantarell" font-size="10" font-weight="400" font-style="normal" 
>
</g>

<g fill="none" stroke="#000000" stroke-opacity="1" stroke-width="1" stroke-linecap="square" stroke-linejoin="bevel" transform="matrix(1.00104,0,0,1.00104,1311.37,73.0761)"
font-family="Cantarell" font-size="10" font-weight="400" font-style="normal" 
>
</g>

<g fill="none" stroke="#000000" stroke-opacity="1" stroke-width="1" stroke-linecap="square" stroke-linejoin="bevel" transform="matrix(1.00104,0,0,1.00104,1311.37,73.0761)"
font-family="Cantarell" font-size="10" font-weight="400" font-style="normal" 
>
</g>

<g fill="none" stroke="#000000" stroke-opacity="1" stroke-width="1" stroke-linecap="square" stroke-linejoin="bevel" transform="matrix(1.00104,0,0,1.00104,1311.37,73.0761)"
font-family="Cantarell" font-size="10" font-weight="400" font-style="normal" 
>
</g>

<g fill="none" stroke="#000000" stroke-opacity="1" stroke-width="1" stroke-linecap="square" stroke-linejoin="bevel" transform="matrix(1.00104,0,0,1.00104,1311.37,73.0761)"
font-family="Sans" font-size="9" font-weight="400" font-style="normal" 
>
<text fill="#000000" fill-opacity="1" stroke="none" xml:space="preserve" x="0" y="0" font-family="Sans" font-size="9" font-weight="400" font-style="normal" 
 >Variant 2</text>
</g>

<g fill="none" stroke="#000000" stroke-opacity="1" stroke-width="1" stroke-linecap="square" stroke-linejoin="bevel" transform="matrix(1.00104,0,0,1.00104,1311.37,73.0761)"
font-family="Cantarell" font-size="10" font-weight="400" font-style="normal" 
>
</g>

<g fill="none" stroke="#000000" stroke-opacity="1" stroke-width="1" stroke-linecap="square" stroke-linejoin="bevel" transform="matrix(1.00104,0,0,1.00104,0,0)"
font-family="Cantarell" font-size="10" font-weight="400" font-style="normal" 
>
</g>

<g fill="none" stroke="#009e73" stroke-opacity="1" stroke-width="1" stroke-linecap="round" stroke-linejoin="round" transform="matrix(1.00104,0,0,1.00104,0,0)"
font-family="Cantarell" font-size="10" font-weight="400" font-style="normal" 
>
<path vector-effect="none" fill-rule="evenodd" d="M1371.5,68.5 L1404.5,68.5"/>
</g>

<g fill="none" stroke="#000000" stroke-opacity="1" stroke-width="1" stroke-linecap="square" stroke-linejoin="bevel" transform="matrix(1.00104,0,0,1.00104,0,0)"
font-family="Cantarell" font-size="10" font-weight="400" font-style="normal" 
>
</g>

<g fill="none" stroke="#000000" stroke-opacity="1" stroke-width="1" stroke-linecap="square" stroke-linejoin="bevel" transform="matrix(1.00104,0,0,1.00104,0,0)"
font-family="Cantarell" font-size="10" font-weight="400" font-style="normal" 
>
</g>

<g fill="none" stroke="#000000" stroke-opacity="1" stroke-width="1" stroke-linecap="square" stroke-linejoin="bevel" transform="matrix(1.00104,0,0,1.00104,0,0)"
font-family="Cantarell" font-size="10" font-weight="400" font-style="normal" 
>
</g>

<g fill="none" stroke="#000000" stroke-opacity="1" stroke-width="1" stroke-linecap="square" stroke-linejoin="bevel" transform="matrix(1.00104,0,0,1.00104,0,0)"
font-family="Cantarell" font-size="10" font-weight="400" font-style="normal" 
>
</g>

<g fill="none" stroke="#009e73" stroke-opacity="1" stroke-width="1" stroke-linecap="round" stroke-linejoin="round" transform="matrix(1.00104,0,0,1.00104,0,0)"
font-family="Cantarell" font-size="10" font-weight="400" font-style="normal" 
>
<polyline fill="none" vector-effect="none" points="523.7,42.1 523.7,42.1 523.7,42.1 523.7,42.1 523.7,42.1 523.7,42.1 523.7,42.1 523.7,42.2 523.7,42.2 523.7,42.2 523.7,42.2 523.7,42.2 523.7,42.3 523.7,42.3 523.7,42.3 523.7,42.4 523.7,42.4 523.7,42.5 523.7,42.5 523.7,42.6 523.7,42.6 523.7,42.7 523.7,42.7 523.7,42.8 523.7,42.8 523.7,42.9 523.7,43 523.7,43 523.7,43.1 523.7,43.2 523.7,43.3 523.7,43.4 523.7,43.4 523.7,43.5 523.7,43.6 523.7,43.7 523.7,43.8 523.7,43.9 523.8,44 523.8,44.1 523.8,44.2 523.8,44.3 523.8,44.5 523.8,44.6 523.8,44.7 523.8,44.8 523.8,44.9 523.8,45.1 523.8,45.2 523.8,45.3 523.8,45.5 523.8,45.6 523.8,45.7 523.9,45.9 523.9,46 523.9,46.2 523.9,46.3 523.9,46.5 523.9,46.6 523.9,46.8 523.9,47 523.9,47.1 523.9,47.3 524,47.5 524,47.6 524,47.8 524,48 524,48.2 524,48.4 524,48.6 524.1,48.8 524.1,49 524.1,49.1 524.1,49.3 524.1,49.6 524.1,49.8 524.2,50 524.2,50.2 524.2,50.4 524.2,50.6 524.2,50.8 524.3,51 524.3,51.3 524.3,51.5 524.3,51.7 524.3,52 524.4,52.2 524.4,52.4 524.4,52.7 524.4,52.9 524.5,53.2 524.5,53.4 524.5,53.7 524.5,53.9 524.6,54.2 524.6,54.5 524.6,54.7 524.7,55 524.7,55.3 524.7,55.5 524.8,55.8 524.8,56.1 524.8,56.4 524.9,56.6 524.9,56.9 524.9,57.2 525,57.5 525,57.8 525,58.1 525.1,58.4 525.1,58.7 525.1,59 525.2,59.3 525.2,59.6 525.3,60 525.3,60.3 525.4,60.6 525.4,60.9 525.4,61.2 525.5,61.6 525.5,61.9 525.6,62.2 525.6,62.6 525.7,62.9 525.7,63.3 525.8,63.6 525.8,63.9 525.9,64.3 525.9,64.7 526,65 526,65.4 526.1,65.7 526.2,66.1 526.2,66.5 526.3,66.8 526.3,67.2 526.4,67.6 526.4,68 526.5,68.3 526.6,68.7 526.6,69.1 526.7,69.5 526.8,69.9 526.8,70.3 526.9,70.7 527,71.1 527,71.5 527.1,71.9 527.2,72.3 527.2,72.7 527.3,73.1 527.4,73.6 527.5,74 527.5,74.4 527.6,74.8 527.7,75.3 527.8,75.7 527.9,76.1 527.9,76.6 528,77 528.1,77.4 528.2,77.9 528.3,78.3 528.4,78.8 528.4,79.3 528.5,79.7 528.6,80.2 528.7,80.6 528.8,81.1 528.9,81.6 529,82 529.1,82.5 529.2,83 529.3,83.5 529.4,83.9 529.5,84.4 529.6,84.9 529.7,85.4 529.8,85.9 529.9,86.4 530,86.9 530.1,87.4 530.2,87.9 530.3,88.4 530.4,88.9 530.6,89.4 530.7,90 530.8,90.5 530.9,91 531,91.5 531.1,92 531.3,92.6 531.4,93.1 531.5,93.6 531.6,94.2 531.7,94.7 531.9,95.3 532,95.8 532.1,96.4 532.3,96.9 532.4,97.5 532.5,98 532.7,98.6 532.8,99.2 532.9,99.7 533.1,100.3 533.2,100.9 533.4,101.4 533.5,102 533.6,102.6 533.8,103.2 533.9,103.8 534.1,104.4 534.2,104.9 534.4,105.5 534.5,106.1 534.7,106.7 534.9,107.3 535,107.9 535.2,108.6 535.3,109.2 535.5,109.8 535.7,110.4 535.8,111 536,111.6 536.2,112.3 536.3,112.9 536.5,113.5 536.7,114.2 536.9,114.8 537,115.4 537.2,116.1 537.4,116.7 537.6,117.4 537.8,118 537.9,118.7 538.1,119.3 538.3,120 538.5,120.6 538.7,121.3 538.9,122 539.1,122.6 539.3,123.3 539.5,124 539.7,124.7 539.9,125.3 540.1,126 540.3,126.7 540.5,127.4 540.7,128.1 540.9,128.8 541.1,129.5 541.3,130.2 541.6,130.9 541.8,131.6 542,132.3 542.2,133 542.4,133.7 542.7,134.5 542.9,135.2 543.1,135.9 543.3,136.6 543.6,137.4 543.8,138.1 544.1,138.8 544.3,139.6 544.5,140.3 544.8,141 545,141.8 545.3,142.5 545.5,143.3 545.8,144 546,144.8 546.3,145.6 546.5,146.3 546.8,147.1 547,147.8 547.3,148.6 547.6,149.4 547.8,150.2 548.1,150.9 548.4,151.7 548.6,152.5 548.9,153.3 549.2,154.1 549.5,154.9 549.7,155.7 550,156.5 550.3,157.3 550.6,158.1 550.9,158.9 551.2,159.7 551.5,160.5 551.8,161.3 552.1,162.1 552.4,163 552.7,163.8 553,164.6 553.3,165.4 553.6,166.3 553.9,167.1 554.2,167.9 554.5,168.8 554.8,169.6 555.1,170.5 555.5,171.3 555.8,172.2 556.1,173 556.4,173.9 556.8,174.7 557.1,175.6 557.4,176.5 557.8,177.3 558.1,178.2 558.5,179.1 558.8,180 559.2,180.8 559.5,181.7 559.9,182.6 560.2,183.5 560.6,184.4 560.9,185.3 561.3,186.2 561.7,187.1 562,188 562.4,188.9 562.8,189.8 563.1,190.7 563.5,191.6 563.9,192.5 564.3,193.5 564.7,194.4 565,195.3 565.4,196.2 565.8,197.2 566.2,198.1 566.6,199 567,200 567.4,200.9 567.8,201.8 568.2,202.8 568.6,203.7 569,204.7 569.5,205.6 569.9,206.6 570.3,207.6 570.7,208.5 571.1,209.5 571.6,210.5 572,211.4 572.4,212.4 572.9,213.4 573.3,214.4 573.8,215.4 574.2,216.3 574.7,217.3 575.1,218.3 575.6,219.3 576,220.3 576.5,221.3 576.9,222.3 577.4,223.3 577.9,224.3 578.3,225.3 578.8,226.4 579.3,227.4 579.8,228.4 580.2,229.4 580.7,230.4 581.2,231.5 581.7,232.5 582.2,233.5 582.7,234.6 583.2,235.6 583.7,236.6 584.2,237.7 584.7,238.7 585.2,239.8 585.7,240.8 586.3,241.9 586.8,243 587.3,244 587.8,245.1 588.4,246.1 588.9,247.2 589.4,248.3 590,249.4 590.5,250.4 591.1,251.5 591.6,252.6 592.2,253.7 592.7,254.8 593.3,255.9 593.8,257 594.4,258.1 595,259.2 595.6,260.3 596.1,261.4 596.7,262.5 597.3,263.6 597.9,264.7 598.5,265.8 599.1,266.9 599.7,268.1 600.3,269.2 600.9,270.3 601.5,271.5 602.1,272.6 602.7,273.7 603.3,274.9 603.9,276 604.5,277.2 605.2,278.3 605.8,279.4 606.4,280.6 607.1,281.8 607.7,282.9 608.4,284.1 609,285.2 609.7,286.4 610.3,287.6 611,288.8 611.6,289.9 612.3,291.1 613,292.3 613.6,293.5 614.3,294.7 615,295.9 615.7,297 616.4,298.2 617.1,299.4 617.8,300.6 618.5,301.8 619.2,303.1 619.9,304.3 620.6,305.5 621.3,306.7 622,307.9 622.7,309.1 623.5,310.4 624.2,311.6 624.9,312.8 625.7,314 626.4,315.3 627.2,316.5 627.9,317.8 628.7,319 629.4,320.2 630.2,321.5 631,322.7 631.7,324 632.5,325.3 633.3,326.5 634.1,327.8 634.9,329 635.6,330.3 636.4,331.6 637.2,332.9 638,334.1 638.8,335.4 639.7,336.7 640.5,338 641.3,339.3 642.1,340.6 643,341.8 643.8,343.1 644.6,344.4 645.5,345.7 646.3,347 647.2,348.4 648,349.7 648.9,351 649.8,352.3 650.6,353.6 651.5,354.9 652.4,356.3 653.3,357.6 654.1,358.9 655,360.2 655.9,361.6 656.8,362.9 657.7,364.3 658.6,365.6 659.6,367 660.5,368.3 661.4,369.7 662.3,371 663.3,372.4 664.2,373.7 665.2,375.1 666.1,376.5 667.1,377.8 668,379.2 669,380.6 669.9,382 670.9,383.3 671.9,384.7 672.9,386.1 673.9,387.5 674.9,388.9 675.9,390.3 676.9,391.7 677.9,393.1 678.9,394.5 679.9,395.9 680.9,397.3 682,398.7 683,400.1 684,401.5 685.1,402.9 686.1,404.4 687.2,405.8 688.2,407.2 689.3,408.7 690.4,410.1 691.4,411.5 692.5,413 693.6,414.4 694.7,415.8 695.8,417.3 696.9,418.7 698,420.2 699.1,421.7 700.2,423.1 701.4,424.6 702.5,426 703.6,427.5 704.8,429 705.9,430.4 707.1,431.9 708.2,433.4 709.4,434.9 710.6,436.4 711.7,437.8 712.9,439.3 714.1,440.8 715.3,442.3 716.5,443.8 717.7,445.3 718.9,446.8 720.1,448.3 721.4,449.8 722.6,451.4 723.8,452.9 725.1,454.4 726.3,455.9 727.6,457.4 728.8,458.9 730.1,460.5 731.4,462 732.7,463.5 733.9,465.1 735.2,466.6 736.5,468.2 737.8,469.7 739.2,471.3 740.5,472.8 741.8,474.4 743.1,475.9 744.5,477.5 745.8,479 747.2,480.6 748.5,482.2 749.9,483.7 751.2,485.3 752.6,486.9 754,488.5 755.4,490 756.8,491.6 758.2,493.2 759.6,494.8 761,496.4 762.5,498 763.9,499.6 765.3,501.2 766.8,502.8 768.2,504.4 769.7,506 771.2,507.6 772.6,509.2 774.1,510.9 775.6,512.5 777.1,514.1 778.6,515.7 780.1,517.4 781.6,519 783.2,520.6 784.7,522.3 786.2,523.9 787.8,525.5 789.3,527.2 790.9,528.8 792.5,530.5 794.1,532.1 795.6,533.8 797.2,535.5 798.8,537.1 800.5,538.8 802.1,540.5 803.7,542.1 805.3,543.8 807,545.5 808.6,547.2 810.3,548.8 812,550.5 813.6,552.2 815.3,553.9 817,555.6 818.7,557.3 820.4,559 822.1,560.7 823.9,562.4 825.6,564.1 827.3,565.8 829.1,567.5 830.9,569.2 832.6,571 834.4,572.7 836.2,574.4 838,576.1 839.8,577.9 841.6,579.6 843.4,581.3 845.3,583.1 847.1,584.8 849,586.6 850.8,588.3 852.7,590.1 854.6,591.8 856.5,593.6 858.4,595.3 860.3,597.1 862.2,598.8 864.1,600.6 866.1,602.4 868,604.1 870,605.9 871.9,607.7 873.9,609.5 875.9,611.3 877.9,613 879.9,614.8 881.9,616.6 884,618.4 886,620.2 888,622 890.1,623.8 892.2,625.6 894.3,627.4 896.4,629.2 898.5,631.1 900.6,632.9 902.7,634.7 904.8,636.5 907,638.3 909.1,640.2 911.3,642 913.5,643.8 915.7,645.7 917.9,647.5 920.1,649.3 922.3,651.2 924.6,653 926.8,654.9 929.1,656.7 931.3,658.6 933.6,660.5 935.9,662.3 938.2,664.2 940.6,666 942.9,667.9 945.2,669.8 947.6,671.7 950,673.5 952.4,675.4 954.8,677.3 957.2,679.2 959.6,681.1 962,683 964.5,684.9 967,686.8 969.4,688.7 971.9,690.6 974.4,692.5 977,694.4 979.5,696.3 982,698.2 984.6,700.1 987.2,702 989.8,704 992.4,705.9 995,707.8 997.6,709.8 1000.3,711.7 1002.9,713.6 1005.6,715.6 1008.3,717.5 1011,719.4 1013.7,721.4 1016.5,723.3 1019.2,725.3 1022,727.3 1024.8,729.2 1027.6,731.2 1030.4,733.1 1033.2,735.1 1036.1,737.1 1039,739.1 1041.8,741 1044.7,743 1047.7,745 1050.6,747 1053.5,749 1056.5,751 1059.5,752.9 1062.5,754.9 1065.5,756.9 1068.6,758.9 1071.6,760.9 1074.7,762.9 1077.8,765 1080.9,767 1084.1,769 1087.2,771 1090.4,773 1093.6,775 1096.8,777.1 1100.1,779.1 1103.3,781.1 1106.6,783.2 1109.9,785.2 1113.2,787.2 1116.6,789.3 1119.9,791.3 1123.3,793.4 1126.7,795.4 1130.1,797.5 1133.6,799.5 1137.1,801.6 1140.6,803.7 1144.1,805.7 1147.6,807.8 1151.2,809.9 1154.8,811.9 1158.4,814 1162,816.1 1165.7,818.2 1169.4,820.3 1173.1,822.4 1176.8,824.4 1180.6,826.5 1184.4,828.6 1188.2,830.7 1192.1,832.8 1196,834.9 1199.9,837 1203.8,839.2 1207.7,841.3 1211.7,843.4 1215.8,845.5 1219.8,847.6 1223.9,849.7 1228,851.9 1232.1,854 1236.3,856.1 1240.5,858.3 1244.8,860.4 1249,862.6 1253.3,864.7 1257.7,866.8 1262,869 1266.5,871.1 1270.9,873.3 1275.4,875.5 1279.9,877.6 1284.5,879.8 1289.1,881.9 1293.7,884.1 1298.4,886.3 1303.1,888.5 1307.8,890.6 1312.6,892.8 1317.5,895 1322.3,897.2 1327.3,899.4 1332.2,901.6 1337.3,903.8 1342.3,906 1347.4,908.2 1352.6,910.4 1357.8,912.6 1363.1,914.8 1368.4,917 1373.7,919.2 1379.2,921.4 1384.6,923.6 1390.2,925.8 1395.7,928.1 1401.4,930.3 1407.1,932.5 1412.9,934.8 1418.7,937 " />
</g>

<g fill="none" stroke="#000000" stroke-opacity="1" stroke-width="1" stroke-linecap="square" stroke-linejoin="bevel" transform="matrix(1.00104,0,0,1.00104,0,0)"
font-family="Cantarell" font-size="10" font-weight="400" font-style="normal" 
>
</g>

<g fill="none" stroke="#000000" stroke-opacity="1" stroke-width="1" stroke-linecap="square" stroke-linejoin="bevel" transform="matrix(1.00104,0,0,1.00104,1311.37,87.0907)"
font-family="Cantarell" font-size="10" font-weight="400" font-style="normal" 
>
</g>

<g fill="none" stroke="#000000" stroke-opacity="1" stroke-width="1" stroke-linecap="square" stroke-linejoin="bevel" transform="matrix(1.00104,0,0,1.00104,1311.37,87.0907)"
font-family="Cantarell" font-size="10" font-weight="400" font-style="normal" 
>
</g>

<g fill="none" stroke="#000000" stroke-opacity="1" stroke-width="1" stroke-linecap="square" stroke-linejoin="bevel" transform="matrix(1.00104,0,0,1.00104,1311.37,87.0907)"
font-family="Cantarell" font-size="10" font-weight="400" font-style="normal" 
>
</g>

<g fill="none" stroke="#000000" stroke-opacity="1" stroke-width="1" stroke-linecap="square" stroke-linejoin="bevel" transform="matrix(1.00104,0,0,1.00104,1311.37,87.0907)"
font-family="Cantarell" font-size="10" font-weight="400" font-style="normal" 
>
</g>

<g fill="none" stroke="#000000" stroke-opacity="1" stroke-width="1" stroke-linecap="square" stroke-linejoin="bevel" transform="matrix(1.00104,0,0,1.00104,1311.37,87.0907)"
font-family="Cantarell" font-size="10" font-weight="400" font-style="normal" 
>
</g>

<g fill="none" stroke="#000000" stroke-opacity="1" stroke-width="1" stroke-linecap="square" stroke-linejoin="bevel" transform="matrix(1.00104,0,0,1.00104,1311.37,87.0907)"
font-family="Sans" font-size="9" font-weight="400" font-style="normal" 
>
<text fill="#000000" fill-opacity="1" stroke="none" xml:space="preserve" x="0" y="0" font-family="Sans" font-size="9" font-weight="400" font-style="normal" 
 >Variant 3</text>
</g>

<g fill="none" stroke="#000000" stroke-opacity="1" stroke-width="1" stroke-linecap="square" stroke-linejoin="bevel" transform="matrix(1.00104,0,0,1.00104,1311.37,87.0907)"
font-family="Cantarell" font-size="10" font-weight="400" font-style="normal" 
>
</g>

<g fill="none" stroke="#000000" stroke-opacity="1" stroke-width="1" stroke-linecap="square" stroke-linejoin="bevel" transform="matrix(1.00104,0,0,1.00104,0,0)"
font-family="Cantarell" font-size="10" font-weight="400" font-style="normal" 
>
</g>

<g fill="none" stroke="#56b4e9" stroke-opacity="1" stroke-width="1" stroke-linecap="round" stroke-linejoin="round" transform="matrix(1.00104,0,0,1.00104,0,0)"
font-family="Cantarell" font-size="10" font-weight="400" font-style="normal" 
>
<path vector-effect="none" fill-rule="evenodd" d="M1371.5,82.5 L1404.5,82.5"/>
</g>

<g fill="none" stroke="#000000" stroke-opacity="1" stroke-width="1" stroke-linecap="square" stroke-linejoin="bevel" transform="matrix(1.00104,0,0,1.00104,0,0)"
font-family="Cantarell" font-size="10" font-weight="400" font-style="normal" 
>
</g>

<g fill="none" stroke="#000000" stroke-opacity="1" stroke-width="1" stroke-linecap="square" stroke-linejoin="bevel" transform="matrix(1.00104,0,0,1.00104,0,0)"
font-family="Cantarell" font-size="10" font-weight="400" font-style="normal" 
>
</g>

<g fill="none" stroke="#000000" stroke-opacity="1" stroke-width="1" stroke-linecap="square" stroke-linejoin="bevel" transform="matrix(1.00104,0,0,1.00104,0,0)"
font-family="Cantarell" font-size="10" font-weight="400" font-style="normal" 
>
</g>

<g fill="none" stroke="#000000" stroke-opacity="1" stroke-width="1" stroke-linecap="square" stroke-linejoin="bevel" transform="matrix(1.00104,0,0,1.00104,0,0)"
font-family="Cantarell" font-size="10" font-weight="400" font-style="normal" 
>
</g>

<g fill="none" stroke="#56b4e9" stroke-opacity="1" stroke-width="1" stroke-linecap="round" stroke-linejoin="round" transform="matrix(1.00104,0,0,1.00104,0,0)"
font-family="Cantarell" font-size="10" font-weight="400" font-style="normal" 
>
<polyline fill="none" vector-effect="none" points="523.7,42.1 523.7,42.1 523.7,42.1 523.7,42.1 523.7,42.1 523.7,42.1 523.7,42.1 523.7,42.1 523.7,42.1 523.7,42.1 523.7,42.1 523.7,42.1 523.7,42.1 523.7,42.1 523.7,42.1 523.7,42.1 523.7,42.1 523.7,42.1 523.7,42.1 523.7,42.1 523.7,42.1 523.7,42.1 523.7,42.1 523.7,42.1 523.7,42.1 523.7,42.1 523.7,42.1 523.7,42.1 523.7,42.1 523.7,42.2 523.7,42.2 523.7,42.2 523.7,42.2 523.7,42.2 523.7,42.2 523.7,42.2 523.7,42.2 523.7,42.2 523.7,42.3 523.7,42.3 523.7,42.3 523.7,42.3 523.7,42.3 523.7,42.4 523.7,42.4 523.7,42.4 523.7,42.4 523.7,42.5 523.7,42.5 523.7,42.5 523.7,42.6 523.7,42.6 523.7,42.7 523.7,42.7 523.7,42.7 523.7,42.8 523.7,42.8 523.7,42.9 523.7,43 523.7,43 523.7,43.1 523.7,43.1 523.7,43.2 523.7,43.3 523.7,43.4 523.7,43.4 523.7,43.5 523.7,43.6 523.7,43.7 523.7,43.8 523.8,43.9 523.8,44 523.8,44.1 523.8,44.2 523.8,44.4 523.8,44.5 523.8,44.6 523.8,44.8 523.8,44.9 523.8,45 523.8,45.2 523.8,45.4 523.8,45.5 523.8,45.7 523.9,45.9 523.9,46 523.9,46.2 523.9,46.4 523.9,46.6 523.9,46.8 523.9,47.1 523.9,47.3 524,47.5 524,47.8 524,48 524,48.3 524,48.5 524.1,48.8 524.1,49.1 524.1,49.4 524.1,49.7 524.2,50 524.2,50.3 524.2,50.6 524.2,51 524.3,51.3 524.3,51.7 524.3,52 524.4,52.4 524.4,52.8 524.5,53.2 524.5,53.6 524.6,54 524.6,54.5 524.7,54.9 524.7,55.4 524.8,55.8 524.8,56.3 524.9,56.8 524.9,57.3 525,57.8 525.1,58.4 525.1,58.9 525.2,59.5 525.3,60 525.4,60.6 525.4,61.2 525.5,61.8 525.6,62.5 525.7,63.1 525.8,63.8 525.9,64.5 526,65.2 526.1,65.9 526.2,66.6 526.3,67.3 526.5,68.1 526.6,68.9 526.7,69.6 526.8,70.4 527,71.3 527.1,72.1 527.3,73 527.4,73.9 527.6,74.8 527.8,75.7 527.9,76.6 528.1,77.6 528.3,78.5 528.5,79.5 528.7,80.5 528.9,81.6 529.1,82.6 529.3,83.7 529.6,84.8 529.8,85.9 530,87.1 530.3,88.2 530.5,89.4 530.8,90.6 531.1,91.8 531.4,93.1 531.6,94.3 531.9,95.6 532.3,97 532.6,98.3 532.9,99.7 533.2,101.1 533.6,102.5 534,103.9 534.3,105.4 534.7,106.9 535.1,108.4 535.5,109.9 535.9,111.5 536.4,113.1 536.8,114.7 537.3,116.4 537.7,118.1 538.2,119.8 538.7,121.5 539.2,123.3 539.8,125 540.3,126.9 540.9,128.7 541.4,130.6 542,132.5 542.6,134.4 543.2,136.4 543.9,138.4 544.5,140.4 545.2,142.5 545.9,144.6 546.6,146.7 547.3,148.8 548.1,151 548.8,153.2 549.6,155.5 550.4,157.7 551.3,160.1 552.1,162.4 553,164.8 553.9,167.2 554.8,169.6 555.7,172.1 556.7,174.6 557.7,177.2 558.7,179.7 559.7,182.4 560.8,185 561.8,187.7 561.8,187.7 563,190.4 564.1,193.2 565.3,196 565.3,196 566.4,198.8 567.7,201.7 568.9,204.6 568.9,204.6 570.2,207.5 570.2,207.5 571.5,210.5 572.9,213.5 574.2,216.6 574.2,216.6 574.2,216.6 574.2,216.6 574.2,216.6 575.6,219.7 577.1,222.8 578.5,226 580,229.2 580,229.2 580,229.2 580,229.2 581.6,232.4 581.6,232.4 581.6,232.4 583.2,235.7 584.8,239 586.4,242.4 588.1,245.8 589.8,249.2 591.6,252.7 593.4,256.3 595.2,259.8 597.1,263.4 597.1,263.4 597.1,263.4 597.1,263.4 597.1,263.4 599,267.1 599,267.1 599,267.1 599,267.1 601,270.7 603,274.5 603,274.5 605,278.2 605,278.2 605,278.2 607.1,282 609.2,285.9 611.4,289.8 611.4,289.8 611.4,289.8 611.4,289.8 611.4,289.8 611.4,289.8 611.4,289.8 613.6,293.7 613.6,293.7 615.9,297.7 615.9,297.7 615.9,297.7 615.9,297.7 618.2,301.7 620.6,305.7 620.6,305.7 623,309.8 625.5,314 628,318.1 630.6,322.4 630.6,322.4 630.6,322.4 633.2,326.6 633.2,326.6 633.2,326.6 633.2,326.6 633.2,326.6 635.9,330.9 635.9,330.9 638.6,335.3 641.4,339.7 644.2,344.1 644.2,344.1 644.2,344.1 647.1,348.6 647.1,348.6 650.1,353.1 653.1,357.7 656.2,362.3 659.4,366.9 662.6,371.6 662.6,371.6 665.8,376.4 665.8,376.4 669.2,381.1 669.2,381.1 672.6,386 672.6,386 676,390.8 679.6,395.7 679.6,395.7 679.6,395.7 679.6,395.7 679.6,395.7 679.6,395.7 679.6,395.7 679.6,395.7 683.2,400.7 683.2,400.7 683.2,400.7 683.2,400.7 683.2,400.7 683.2,400.7 683.2,400.7 683.2,400.7 683.2,400.7 683.2,400.7 686.8,405.7 686.8,405.7 686.8,405.7 686.8,405.7 686.8,405.7 686.8,405.7 686.8,405.7 686.8,405.7 690.6,410.7 694.4,415.8 694.4,415.8 694.4,415.8 694.4,415.8 698.3,420.9 702.2,426 706.3,431.2 706.3,431.2 710.4,436.5 710.4,436.5 710.4,436.5 710.4,436.5 710.4,436.5 710.4,436.5 710.4,436.5 710.4,436.5 710.4,436.5 710.4,436.5 714.6,441.8 714.6,441.8 714.6,441.8 714.6,441.8 714.6,441.8 714.6,441.8 714.6,441.8 714.6,441.8 714.6,441.8 718.9,447.1 718.9,447.1 718.9,447.1 718.9,447.1 718.9,447.1 718.9,447.1 718.9,447.1 718.9,447.1 718.9,447.1 718.9,447.1 718.9,447.1 718.9,447.1 718.9,447.1 718.9,447.1 718.9,447.1 718.9,447.1 718.9,447.1 718.9,447.1 718.9,447.1 723.2,452.5 723.2,452.5 723.2,452.5 723.2,452.5 723.2,452.5 723.2,452.5 723.2,452.5 723.2,452.5 723.2,452.5 723.2,452.5 723.2,452.5 727.7,457.9 727.7,457.9 727.7,457.9 727.7,457.9 727.7,457.9 727.7,457.9 727.7,457.9 727.7,457.9 727.7,457.9 727.7,457.9 727.7,457.9 727.7,457.9 727.7,457.9 727.7,457.9 727.7,457.9 727.7,457.9 727.7,457.9 727.7,457.9 732.2,463.3 732.2,463.3 732.2,463.3 732.2,463.3 732.2,463.3 732.2,463.3 732.2,463.3 732.2,463.3 732.2,463.3 732.2,463.3 732.2,463.3 732.2,463.3 732.2,463.3 732.2,463.3 732.2,463.3 732.2,463.3 732.2,463.3 732.2,463.3 732.2,463.3 732.2,463.3 732.2,463.3 732.2,463.3 732.2,463.3 732.2,463.3 732.2,463.3 732.2,463.3 732.2,463.3 732.2,463.3 732.2,463.3 732.2,463.3 732.2,463.3 732.2,463.3 732.2,463.3 732.2,463.3 732.2,463.3 732.2,463.3 732.2,463.3 732.2,463.3 732.2,463.3 732.2,463.3 732.2,463.3 732.2,463.3 732.2,463.3 732.2,463.3 732.2,463.3 732.2,463.3 732.2,463.3 732.2,463.3 732.2,463.3 732.2,463.3 732.2,463.3 732.2,463.3 732.2,463.3 732.2,463.3 732.2,463.3 732.2,463.3 732.2,463.3 732.2,463.3 732.2,463.3 732.2,463.3 732.2,463.3 736.8,468.8 736.8,468.8 736.8,468.8 736.8,468.8 736.8,468.8 736.8,468.8 736.8,468.8 741.5,474.3 741.5,474.3 746.3,479.9 746.3,479.9 746.3,479.9 746.3,479.9 746.3,479.9 746.3,479.9 746.3,479.9 746.3,479.9 746.3,479.9 746.3,479.9 746.3,479.9 746.3,479.9 746.3,479.9 746.3,479.9 746.3,479.9 746.3,479.9 746.3,479.9 746.3,479.9 746.3,479.9 746.3,479.9 746.3,479.9 746.3,479.9 746.3,479.9 746.3,479.9 746.3,479.9 751.1,485.5 751.1,485.5 751.1,485.5 751.1,485.5 751.1,485.5 751.1,485.5 751.1,485.5 751.1,485.5 751.1,485.5 751.1,485.5 751.1,485.5 751.1,485.5 751.1,485.5 751.1,485.5 751.1,485.5 756.1,491.2 756.1,491.2 756.1,491.2 756.1,491.2 761.1,496.9 761.1,496.9 761.1,496.9 761.1,496.9 761.1,496.9 761.1,496.9 766.3,502.6 766.3,502.6 766.3,502.6 766.3,502.6 766.3,502.6 766.3,502.6 766.3,502.6 766.3,502.6 766.3,502.6 771.5,508.4 771.5,508.4 771.5,508.4 771.5,508.4 771.5,508.4 771.5,508.4 771.5,508.4 771.5,508.4 771.5,508.4 771.5,508.4 771.5,508.4 771.5,508.4 771.5,508.4 771.5,508.4 771.5,508.4 771.5,508.4 771.5,508.4 771.5,508.4 771.5,508.4 771.5,508.4 776.8,514.2 776.8,514.2 776.8,514.2 776.8,514.2 776.8,514.2 776.8,514.2 776.8,514.2 776.8,514.2 776.8,514.2 776.8,514.2 776.8,514.2 776.8,514.2 776.8,514.2 776.8,514.2 776.8,514.2 776.8,514.2 776.8,514.2 776.8,514.2 776.8,514.2 776.8,514.2 776.8,514.2 776.8,514.2 776.8,514.2 782.3,520 782.3,520 782.3,520 782.3,520 782.3,520 782.3,520 782.3,520 787.8,525.9 793.4,531.8 793.4,531.8 793.4,531.8 793.4,531.8 793.4,531.8 793.4,531.8 793.4,531.8 793.4,531.8 793.4,531.8 799.1,537.8 799.1,537.8 799.1,537.8 799.1,537.8 799.1,537.8 799.1,537.8 799.1,537.8 799.1,537.8 799.1,537.8 799.1,537.8 799.1,537.8 805,543.8 805,543.8 810.9,549.8 810.9,549.8 810.9,549.8 810.9,549.8 810.9,549.8 810.9,549.8 810.9,549.8 810.9,549.8 810.9,549.8 810.9,549.8 810.9,549.8 816.9,555.9 816.9,555.9 816.9,555.9 816.9,555.9 816.9,555.9 816.9,555.9 816.9,555.9 816.9,555.9 823.1,562 823.1,562 823.1,562 823.1,562 823.1,562 823.1,562 823.1,562 823.1,562 823.1,562 823.1,562 823.1,562 829.4,568.2 829.4,568.2 829.4,568.2 829.4,568.2 835.7,574.3 842.2,580.6 842.2,580.6 842.2,580.6 842.2,580.6 842.2,580.6 842.2,580.6 842.2,580.6 842.2,580.6 842.2,580.6 848.8,586.8 855.6,593.1 862.4,599.4 869.4,605.8 876.5,612.1 876.5,612.1 883.7,618.5 891,625 898.5,631.5 898.5,631.5 898.5,631.5 906.1,638 913.8,644.5 913.8,644.5 921.7,651.1 929.7,657.7 929.7,657.7 929.7,657.7 937.9,664.3 946.2,670.9 954.6,677.6 963.2,684.2 972,691 980.8,697.7 989.9,704.4 999.1,711.2 1008.5,718 1018,724.8 1027.7,731.6 1037.6,738.5 1047.7,745.4 1057.9,752.2 1057.9,752.2 1057.9,752.2 1057.9,752.2 1068.3,759.1 1068.3,759.1 1068.3,759.1 1068.3,759.1 1068.3,759.1 1068.3,759.1 1068.3,759.1 1068.3,759.1 1068.3,759.1 1068.3,759.1 1068.3,759.1 1068.3,759.1 1068.3,759.1 1068.3,759.1 1078.9,766 1089.7,772.9 1089.7,772.9 1089.7,772.9 1089.7,772.9 1100.7,779.8 1100.7,779.8 1100.7,779.8 1100.7,779.8 1100.7,779.8 1111.9,786.7 1123.3,793.7 1134.9,800.6 1146.6,807.5 1146.6,807.5 1158.7,814.5 1158.7,814.5 1171,821.4 1183.4,828.3 1183.4,828.3 1183.4,828.3 1196.1,835.3 1196.1,835.3 1196.1,835.3 1196.1,835.3 1196.1,835.3 1196.1,835.3 1196.1,835.3 1196.1,835.3 1196.1,835.3 1196.1,835.3 1196.1,835.3 1209,842.2 1209,842.2 1209,842.2 1209,842.2 1209,842.2 1209,842.2 1209,842.2 1222.2,849.1 1222.2,849.1 1222.2,849.1 1222.2,849.1 1222.2,849.1 1222.2,849.1 1235.6,856 1235.6,856 1235.6,856 1235.6,856 1235.6,856 1235.6,856 1235.6,856 1235.6,856 1249.3,862.9 1249.3,862.9 1249.3,862.9 1263.2,869.7 1263.2,869.7 1263.2,869.7 1263.2,869.7 1263.2,869.7 1263.2,869.7 1277.4,876.6 1291.9,883.4 1291.9,883.4 1291.9,883.4 1291.9,883.4 1291.9,883.4 1291.9,883.4 1291.9,883.4 1291.9,883.4 1291.9,883.4 1291.9,883.4 1291.9,883.4 1291.9,883.4 1291.9,883.4 1291.9,883.4 1291.9,883.4 1291.9,883.4 1291.9,883.4 1291.9,883.4 1306.6,890.2 1306.6,890.2 1306.6,890.2 1321.7,897 1321.7,897 1337,903.8 1352.7,910.5 1368.7,917.2 1385,923.8 1401.7,930.4 1418.7,937 " />
</g>

<g fill="none" stroke="#000000" stroke-opacity="1" stroke-width="1" stroke-linecap="square" stroke-linejoin="bevel" transform="matrix(1.00104,0,0,1.00104,0,0)"
font-family="Cantarell" font-size="10" font-weight="400" font-style="normal" 
>
</g>

<g fill="none" stroke="#000000" stroke-opacity="1" stroke-width="1" stroke-linecap="square" stroke-linejoin="bevel" transform="matrix(1.00104,0,0,1.00104,1274.33,101.105)"
font-family="Cantarell" font-size="10" font-weight="400" font-style="normal" 
>
</g>

<g fill="none" stroke="#000000" stroke-opacity="1" stroke-width="1" stroke-linecap="square" stroke-linejoin="bevel" transform="matrix(1.00104,0,0,1.00104,1274.33,101.105)"
font-family="Cantarell" font-size="10" font-weight="400" font-style="normal" 
>
</g>

<g fill="none" stroke="#000000" stroke-opacity="1" stroke-width="1" stroke-linecap="square" stroke-linejoin="bevel" transform="matrix(1.00104,0,0,1.00104,1274.33,101.105)"
font-family="Cantarell" font-size="10" font-weight="400" font-style="normal" 
>
</g>

<g fill="none" stroke="#000000" stroke-opacity="1" stroke-width="1" stroke-linecap="square" stroke-linejoin="bevel" transform="matrix(1.00104,0,0,1.00104,1274.33,101.105)"
font-family="Cantarell" font-size="10" font-weight="400" font-style="normal" 
>
</g>

<g fill="none" stroke="#000000" stroke-opacity="1" stroke-width="1" stroke-linecap="square" stroke-linejoin="bevel" transform="matrix(1.00104,0,0,1.00104,1274.33,101.105)"
font-family="Cantarell" font-size="10" font-weight="400" font-style="normal" 
>
</g>

<g fill="none" stroke="#000000" stroke-opacity="1" stroke-width="1" stroke-linecap="square" stroke-linejoin="bevel" transform="matrix(1.00104,0,0,1.00104,1274.33,101.105)"
font-family="Sans" font-size="9" font-weight="400" font-style="normal" 
>
<text fill="#000000" fill-opacity="1" stroke="none" xml:space="preserve" x="0" y="0" font-family="Sans" font-size="9" font-weight="400" font-style="normal" 
 >Braquistocrona</text>
</g>

<g fill="none" stroke="#000000" stroke-opacity="1" stroke-width="1" stroke-linecap="square" stroke-linejoin="bevel" transform="matrix(1.00104,0,0,1.00104,1274.33,101.105)"
font-family="Cantarell" font-size="10" font-weight="400" font-style="normal" 
>
</g>

<g fill="none" stroke="#000000" stroke-opacity="1" stroke-width="1" stroke-linecap="square" stroke-linejoin="bevel" transform="matrix(1.00104,0,0,1.00104,0,0)"
font-family="Cantarell" font-size="10" font-weight="400" font-style="normal" 
>
</g>

<g fill="none" stroke="#e69f00" stroke-opacity="1" stroke-width="1" stroke-linecap="round" stroke-linejoin="round" transform="matrix(1.00104,0,0,1.00104,0,0)"
font-family="Cantarell" font-size="10" font-weight="400" font-style="normal" 
>
<path vector-effect="none" fill-rule="evenodd" d="M1371.5,96.5 L1404.5,96.5"/>
</g>

<g fill="none" stroke="#000000" stroke-opacity="1" stroke-width="1" stroke-linecap="square" stroke-linejoin="bevel" transform="matrix(1.00104,0,0,1.00104,0,0)"
font-family="Cantarell" font-size="10" font-weight="400" font-style="normal" 
>
</g>

<g fill="none" stroke="#000000" stroke-opacity="1" stroke-width="1" stroke-linecap="square" stroke-linejoin="bevel" transform="matrix(1.00104,0,0,1.00104,0,0)"
font-family="Cantarell" font-size="10" font-weight="400" font-style="normal" 
>
</g>

<g fill="none" stroke="#000000" stroke-opacity="1" stroke-width="1" stroke-linecap="square" stroke-linejoin="bevel" transform="matrix(1.00104,0,0,1.00104,0,0)"
font-family="Cantarell" font-size="10" font-weight="400" font-style="normal" 
>
</g>

<g fill="none" stroke="#000000" stroke-opacity="1" stroke-width="1" stroke-linecap="square" stroke-linejoin="bevel" transform="matrix(1.00104,0,0,1.00104,0,0)"
font-family="Cantarell" font-size="10" font-weight="400" font-style="normal" 
>
</g>

<g fill="none" stroke="#e69f00" stroke-opacity="1" stroke-width="1" stroke-linecap="round" stroke-linejoin="round" transform="matrix(1.00104,0,0,1.00104,0,0)"
font-family="Cantarell" font-size="10" font-weight="400" font-style="normal" 
>
<polyline fill="none" vector-effect="none" points="523.7,42.1 523.7,42.1 523.7,42.3 523.7,42.7 523.7,43.5 523.8,44.5 523.9,45.9 524,47.6 524.1,49.5 524.3,51.8 524.6,54.4 524.9,57.2 525.3,60.4 525.8,63.9 526.4,67.6 527.1,71.6 527.8,76 528.7,80.6 529.7,85.5 530.8,90.6 532.1,96.1 533.5,101.8 535,107.8 536.7,114 538.5,120.5 540.5,127.3 542.7,134.3 545,141.6 547.5,149.1 550.2,156.8 553.1,164.8 556.2,173.1 559.5,181.5 563,190.2 566.7,199.1 570.6,208.2 574.8,217.5 579.2,227 583.8,236.7 588.7,246.6 593.8,256.7 599.1,266.9 604.7,277.3 610.6,287.9 616.7,298.6 623.1,309.5 629.7,320.6 636.7,331.8 643.9,343.1 651.3,354.5 659.1,366.1 667.1,377.7 675.4,389.5 684.1,401.4 693,413.4 702.1,425.4 711.6,437.5 721.4,449.7 731.5,462 741.9,474.3 752.6,486.6 763.5,499 774.8,511.5 786.4,523.9 798.3,536.4 810.5,548.9 823,561.4 835.8,573.9 848.9,586.4 862.3,598.8 876.1,611.2 890.1,623.6 904.4,636 919,648.3 933.9,660.6 949.2,672.7 964.7,684.9 980.5,696.9 996.6,708.9 1013,720.7 1029.7,732.5 1046.6,744.2 1063.9,755.7 1081.4,767.2 1099.2,778.5 1117.3,789.6 1135.6,800.7 1154.2,811.5 1173.1,822.3 1192.3,832.9 1211.7,843.3 1231.3,853.5 1251.2,863.6 1271.3,873.5 1291.7,883.1 1312.3,892.6 1333.2,901.9 1354.2,911 1375.5,919.9 1397,928.6 1418.7,937 " />
</g>

<g fill="none" stroke="#000000" stroke-opacity="1" stroke-width="1" stroke-linecap="square" stroke-linejoin="bevel" transform="matrix(1.00104,0,0,1.00104,0,0)"
font-family="Cantarell" font-size="10" font-weight="400" font-style="normal" 
>
</g>

<g fill="none" stroke="#000000" stroke-opacity="1" stroke-width="1" stroke-linecap="square" stroke-linejoin="bevel" transform="matrix(1.00104,0,0,1.00104,0,0)"
font-family="Cantarell" font-size="10" font-weight="400" font-style="normal" 
>
</g>

<g fill="none" stroke="#000000" stroke-opacity="1" stroke-width="1" stroke-linecap="round" stroke-linejoin="round" transform="matrix(1.00104,0,0,1.00104,0,0)"
font-family="Cantarell" font-size="10" font-weight="400" font-style="normal" 
>
<polyline fill="none" vector-effect="none" points="523.5,42.5 523.5,937.5 1418.5,937.5 1418.5,42.5 523.5,42.5 " />
</g>

<g fill="none" stroke="#000000" stroke-opacity="1" stroke-width="1" stroke-linecap="square" stroke-linejoin="bevel" transform="matrix(1.00104,0,0,1.00104,0,0)"
font-family="Cantarell" font-size="10" font-weight="400" font-style="normal" 
>
</g>

<g fill="none" stroke="#000000" stroke-opacity="1" stroke-width="1" stroke-linecap="square" stroke-linejoin="bevel" transform="matrix(1,0,0,1,0,0)"
font-family="Cantarell" font-size="10" font-weight="400" font-style="normal" 
>
</g>
</g>
</svg>
