<?xml version="1.0" encoding="UTF-8" standalone="no"?>
<svg width="677.333mm" height="341.136mm"
 viewBox="0 0 1920 967"
 xmlns="http://www.w3.org/2000/svg" xmlns:xlink="http://www.w3.org/1999/xlink"  version="1.2" baseProfile="tiny">
<title>Qt SVG Document</title>
<desc>Generated with Qt</desc>
<defs>
</defs>
<g fill="none" stroke="black" stroke-width="1" fill-rule="evenodd" stroke-linecap="square" stroke-linejoin="bevel" >

<g fill="none" stroke="#000000" stroke-opacity="1" stroke-width="1" stroke-linecap="square" stroke-linejoin="bevel" transform="matrix(1,0,0,1,0,0)"
font-family="Cantarell" font-size="10" font-weight="400" font-style="normal" 
>
</g>

<g fill="none" stroke="#000000" stroke-opacity="1" stroke-width="1" stroke-linecap="square" stroke-linejoin="bevel" transform="matrix(1.00104,0,0,1.00104,0,0)"
font-family="Cantarell" font-size="10" font-weight="400" font-style="normal" 
>
</g>

<g fill="none" stroke="#a0a0a4" stroke-opacity="1" stroke-dasharray="0.5,1" stroke-dashoffset="0" stroke-width="0.5" stroke-linecap="round" stroke-linejoin="round" transform="matrix(1.00104,0,0,1.00104,0,0)"
font-family="Cantarell" font-size="10" font-weight="400" font-style="normal" 
>
<polyline fill="none" vector-effect="none" points="523.5,937.5 1418.5,937.5 " />
</g>

<g fill="none" stroke="#000000" stroke-opacity="1" stroke-width="1" stroke-linecap="round" stroke-linejoin="round" transform="matrix(1.00104,0,0,1.00104,0,0)"
font-family="Cantarell" font-size="10" font-weight="400" font-style="normal" 
>
<polyline fill="none" vector-effect="none" points="523.5,937.5 529.5,937.5 " />
<polyline fill="none" vector-effect="none" points="1418.5,937.5 1413.5,937.5 " />
</g>

<g fill="none" stroke="#000000" stroke-opacity="1" stroke-width="1" stroke-linecap="square" stroke-linejoin="bevel" transform="matrix(1.00104,0,0,1.00104,0,0)"
font-family="Cantarell" font-size="10" font-weight="400" font-style="normal" 
>
</g>

<g fill="none" stroke="#000000" stroke-opacity="1" stroke-width="1" stroke-linecap="square" stroke-linejoin="bevel" transform="matrix(1.00104,0,0,1.00104,506.528,941.981)"
font-family="Cantarell" font-size="10" font-weight="400" font-style="normal" 
>
</g>

<g fill="none" stroke="#000000" stroke-opacity="1" stroke-width="1" stroke-linecap="square" stroke-linejoin="bevel" transform="matrix(1.00104,0,0,1.00104,506.528,941.981)"
font-family="Cantarell" font-size="10" font-weight="400" font-style="normal" 
>
</g>

<g fill="none" stroke="#000000" stroke-opacity="1" stroke-width="1" stroke-linecap="square" stroke-linejoin="bevel" transform="matrix(1.00104,0,0,1.00104,506.528,941.981)"
font-family="Cantarell" font-size="10" font-weight="400" font-style="normal" 
>
</g>

<g fill="none" stroke="#000000" stroke-opacity="1" stroke-width="1" stroke-linecap="square" stroke-linejoin="bevel" transform="matrix(1.00104,0,0,1.00104,506.528,941.981)"
font-family="Cantarell" font-size="10" font-weight="400" font-style="normal" 
>
</g>

<g fill="none" stroke="#000000" stroke-opacity="1" stroke-width="1" stroke-linecap="square" stroke-linejoin="bevel" transform="matrix(1.00104,0,0,1.00104,506.528,941.981)"
font-family="Cantarell" font-size="10" font-weight="400" font-style="normal" 
>
</g>

<g fill="none" stroke="#000000" stroke-opacity="1" stroke-width="1" stroke-linecap="square" stroke-linejoin="bevel" transform="matrix(1.00104,0,0,1.00104,506.528,941.981)"
font-family="Sans" font-size="9" font-weight="400" font-style="normal" 
>
<text fill="#000000" fill-opacity="1" stroke="none" xml:space="preserve" x="0" y="0" font-family="Sans" font-size="9" font-weight="400" font-style="normal" 
 >-2</text>
</g>

<g fill="none" stroke="#000000" stroke-opacity="1" stroke-width="1" stroke-linecap="square" stroke-linejoin="bevel" transform="matrix(1.00104,0,0,1.00104,506.528,941.981)"
font-family="Cantarell" font-size="10" font-weight="400" font-style="normal" 
>
</g>

<g fill="none" stroke="#000000" stroke-opacity="1" stroke-width="1" stroke-linecap="square" stroke-linejoin="bevel" transform="matrix(1.00104,0,0,1.00104,0,0)"
font-family="Cantarell" font-size="10" font-weight="400" font-style="normal" 
>
</g>

<g fill="none" stroke="#a0a0a4" stroke-opacity="1" stroke-dasharray="0.5,1" stroke-dashoffset="0" stroke-width="0.5" stroke-linecap="round" stroke-linejoin="round" transform="matrix(1.00104,0,0,1.00104,0,0)"
font-family="Cantarell" font-size="10" font-weight="400" font-style="normal" 
>
<polyline fill="none" vector-effect="none" points="523.5,713.5 1418.5,713.5 " />
</g>

<g fill="none" stroke="#000000" stroke-opacity="1" stroke-width="1" stroke-linecap="round" stroke-linejoin="round" transform="matrix(1.00104,0,0,1.00104,0,0)"
font-family="Cantarell" font-size="10" font-weight="400" font-style="normal" 
>
<polyline fill="none" vector-effect="none" points="523.5,713.5 529.5,713.5 " />
<polyline fill="none" vector-effect="none" points="1418.5,713.5 1413.5,713.5 " />
</g>

<g fill="none" stroke="#000000" stroke-opacity="1" stroke-width="1" stroke-linecap="square" stroke-linejoin="bevel" transform="matrix(1.00104,0,0,1.00104,0,0)"
font-family="Cantarell" font-size="10" font-weight="400" font-style="normal" 
>
</g>

<g fill="none" stroke="#000000" stroke-opacity="1" stroke-width="1" stroke-linecap="square" stroke-linejoin="bevel" transform="matrix(1.00104,0,0,1.00104,494.515,717.748)"
font-family="Cantarell" font-size="10" font-weight="400" font-style="normal" 
>
</g>

<g fill="none" stroke="#000000" stroke-opacity="1" stroke-width="1" stroke-linecap="square" stroke-linejoin="bevel" transform="matrix(1.00104,0,0,1.00104,494.515,717.748)"
font-family="Cantarell" font-size="10" font-weight="400" font-style="normal" 
>
</g>

<g fill="none" stroke="#000000" stroke-opacity="1" stroke-width="1" stroke-linecap="square" stroke-linejoin="bevel" transform="matrix(1.00104,0,0,1.00104,494.515,717.748)"
font-family="Cantarell" font-size="10" font-weight="400" font-style="normal" 
>
</g>

<g fill="none" stroke="#000000" stroke-opacity="1" stroke-width="1" stroke-linecap="square" stroke-linejoin="bevel" transform="matrix(1.00104,0,0,1.00104,494.515,717.748)"
font-family="Cantarell" font-size="10" font-weight="400" font-style="normal" 
>
</g>

<g fill="none" stroke="#000000" stroke-opacity="1" stroke-width="1" stroke-linecap="square" stroke-linejoin="bevel" transform="matrix(1.00104,0,0,1.00104,494.515,717.748)"
font-family="Cantarell" font-size="10" font-weight="400" font-style="normal" 
>
</g>

<g fill="none" stroke="#000000" stroke-opacity="1" stroke-width="1" stroke-linecap="square" stroke-linejoin="bevel" transform="matrix(1.00104,0,0,1.00104,494.515,717.748)"
font-family="Sans" font-size="9" font-weight="400" font-style="normal" 
>
<text fill="#000000" fill-opacity="1" stroke="none" xml:space="preserve" x="0" y="0" font-family="Sans" font-size="9" font-weight="400" font-style="normal" 
 >-1.5</text>
</g>

<g fill="none" stroke="#000000" stroke-opacity="1" stroke-width="1" stroke-linecap="square" stroke-linejoin="bevel" transform="matrix(1.00104,0,0,1.00104,494.515,717.748)"
font-family="Cantarell" font-size="10" font-weight="400" font-style="normal" 
>
</g>

<g fill="none" stroke="#000000" stroke-opacity="1" stroke-width="1" stroke-linecap="square" stroke-linejoin="bevel" transform="matrix(1.00104,0,0,1.00104,0,0)"
font-family="Cantarell" font-size="10" font-weight="400" font-style="normal" 
>
</g>

<g fill="none" stroke="#a0a0a4" stroke-opacity="1" stroke-dasharray="0.5,1" stroke-dashoffset="0" stroke-width="0.5" stroke-linecap="round" stroke-linejoin="round" transform="matrix(1.00104,0,0,1.00104,0,0)"
font-family="Cantarell" font-size="10" font-weight="400" font-style="normal" 
>
<polyline fill="none" vector-effect="none" points="523.5,489.5 1418.5,489.5 " />
</g>

<g fill="none" stroke="#000000" stroke-opacity="1" stroke-width="1" stroke-linecap="round" stroke-linejoin="round" transform="matrix(1.00104,0,0,1.00104,0,0)"
font-family="Cantarell" font-size="10" font-weight="400" font-style="normal" 
>
<polyline fill="none" vector-effect="none" points="523.5,489.5 529.5,489.5 " />
<polyline fill="none" vector-effect="none" points="1418.5,489.5 1413.5,489.5 " />
</g>

<g fill="none" stroke="#000000" stroke-opacity="1" stroke-width="1" stroke-linecap="square" stroke-linejoin="bevel" transform="matrix(1.00104,0,0,1.00104,0,0)"
font-family="Cantarell" font-size="10" font-weight="400" font-style="normal" 
>
</g>

<g fill="none" stroke="#000000" stroke-opacity="1" stroke-width="1" stroke-linecap="square" stroke-linejoin="bevel" transform="matrix(1.00104,0,0,1.00104,506.528,494.515)"
font-family="Cantarell" font-size="10" font-weight="400" font-style="normal" 
>
</g>

<g fill="none" stroke="#000000" stroke-opacity="1" stroke-width="1" stroke-linecap="square" stroke-linejoin="bevel" transform="matrix(1.00104,0,0,1.00104,506.528,494.515)"
font-family="Cantarell" font-size="10" font-weight="400" font-style="normal" 
>
</g>

<g fill="none" stroke="#000000" stroke-opacity="1" stroke-width="1" stroke-linecap="square" stroke-linejoin="bevel" transform="matrix(1.00104,0,0,1.00104,506.528,494.515)"
font-family="Cantarell" font-size="10" font-weight="400" font-style="normal" 
>
</g>

<g fill="none" stroke="#000000" stroke-opacity="1" stroke-width="1" stroke-linecap="square" stroke-linejoin="bevel" transform="matrix(1.00104,0,0,1.00104,506.528,494.515)"
font-family="Cantarell" font-size="10" font-weight="400" font-style="normal" 
>
</g>

<g fill="none" stroke="#000000" stroke-opacity="1" stroke-width="1" stroke-linecap="square" stroke-linejoin="bevel" transform="matrix(1.00104,0,0,1.00104,506.528,494.515)"
font-family="Cantarell" font-size="10" font-weight="400" font-style="normal" 
>
</g>

<g fill="none" stroke="#000000" stroke-opacity="1" stroke-width="1" stroke-linecap="square" stroke-linejoin="bevel" transform="matrix(1.00104,0,0,1.00104,506.528,494.515)"
font-family="Sans" font-size="9" font-weight="400" font-style="normal" 
>
<text fill="#000000" fill-opacity="1" stroke="none" xml:space="preserve" x="0" y="0" font-family="Sans" font-size="9" font-weight="400" font-style="normal" 
 >-1</text>
</g>

<g fill="none" stroke="#000000" stroke-opacity="1" stroke-width="1" stroke-linecap="square" stroke-linejoin="bevel" transform="matrix(1.00104,0,0,1.00104,506.528,494.515)"
font-family="Cantarell" font-size="10" font-weight="400" font-style="normal" 
>
</g>

<g fill="none" stroke="#000000" stroke-opacity="1" stroke-width="1" stroke-linecap="square" stroke-linejoin="bevel" transform="matrix(1.00104,0,0,1.00104,0,0)"
font-family="Cantarell" font-size="10" font-weight="400" font-style="normal" 
>
</g>

<g fill="none" stroke="#a0a0a4" stroke-opacity="1" stroke-dasharray="0.5,1" stroke-dashoffset="0" stroke-width="0.5" stroke-linecap="round" stroke-linejoin="round" transform="matrix(1.00104,0,0,1.00104,0,0)"
font-family="Cantarell" font-size="10" font-weight="400" font-style="normal" 
>
<polyline fill="none" vector-effect="none" points="523.5,265.5 1418.5,265.5 " />
</g>

<g fill="none" stroke="#000000" stroke-opacity="1" stroke-width="1" stroke-linecap="round" stroke-linejoin="round" transform="matrix(1.00104,0,0,1.00104,0,0)"
font-family="Cantarell" font-size="10" font-weight="400" font-style="normal" 
>
<polyline fill="none" vector-effect="none" points="523.5,265.5 529.5,265.5 " />
<polyline fill="none" vector-effect="none" points="1418.5,265.5 1413.5,265.5 " />
</g>

<g fill="none" stroke="#000000" stroke-opacity="1" stroke-width="1" stroke-linecap="square" stroke-linejoin="bevel" transform="matrix(1.00104,0,0,1.00104,0,0)"
font-family="Cantarell" font-size="10" font-weight="400" font-style="normal" 
>
</g>

<g fill="none" stroke="#000000" stroke-opacity="1" stroke-width="1" stroke-linecap="square" stroke-linejoin="bevel" transform="matrix(1.00104,0,0,1.00104,494.515,270.282)"
font-family="Cantarell" font-size="10" font-weight="400" font-style="normal" 
>
</g>

<g fill="none" stroke="#000000" stroke-opacity="1" stroke-width="1" stroke-linecap="square" stroke-linejoin="bevel" transform="matrix(1.00104,0,0,1.00104,494.515,270.282)"
font-family="Cantarell" font-size="10" font-weight="400" font-style="normal" 
>
</g>

<g fill="none" stroke="#000000" stroke-opacity="1" stroke-width="1" stroke-linecap="square" stroke-linejoin="bevel" transform="matrix(1.00104,0,0,1.00104,494.515,270.282)"
font-family="Cantarell" font-size="10" font-weight="400" font-style="normal" 
>
</g>

<g fill="none" stroke="#000000" stroke-opacity="1" stroke-width="1" stroke-linecap="square" stroke-linejoin="bevel" transform="matrix(1.00104,0,0,1.00104,494.515,270.282)"
font-family="Cantarell" font-size="10" font-weight="400" font-style="normal" 
>
</g>

<g fill="none" stroke="#000000" stroke-opacity="1" stroke-width="1" stroke-linecap="square" stroke-linejoin="bevel" transform="matrix(1.00104,0,0,1.00104,494.515,270.282)"
font-family="Cantarell" font-size="10" font-weight="400" font-style="normal" 
>
</g>

<g fill="none" stroke="#000000" stroke-opacity="1" stroke-width="1" stroke-linecap="square" stroke-linejoin="bevel" transform="matrix(1.00104,0,0,1.00104,494.515,270.282)"
font-family="Sans" font-size="9" font-weight="400" font-style="normal" 
>
<text fill="#000000" fill-opacity="1" stroke="none" xml:space="preserve" x="0" y="0" font-family="Sans" font-size="9" font-weight="400" font-style="normal" 
 >-0.5</text>
</g>

<g fill="none" stroke="#000000" stroke-opacity="1" stroke-width="1" stroke-linecap="square" stroke-linejoin="bevel" transform="matrix(1.00104,0,0,1.00104,494.515,270.282)"
font-family="Cantarell" font-size="10" font-weight="400" font-style="normal" 
>
</g>

<g fill="none" stroke="#000000" stroke-opacity="1" stroke-width="1" stroke-linecap="square" stroke-linejoin="bevel" transform="matrix(1.00104,0,0,1.00104,0,0)"
font-family="Cantarell" font-size="10" font-weight="400" font-style="normal" 
>
</g>

<g fill="none" stroke="#a0a0a4" stroke-opacity="1" stroke-dasharray="0.5,1" stroke-dashoffset="0" stroke-width="0.5" stroke-linecap="round" stroke-linejoin="round" transform="matrix(1.00104,0,0,1.00104,0,0)"
font-family="Cantarell" font-size="10" font-weight="400" font-style="normal" 
>
<polyline fill="none" vector-effect="none" points="523.5,42.5 1418.5,42.5 " />
</g>

<g fill="none" stroke="#000000" stroke-opacity="1" stroke-width="1" stroke-linecap="round" stroke-linejoin="round" transform="matrix(1.00104,0,0,1.00104,0,0)"
font-family="Cantarell" font-size="10" font-weight="400" font-style="normal" 
>
<polyline fill="none" vector-effect="none" points="523.5,42.5 529.5,42.5 " />
<polyline fill="none" vector-effect="none" points="1418.5,42.5 1413.5,42.5 " />
</g>

<g fill="none" stroke="#000000" stroke-opacity="1" stroke-width="1" stroke-linecap="square" stroke-linejoin="bevel" transform="matrix(1.00104,0,0,1.00104,0,0)"
font-family="Cantarell" font-size="10" font-weight="400" font-style="normal" 
>
</g>

<g fill="none" stroke="#000000" stroke-opacity="1" stroke-width="1" stroke-linecap="square" stroke-linejoin="bevel" transform="matrix(1.00104,0,0,1.00104,506.528,46.048)"
font-family="Cantarell" font-size="10" font-weight="400" font-style="normal" 
>
</g>

<g fill="none" stroke="#000000" stroke-opacity="1" stroke-width="1" stroke-linecap="square" stroke-linejoin="bevel" transform="matrix(1.00104,0,0,1.00104,506.528,46.048)"
font-family="Cantarell" font-size="10" font-weight="400" font-style="normal" 
>
</g>

<g fill="none" stroke="#000000" stroke-opacity="1" stroke-width="1" stroke-linecap="square" stroke-linejoin="bevel" transform="matrix(1.00104,0,0,1.00104,506.528,46.048)"
font-family="Cantarell" font-size="10" font-weight="400" font-style="normal" 
>
</g>

<g fill="none" stroke="#000000" stroke-opacity="1" stroke-width="1" stroke-linecap="square" stroke-linejoin="bevel" transform="matrix(1.00104,0,0,1.00104,506.528,46.048)"
font-family="Cantarell" font-size="10" font-weight="400" font-style="normal" 
>
</g>

<g fill="none" stroke="#000000" stroke-opacity="1" stroke-width="1" stroke-linecap="square" stroke-linejoin="bevel" transform="matrix(1.00104,0,0,1.00104,506.528,46.048)"
font-family="Cantarell" font-size="10" font-weight="400" font-style="normal" 
>
</g>

<g fill="none" stroke="#000000" stroke-opacity="1" stroke-width="1" stroke-linecap="square" stroke-linejoin="bevel" transform="matrix(1.00104,0,0,1.00104,506.528,46.048)"
font-family="Sans" font-size="9" font-weight="400" font-style="normal" 
>
<text fill="#000000" fill-opacity="1" stroke="none" xml:space="preserve" x="0" y="0" font-family="Sans" font-size="9" font-weight="400" font-style="normal" 
 > 0</text>
</g>

<g fill="none" stroke="#000000" stroke-opacity="1" stroke-width="1" stroke-linecap="square" stroke-linejoin="bevel" transform="matrix(1.00104,0,0,1.00104,506.528,46.048)"
font-family="Cantarell" font-size="10" font-weight="400" font-style="normal" 
>
</g>

<g fill="none" stroke="#000000" stroke-opacity="1" stroke-width="1" stroke-linecap="square" stroke-linejoin="bevel" transform="matrix(1.00104,0,0,1.00104,0,0)"
font-family="Cantarell" font-size="10" font-weight="400" font-style="normal" 
>
</g>

<g fill="none" stroke="#a0a0a4" stroke-opacity="1" stroke-dasharray="0.5,1" stroke-dashoffset="0" stroke-width="0.5" stroke-linecap="round" stroke-linejoin="round" transform="matrix(1.00104,0,0,1.00104,0,0)"
font-family="Cantarell" font-size="10" font-weight="400" font-style="normal" 
>
<polyline fill="none" vector-effect="none" points="523.5,937.5 523.5,42.5 " />
</g>

<g fill="none" stroke="#000000" stroke-opacity="1" stroke-width="1" stroke-linecap="round" stroke-linejoin="round" transform="matrix(1.00104,0,0,1.00104,0,0)"
font-family="Cantarell" font-size="10" font-weight="400" font-style="normal" 
>
<polyline fill="none" vector-effect="none" points="523.5,937.5 523.5,931.5 " />
<polyline fill="none" vector-effect="none" points="523.5,42.5 523.5,47.5 " />
</g>

<g fill="none" stroke="#000000" stroke-opacity="1" stroke-width="1" stroke-linecap="square" stroke-linejoin="bevel" transform="matrix(1.00104,0,0,1.00104,0,0)"
font-family="Cantarell" font-size="10" font-weight="400" font-style="normal" 
>
</g>

<g fill="none" stroke="#000000" stroke-opacity="1" stroke-width="1" stroke-linecap="square" stroke-linejoin="bevel" transform="matrix(1.00104,0,0,1.00104,519.041,955.996)"
font-family="Cantarell" font-size="10" font-weight="400" font-style="normal" 
>
</g>

<g fill="none" stroke="#000000" stroke-opacity="1" stroke-width="1" stroke-linecap="square" stroke-linejoin="bevel" transform="matrix(1.00104,0,0,1.00104,519.041,955.996)"
font-family="Cantarell" font-size="10" font-weight="400" font-style="normal" 
>
</g>

<g fill="none" stroke="#000000" stroke-opacity="1" stroke-width="1" stroke-linecap="square" stroke-linejoin="bevel" transform="matrix(1.00104,0,0,1.00104,519.041,955.996)"
font-family="Cantarell" font-size="10" font-weight="400" font-style="normal" 
>
</g>

<g fill="none" stroke="#000000" stroke-opacity="1" stroke-width="1" stroke-linecap="square" stroke-linejoin="bevel" transform="matrix(1.00104,0,0,1.00104,519.041,955.996)"
font-family="Cantarell" font-size="10" font-weight="400" font-style="normal" 
>
</g>

<g fill="none" stroke="#000000" stroke-opacity="1" stroke-width="1" stroke-linecap="square" stroke-linejoin="bevel" transform="matrix(1.00104,0,0,1.00104,519.041,955.996)"
font-family="Cantarell" font-size="10" font-weight="400" font-style="normal" 
>
</g>

<g fill="none" stroke="#000000" stroke-opacity="1" stroke-width="1" stroke-linecap="square" stroke-linejoin="bevel" transform="matrix(1.00104,0,0,1.00104,519.041,955.996)"
font-family="Sans" font-size="9" font-weight="400" font-style="normal" 
>
<text fill="#000000" fill-opacity="1" stroke="none" xml:space="preserve" x="0" y="0" font-family="Sans" font-size="9" font-weight="400" font-style="normal" 
 > 0</text>
</g>

<g fill="none" stroke="#000000" stroke-opacity="1" stroke-width="1" stroke-linecap="square" stroke-linejoin="bevel" transform="matrix(1.00104,0,0,1.00104,519.041,955.996)"
font-family="Cantarell" font-size="10" font-weight="400" font-style="normal" 
>
</g>

<g fill="none" stroke="#000000" stroke-opacity="1" stroke-width="1" stroke-linecap="square" stroke-linejoin="bevel" transform="matrix(1.00104,0,0,1.00104,0,0)"
font-family="Cantarell" font-size="10" font-weight="400" font-style="normal" 
>
</g>

<g fill="none" stroke="#a0a0a4" stroke-opacity="1" stroke-dasharray="0.5,1" stroke-dashoffset="0" stroke-width="0.5" stroke-linecap="round" stroke-linejoin="round" transform="matrix(1.00104,0,0,1.00104,0,0)"
font-family="Cantarell" font-size="10" font-weight="400" font-style="normal" 
>
<polyline fill="none" vector-effect="none" points="747.5,937.5 747.5,42.5 " />
</g>

<g fill="none" stroke="#000000" stroke-opacity="1" stroke-width="1" stroke-linecap="round" stroke-linejoin="round" transform="matrix(1.00104,0,0,1.00104,0,0)"
font-family="Cantarell" font-size="10" font-weight="400" font-style="normal" 
>
<polyline fill="none" vector-effect="none" points="747.5,937.5 747.5,931.5 " />
<polyline fill="none" vector-effect="none" points="747.5,42.5 747.5,47.5 " />
</g>

<g fill="none" stroke="#000000" stroke-opacity="1" stroke-width="1" stroke-linecap="square" stroke-linejoin="bevel" transform="matrix(1.00104,0,0,1.00104,0,0)"
font-family="Cantarell" font-size="10" font-weight="400" font-style="normal" 
>
</g>

<g fill="none" stroke="#000000" stroke-opacity="1" stroke-width="1" stroke-linecap="square" stroke-linejoin="bevel" transform="matrix(1.00104,0,0,1.00104,737.268,955.996)"
font-family="Cantarell" font-size="10" font-weight="400" font-style="normal" 
>
</g>

<g fill="none" stroke="#000000" stroke-opacity="1" stroke-width="1" stroke-linecap="square" stroke-linejoin="bevel" transform="matrix(1.00104,0,0,1.00104,737.268,955.996)"
font-family="Cantarell" font-size="10" font-weight="400" font-style="normal" 
>
</g>

<g fill="none" stroke="#000000" stroke-opacity="1" stroke-width="1" stroke-linecap="square" stroke-linejoin="bevel" transform="matrix(1.00104,0,0,1.00104,737.268,955.996)"
font-family="Cantarell" font-size="10" font-weight="400" font-style="normal" 
>
</g>

<g fill="none" stroke="#000000" stroke-opacity="1" stroke-width="1" stroke-linecap="square" stroke-linejoin="bevel" transform="matrix(1.00104,0,0,1.00104,737.268,955.996)"
font-family="Cantarell" font-size="10" font-weight="400" font-style="normal" 
>
</g>

<g fill="none" stroke="#000000" stroke-opacity="1" stroke-width="1" stroke-linecap="square" stroke-linejoin="bevel" transform="matrix(1.00104,0,0,1.00104,737.268,955.996)"
font-family="Cantarell" font-size="10" font-weight="400" font-style="normal" 
>
</g>

<g fill="none" stroke="#000000" stroke-opacity="1" stroke-width="1" stroke-linecap="square" stroke-linejoin="bevel" transform="matrix(1.00104,0,0,1.00104,737.268,955.996)"
font-family="Sans" font-size="9" font-weight="400" font-style="normal" 
>
<text fill="#000000" fill-opacity="1" stroke="none" xml:space="preserve" x="0" y="0" font-family="Sans" font-size="9" font-weight="400" font-style="normal" 
 > 0.5</text>
</g>

<g fill="none" stroke="#000000" stroke-opacity="1" stroke-width="1" stroke-linecap="square" stroke-linejoin="bevel" transform="matrix(1.00104,0,0,1.00104,737.268,955.996)"
font-family="Cantarell" font-size="10" font-weight="400" font-style="normal" 
>
</g>

<g fill="none" stroke="#000000" stroke-opacity="1" stroke-width="1" stroke-linecap="square" stroke-linejoin="bevel" transform="matrix(1.00104,0,0,1.00104,0,0)"
font-family="Cantarell" font-size="10" font-weight="400" font-style="normal" 
>
</g>

<g fill="none" stroke="#a0a0a4" stroke-opacity="1" stroke-dasharray="0.5,1" stroke-dashoffset="0" stroke-width="0.5" stroke-linecap="round" stroke-linejoin="round" transform="matrix(1.00104,0,0,1.00104,0,0)"
font-family="Cantarell" font-size="10" font-weight="400" font-style="normal" 
>
<polyline fill="none" vector-effect="none" points="971.5,937.5 971.5,42.5 " />
</g>

<g fill="none" stroke="#000000" stroke-opacity="1" stroke-width="1" stroke-linecap="round" stroke-linejoin="round" transform="matrix(1.00104,0,0,1.00104,0,0)"
font-family="Cantarell" font-size="10" font-weight="400" font-style="normal" 
>
<polyline fill="none" vector-effect="none" points="971.5,937.5 971.5,931.5 " />
<polyline fill="none" vector-effect="none" points="971.5,42.5 971.5,47.5 " />
</g>

<g fill="none" stroke="#000000" stroke-opacity="1" stroke-width="1" stroke-linecap="square" stroke-linejoin="bevel" transform="matrix(1.00104,0,0,1.00104,0,0)"
font-family="Cantarell" font-size="10" font-weight="400" font-style="normal" 
>
</g>

<g fill="none" stroke="#000000" stroke-opacity="1" stroke-width="1" stroke-linecap="square" stroke-linejoin="bevel" transform="matrix(1.00104,0,0,1.00104,966.507,955.996)"
font-family="Cantarell" font-size="10" font-weight="400" font-style="normal" 
>
</g>

<g fill="none" stroke="#000000" stroke-opacity="1" stroke-width="1" stroke-linecap="square" stroke-linejoin="bevel" transform="matrix(1.00104,0,0,1.00104,966.507,955.996)"
font-family="Cantarell" font-size="10" font-weight="400" font-style="normal" 
>
</g>

<g fill="none" stroke="#000000" stroke-opacity="1" stroke-width="1" stroke-linecap="square" stroke-linejoin="bevel" transform="matrix(1.00104,0,0,1.00104,966.507,955.996)"
font-family="Cantarell" font-size="10" font-weight="400" font-style="normal" 
>
</g>

<g fill="none" stroke="#000000" stroke-opacity="1" stroke-width="1" stroke-linecap="square" stroke-linejoin="bevel" transform="matrix(1.00104,0,0,1.00104,966.507,955.996)"
font-family="Cantarell" font-size="10" font-weight="400" font-style="normal" 
>
</g>

<g fill="none" stroke="#000000" stroke-opacity="1" stroke-width="1" stroke-linecap="square" stroke-linejoin="bevel" transform="matrix(1.00104,0,0,1.00104,966.507,955.996)"
font-family="Cantarell" font-size="10" font-weight="400" font-style="normal" 
>
</g>

<g fill="none" stroke="#000000" stroke-opacity="1" stroke-width="1" stroke-linecap="square" stroke-linejoin="bevel" transform="matrix(1.00104,0,0,1.00104,966.507,955.996)"
font-family="Sans" font-size="9" font-weight="400" font-style="normal" 
>
<text fill="#000000" fill-opacity="1" stroke="none" xml:space="preserve" x="0" y="0" font-family="Sans" font-size="9" font-weight="400" font-style="normal" 
 > 1</text>
</g>

<g fill="none" stroke="#000000" stroke-opacity="1" stroke-width="1" stroke-linecap="square" stroke-linejoin="bevel" transform="matrix(1.00104,0,0,1.00104,966.507,955.996)"
font-family="Cantarell" font-size="10" font-weight="400" font-style="normal" 
>
</g>

<g fill="none" stroke="#000000" stroke-opacity="1" stroke-width="1" stroke-linecap="square" stroke-linejoin="bevel" transform="matrix(1.00104,0,0,1.00104,0,0)"
font-family="Cantarell" font-size="10" font-weight="400" font-style="normal" 
>
</g>

<g fill="none" stroke="#a0a0a4" stroke-opacity="1" stroke-dasharray="0.5,1" stroke-dashoffset="0" stroke-width="0.5" stroke-linecap="round" stroke-linejoin="round" transform="matrix(1.00104,0,0,1.00104,0,0)"
font-family="Cantarell" font-size="10" font-weight="400" font-style="normal" 
>
<polyline fill="none" vector-effect="none" points="1195.5,937.5 1195.5,42.5 " />
</g>

<g fill="none" stroke="#000000" stroke-opacity="1" stroke-width="1" stroke-linecap="round" stroke-linejoin="round" transform="matrix(1.00104,0,0,1.00104,0,0)"
font-family="Cantarell" font-size="10" font-weight="400" font-style="normal" 
>
<polyline fill="none" vector-effect="none" points="1195.5,937.5 1195.5,931.5 " />
<polyline fill="none" vector-effect="none" points="1195.5,42.5 1195.5,47.5 " />
</g>

<g fill="none" stroke="#000000" stroke-opacity="1" stroke-width="1" stroke-linecap="square" stroke-linejoin="bevel" transform="matrix(1.00104,0,0,1.00104,0,0)"
font-family="Cantarell" font-size="10" font-weight="400" font-style="normal" 
>
</g>

<g fill="none" stroke="#000000" stroke-opacity="1" stroke-width="1" stroke-linecap="square" stroke-linejoin="bevel" transform="matrix(1.00104,0,0,1.00104,1184.73,955.996)"
font-family="Cantarell" font-size="10" font-weight="400" font-style="normal" 
>
</g>

<g fill="none" stroke="#000000" stroke-opacity="1" stroke-width="1" stroke-linecap="square" stroke-linejoin="bevel" transform="matrix(1.00104,0,0,1.00104,1184.73,955.996)"
font-family="Cantarell" font-size="10" font-weight="400" font-style="normal" 
>
</g>

<g fill="none" stroke="#000000" stroke-opacity="1" stroke-width="1" stroke-linecap="square" stroke-linejoin="bevel" transform="matrix(1.00104,0,0,1.00104,1184.73,955.996)"
font-family="Cantarell" font-size="10" font-weight="400" font-style="normal" 
>
</g>

<g fill="none" stroke="#000000" stroke-opacity="1" stroke-width="1" stroke-linecap="square" stroke-linejoin="bevel" transform="matrix(1.00104,0,0,1.00104,1184.73,955.996)"
font-family="Cantarell" font-size="10" font-weight="400" font-style="normal" 
>
</g>

<g fill="none" stroke="#000000" stroke-opacity="1" stroke-width="1" stroke-linecap="square" stroke-linejoin="bevel" transform="matrix(1.00104,0,0,1.00104,1184.73,955.996)"
font-family="Cantarell" font-size="10" font-weight="400" font-style="normal" 
>
</g>

<g fill="none" stroke="#000000" stroke-opacity="1" stroke-width="1" stroke-linecap="square" stroke-linejoin="bevel" transform="matrix(1.00104,0,0,1.00104,1184.73,955.996)"
font-family="Sans" font-size="9" font-weight="400" font-style="normal" 
>
<text fill="#000000" fill-opacity="1" stroke="none" xml:space="preserve" x="0" y="0" font-family="Sans" font-size="9" font-weight="400" font-style="normal" 
 > 1.5</text>
</g>

<g fill="none" stroke="#000000" stroke-opacity="1" stroke-width="1" stroke-linecap="square" stroke-linejoin="bevel" transform="matrix(1.00104,0,0,1.00104,1184.73,955.996)"
font-family="Cantarell" font-size="10" font-weight="400" font-style="normal" 
>
</g>

<g fill="none" stroke="#000000" stroke-opacity="1" stroke-width="1" stroke-linecap="square" stroke-linejoin="bevel" transform="matrix(1.00104,0,0,1.00104,0,0)"
font-family="Cantarell" font-size="10" font-weight="400" font-style="normal" 
>
</g>

<g fill="none" stroke="#a0a0a4" stroke-opacity="1" stroke-dasharray="0.5,1" stroke-dashoffset="0" stroke-width="0.5" stroke-linecap="round" stroke-linejoin="round" transform="matrix(1.00104,0,0,1.00104,0,0)"
font-family="Cantarell" font-size="10" font-weight="400" font-style="normal" 
>
<polyline fill="none" vector-effect="none" points="1418.5,937.5 1418.5,42.5 " />
</g>

<g fill="none" stroke="#000000" stroke-opacity="1" stroke-width="1" stroke-linecap="round" stroke-linejoin="round" transform="matrix(1.00104,0,0,1.00104,0,0)"
font-family="Cantarell" font-size="10" font-weight="400" font-style="normal" 
>
<polyline fill="none" vector-effect="none" points="1418.5,937.5 1418.5,931.5 " />
<polyline fill="none" vector-effect="none" points="1418.5,42.5 1418.5,47.5 " />
</g>

<g fill="none" stroke="#000000" stroke-opacity="1" stroke-width="1" stroke-linecap="square" stroke-linejoin="bevel" transform="matrix(1.00104,0,0,1.00104,0,0)"
font-family="Cantarell" font-size="10" font-weight="400" font-style="normal" 
>
</g>

<g fill="none" stroke="#000000" stroke-opacity="1" stroke-width="1" stroke-linecap="square" stroke-linejoin="bevel" transform="matrix(1.00104,0,0,1.00104,1414.97,955.996)"
font-family="Cantarell" font-size="10" font-weight="400" font-style="normal" 
>
</g>

<g fill="none" stroke="#000000" stroke-opacity="1" stroke-width="1" stroke-linecap="square" stroke-linejoin="bevel" transform="matrix(1.00104,0,0,1.00104,1414.97,955.996)"
font-family="Cantarell" font-size="10" font-weight="400" font-style="normal" 
>
</g>

<g fill="none" stroke="#000000" stroke-opacity="1" stroke-width="1" stroke-linecap="square" stroke-linejoin="bevel" transform="matrix(1.00104,0,0,1.00104,1414.97,955.996)"
font-family="Cantarell" font-size="10" font-weight="400" font-style="normal" 
>
</g>

<g fill="none" stroke="#000000" stroke-opacity="1" stroke-width="1" stroke-linecap="square" stroke-linejoin="bevel" transform="matrix(1.00104,0,0,1.00104,1414.97,955.996)"
font-family="Cantarell" font-size="10" font-weight="400" font-style="normal" 
>
</g>

<g fill="none" stroke="#000000" stroke-opacity="1" stroke-width="1" stroke-linecap="square" stroke-linejoin="bevel" transform="matrix(1.00104,0,0,1.00104,1414.97,955.996)"
font-family="Cantarell" font-size="10" font-weight="400" font-style="normal" 
>
</g>

<g fill="none" stroke="#000000" stroke-opacity="1" stroke-width="1" stroke-linecap="square" stroke-linejoin="bevel" transform="matrix(1.00104,0,0,1.00104,1414.97,955.996)"
font-family="Sans" font-size="9" font-weight="400" font-style="normal" 
>
<text fill="#000000" fill-opacity="1" stroke="none" xml:space="preserve" x="0" y="0" font-family="Sans" font-size="9" font-weight="400" font-style="normal" 
 > 2</text>
</g>

<g fill="none" stroke="#000000" stroke-opacity="1" stroke-width="1" stroke-linecap="square" stroke-linejoin="bevel" transform="matrix(1.00104,0,0,1.00104,1414.97,955.996)"
font-family="Cantarell" font-size="10" font-weight="400" font-style="normal" 
>
</g>

<g fill="none" stroke="#000000" stroke-opacity="1" stroke-width="1" stroke-linecap="square" stroke-linejoin="bevel" transform="matrix(1.00104,0,0,1.00104,0,0)"
font-family="Cantarell" font-size="10" font-weight="400" font-style="normal" 
>
</g>

<g fill="none" stroke="#000000" stroke-opacity="1" stroke-width="1" stroke-linecap="round" stroke-linejoin="round" transform="matrix(1.00104,0,0,1.00104,0,0)"
font-family="Cantarell" font-size="10" font-weight="400" font-style="normal" 
>
<polyline fill="none" vector-effect="none" points="523.5,42.5 523.5,937.5 1418.5,937.5 1418.5,42.5 523.5,42.5 " />
</g>

<g fill="none" stroke="#000000" stroke-opacity="1" stroke-width="1" stroke-linecap="square" stroke-linejoin="bevel" transform="matrix(1.00104,0,0,1.00104,0,0)"
font-family="Cantarell" font-size="10" font-weight="400" font-style="normal" 
>
</g>

<g fill="none" stroke="#000000" stroke-opacity="1" stroke-width="1" stroke-linecap="square" stroke-linejoin="bevel" transform="matrix(1.00104,0,0,1.00104,944.984,25.0261)"
font-family="Cantarell" font-size="10" font-weight="400" font-style="normal" 
>
</g>

<g fill="none" stroke="#000000" stroke-opacity="1" stroke-width="1" stroke-linecap="square" stroke-linejoin="bevel" transform="matrix(1.00104,0,0,1.00104,944.984,25.0261)"
font-family="Cantarell" font-size="10" font-weight="400" font-style="normal" 
>
</g>

<g fill="none" stroke="#000000" stroke-opacity="1" stroke-width="1" stroke-linecap="square" stroke-linejoin="bevel" transform="matrix(1.00104,0,0,1.00104,944.984,25.0261)"
font-family="Cantarell" font-size="10" font-weight="400" font-style="normal" 
>
</g>

<g fill="none" stroke="#000000" stroke-opacity="1" stroke-width="1" stroke-linecap="square" stroke-linejoin="bevel" transform="matrix(1.00104,0,0,1.00104,944.984,25.0261)"
font-family="Cantarell" font-size="10" font-weight="400" font-style="normal" 
>
</g>

<g fill="none" stroke="#000000" stroke-opacity="1" stroke-width="1" stroke-linecap="square" stroke-linejoin="bevel" transform="matrix(1.00104,0,0,1.00104,944.984,25.0261)"
font-family="Cantarell" font-size="10" font-weight="400" font-style="normal" 
>
</g>

<g fill="none" stroke="#000000" stroke-opacity="1" stroke-width="1" stroke-linecap="square" stroke-linejoin="bevel" transform="matrix(1.00104,0,0,1.00104,944.984,25.0261)"
font-family="Sans" font-size="9" font-weight="400" font-style="normal" 
>
<text fill="#000000" fill-opacity="1" stroke="none" xml:space="preserve" x="0" y="0" font-family="Sans" font-size="9" font-weight="400" font-style="normal" 
 >Variant 2</text>
</g>

<g fill="none" stroke="#000000" stroke-opacity="1" stroke-width="1" stroke-linecap="square" stroke-linejoin="bevel" transform="matrix(1.00104,0,0,1.00104,944.984,25.0261)"
font-family="Cantarell" font-size="10" font-weight="400" font-style="normal" 
>
</g>

<g fill="none" stroke="#000000" stroke-opacity="1" stroke-width="1" stroke-linecap="square" stroke-linejoin="bevel" transform="matrix(1.00104,0,0,1.00104,1333.39,59.0615)"
font-family="Cantarell" font-size="10" font-weight="400" font-style="normal" 
>
</g>

<g fill="none" stroke="#000000" stroke-opacity="1" stroke-width="1" stroke-linecap="square" stroke-linejoin="bevel" transform="matrix(1.00104,0,0,1.00104,1333.39,59.0615)"
font-family="Cantarell" font-size="10" font-weight="400" font-style="normal" 
>
</g>

<g fill="none" stroke="#000000" stroke-opacity="1" stroke-width="1" stroke-linecap="square" stroke-linejoin="bevel" transform="matrix(1.00104,0,0,1.00104,1333.39,59.0615)"
font-family="Cantarell" font-size="10" font-weight="400" font-style="normal" 
>
</g>

<g fill="none" stroke="#000000" stroke-opacity="1" stroke-width="1" stroke-linecap="square" stroke-linejoin="bevel" transform="matrix(1.00104,0,0,1.00104,1333.39,59.0615)"
font-family="Cantarell" font-size="10" font-weight="400" font-style="normal" 
>
</g>

<g fill="none" stroke="#000000" stroke-opacity="1" stroke-width="1" stroke-linecap="square" stroke-linejoin="bevel" transform="matrix(1.00104,0,0,1.00104,1333.39,59.0615)"
font-family="Cantarell" font-size="10" font-weight="400" font-style="normal" 
>
</g>

<g fill="none" stroke="#000000" stroke-opacity="1" stroke-width="1" stroke-linecap="square" stroke-linejoin="bevel" transform="matrix(1.00104,0,0,1.00104,1333.39,59.0615)"
font-family="Sans" font-size="9" font-weight="400" font-style="normal" 
>
<text fill="#000000" fill-opacity="1" stroke="none" xml:space="preserve" x="0" y="0" font-family="Sans" font-size="9" font-weight="400" font-style="normal" 
 >P = 2</text>
</g>

<g fill="none" stroke="#000000" stroke-opacity="1" stroke-width="1" stroke-linecap="square" stroke-linejoin="bevel" transform="matrix(1.00104,0,0,1.00104,1333.39,59.0615)"
font-family="Cantarell" font-size="10" font-weight="400" font-style="normal" 
>
</g>

<g fill="none" stroke="#000000" stroke-opacity="1" stroke-width="1" stroke-linecap="square" stroke-linejoin="bevel" transform="matrix(1.00104,0,0,1.00104,0,0)"
font-family="Cantarell" font-size="10" font-weight="400" font-style="normal" 
>
</g>

<g fill="none" stroke="#9400d3" stroke-opacity="1" stroke-width="1" stroke-linecap="round" stroke-linejoin="round" transform="matrix(1.00104,0,0,1.00104,0,0)"
font-family="Cantarell" font-size="10" font-weight="400" font-style="normal" 
>
<path vector-effect="none" fill-rule="evenodd" d="M1371.5,54.5 L1404.5,54.5"/>
</g>

<g fill="none" stroke="#000000" stroke-opacity="1" stroke-width="1" stroke-linecap="square" stroke-linejoin="bevel" transform="matrix(1.00104,0,0,1.00104,0,0)"
font-family="Cantarell" font-size="10" font-weight="400" font-style="normal" 
>
</g>

<g fill="none" stroke="#000000" stroke-opacity="1" stroke-width="1" stroke-linecap="square" stroke-linejoin="bevel" transform="matrix(1.00104,0,0,1.00104,0,0)"
font-family="Cantarell" font-size="10" font-weight="400" font-style="normal" 
>
</g>

<g fill="none" stroke="#000000" stroke-opacity="1" stroke-width="1" stroke-linecap="square" stroke-linejoin="bevel" transform="matrix(1.00104,0,0,1.00104,0,0)"
font-family="Cantarell" font-size="10" font-weight="400" font-style="normal" 
>
</g>

<g fill="none" stroke="#000000" stroke-opacity="1" stroke-width="1" stroke-linecap="square" stroke-linejoin="bevel" transform="matrix(1.00104,0,0,1.00104,0,0)"
font-family="Cantarell" font-size="10" font-weight="400" font-style="normal" 
>
</g>

<g fill="none" stroke="#9400d3" stroke-opacity="1" stroke-width="1" stroke-linecap="round" stroke-linejoin="round" transform="matrix(1.00104,0,0,1.00104,0,0)"
font-family="Cantarell" font-size="10" font-weight="400" font-style="normal" 
>
<polyline fill="none" vector-effect="none" points="523.7,42.1 523.7,42.1 523.7,42.1 523.7,42.1 523.7,42.1 523.7,42.1 523.7,42.1 523.7,42.2 523.7,42.2 523.7,42.2 523.7,42.2 523.7,42.2 523.7,42.3 523.7,42.3 523.7,42.3 523.7,42.4 523.7,42.4 523.7,42.5 523.7,42.5 523.7,42.6 523.7,42.6 523.7,42.7 523.7,42.7 523.7,42.8 523.7,42.8 523.7,42.9 523.7,43 523.7,43 523.7,43.1 523.7,43.2 523.7,43.3 523.7,43.4 523.7,43.4 523.7,43.5 523.7,43.6 523.7,43.7 523.7,43.8 523.7,43.9 523.8,44 523.8,44.1 523.8,44.2 523.8,44.3 523.8,44.5 523.8,44.6 523.8,44.7 523.8,44.8 523.8,44.9 523.8,45.1 523.8,45.2 523.8,45.3 523.8,45.5 523.8,45.6 523.8,45.7 523.9,45.9 523.9,46 523.9,46.2 523.9,46.3 523.9,46.5 523.9,46.6 523.9,46.8 523.9,47 523.9,47.1 523.9,47.3 524,47.5 524,47.6 524,47.8 524,48 524,48.2 524,48.4 524,48.6 524.1,48.8 524.1,49 524.1,49.1 524.1,49.3 524.1,49.6 524.1,49.8 524.2,50 524.2,50.2 524.2,50.4 524.2,50.6 524.2,50.8 524.3,51 524.3,51.3 524.3,51.5 524.3,51.7 524.3,52 524.4,52.2 524.4,52.4 524.4,52.7 524.4,52.9 524.5,53.2 524.5,53.4 524.5,53.7 524.5,53.9 524.6,54.2 524.6,54.5 524.6,54.7 524.7,55 524.7,55.3 524.7,55.5 524.8,55.8 524.8,56.1 524.8,56.4 524.9,56.6 524.9,56.9 524.9,57.2 525,57.5 525,57.8 525,58.1 525.1,58.4 525.1,58.7 525.1,59 525.2,59.3 525.2,59.6 525.3,60 525.3,60.3 525.4,60.6 525.4,60.9 525.4,61.2 525.5,61.6 525.5,61.9 525.6,62.2 525.6,62.6 525.7,62.9 525.7,63.3 525.8,63.6 525.8,63.9 525.9,64.3 525.9,64.7 526,65 526,65.4 526.1,65.7 526.2,66.1 526.2,66.5 526.3,66.8 526.3,67.2 526.4,67.6 526.4,68 526.5,68.3 526.6,68.7 526.6,69.1 526.7,69.5 526.8,69.9 526.8,70.3 526.9,70.7 527,71.1 527,71.5 527.1,71.9 527.2,72.3 527.2,72.7 527.3,73.1 527.4,73.6 527.5,74 527.5,74.4 527.6,74.8 527.7,75.3 527.8,75.7 527.9,76.1 527.9,76.6 528,77 528.1,77.4 528.2,77.9 528.3,78.3 528.4,78.8 528.4,79.3 528.5,79.7 528.6,80.2 528.7,80.6 528.8,81.1 528.9,81.6 529,82 529.1,82.5 529.2,83 529.3,83.5 529.4,83.9 529.5,84.4 529.6,84.9 529.7,85.4 529.8,85.9 529.9,86.4 530,86.9 530.1,87.4 530.2,87.9 530.3,88.4 530.4,88.9 530.6,89.4 530.7,90 530.8,90.5 530.9,91 531,91.5 531.1,92 531.3,92.6 531.4,93.1 531.5,93.6 531.6,94.2 531.7,94.7 531.9,95.3 532,95.8 532.1,96.4 532.3,96.9 532.4,97.5 532.5,98 532.7,98.6 532.8,99.2 532.9,99.7 533.1,100.3 533.2,100.9 533.4,101.4 533.5,102 533.6,102.6 533.8,103.2 533.9,103.8 534.1,104.4 534.2,104.9 534.4,105.5 534.5,106.1 534.7,106.7 534.9,107.3 535,107.9 535.2,108.6 535.3,109.2 535.5,109.8 535.7,110.4 535.8,111 536,111.6 536.2,112.3 536.3,112.9 536.5,113.5 536.7,114.2 536.9,114.8 537,115.4 537.2,116.1 537.4,116.7 537.6,117.4 537.8,118 537.9,118.7 538.1,119.3 538.3,120 538.5,120.6 538.7,121.3 538.9,122 539.1,122.6 539.3,123.3 539.5,124 539.7,124.7 539.9,125.3 540.1,126 540.3,126.7 540.5,127.4 540.7,128.1 540.9,128.8 541.1,129.5 541.3,130.2 541.6,130.9 541.8,131.6 542,132.3 542.2,133 542.4,133.7 542.7,134.5 542.9,135.2 543.1,135.9 543.3,136.6 543.6,137.4 543.8,138.1 544.1,138.8 544.3,139.6 544.5,140.3 544.8,141 545,141.8 545.3,142.5 545.5,143.3 545.8,144 546,144.8 546.3,145.6 546.5,146.3 546.8,147.1 547,147.8 547.3,148.6 547.6,149.4 547.8,150.2 548.1,150.9 548.4,151.7 548.6,152.5 548.9,153.3 549.2,154.1 549.5,154.9 549.7,155.7 550,156.5 550.3,157.3 550.6,158.1 550.9,158.9 551.2,159.7 551.5,160.5 551.8,161.3 552.1,162.1 552.4,163 552.7,163.8 553,164.6 553.3,165.4 553.6,166.3 553.9,167.1 554.2,167.9 554.5,168.8 554.8,169.6 555.1,170.5 555.5,171.3 555.8,172.2 556.1,173 556.4,173.9 556.8,174.7 557.1,175.6 557.4,176.5 557.8,177.3 558.1,178.2 558.5,179.1 558.8,180 559.2,180.8 559.5,181.7 559.9,182.6 560.2,183.5 560.6,184.4 560.9,185.3 561.3,186.2 561.7,187.1 562,188 562.4,188.9 562.8,189.8 563.1,190.7 563.5,191.6 563.9,192.5 564.3,193.5 564.7,194.4 565,195.3 565.4,196.2 565.8,197.2 566.2,198.1 566.6,199 567,200 567.4,200.9 567.8,201.8 568.2,202.8 568.6,203.7 569,204.7 569.5,205.6 569.9,206.6 570.3,207.6 570.7,208.5 571.1,209.5 571.6,210.5 572,211.4 572.4,212.4 572.9,213.4 573.3,214.4 573.8,215.4 574.2,216.3 574.7,217.3 575.1,218.3 575.6,219.3 576,220.3 576.5,221.3 576.9,222.3 577.4,223.3 577.9,224.3 578.3,225.3 578.8,226.4 579.3,227.4 579.8,228.4 580.2,229.4 580.7,230.4 581.2,231.5 581.7,232.5 582.2,233.5 582.7,234.6 583.2,235.6 583.7,236.6 584.2,237.7 584.7,238.7 585.2,239.8 585.7,240.8 586.3,241.9 586.8,243 587.3,244 587.8,245.1 588.4,246.1 588.9,247.2 589.4,248.3 590,249.4 590.5,250.4 591.1,251.5 591.6,252.6 592.2,253.7 592.7,254.8 593.3,255.9 593.8,257 594.4,258.1 595,259.2 595.6,260.3 596.1,261.4 596.7,262.5 597.3,263.6 597.9,264.7 598.5,265.8 599.1,266.9 599.7,268.1 600.3,269.2 600.9,270.3 601.5,271.5 602.1,272.6 602.7,273.7 603.3,274.9 603.9,276 604.5,277.2 605.2,278.3 605.8,279.4 606.4,280.6 607.1,281.8 607.7,282.9 608.4,284.1 609,285.2 609.7,286.4 610.3,287.6 611,288.8 611.6,289.9 612.3,291.1 613,292.3 613.6,293.5 614.3,294.7 615,295.9 615.7,297 616.4,298.2 617.1,299.4 617.8,300.6 618.5,301.8 619.2,303.1 619.9,304.3 620.6,305.5 621.3,306.7 622,307.9 622.7,309.1 623.5,310.4 624.2,311.6 624.9,312.8 625.7,314 626.4,315.3 627.2,316.5 627.9,317.8 628.7,319 629.4,320.2 630.2,321.5 631,322.7 631.7,324 632.5,325.3 633.3,326.5 634.1,327.8 634.9,329 635.6,330.3 636.4,331.6 637.2,332.9 638,334.1 638.8,335.4 639.7,336.7 640.5,338 641.3,339.3 642.1,340.6 643,341.8 643.8,343.1 644.6,344.4 645.5,345.7 646.3,347 647.2,348.4 648,349.7 648.9,351 649.8,352.3 650.6,353.6 651.5,354.9 652.4,356.3 653.3,357.6 654.1,358.9 655,360.2 655.9,361.6 656.8,362.9 657.7,364.3 658.6,365.6 659.6,367 660.5,368.3 661.4,369.7 662.3,371 663.3,372.4 664.2,373.7 665.2,375.1 666.1,376.5 667.1,377.8 668,379.2 669,380.6 669.9,382 670.9,383.3 671.9,384.7 672.9,386.1 673.9,387.5 674.9,388.9 675.9,390.3 676.9,391.7 677.9,393.1 678.9,394.5 679.9,395.9 680.9,397.3 682,398.7 683,400.1 684,401.5 685.1,402.9 686.1,404.4 687.2,405.8 688.2,407.2 689.3,408.7 690.4,410.1 691.4,411.5 692.5,413 693.6,414.4 694.7,415.8 695.8,417.3 696.9,418.7 698,420.2 699.1,421.7 700.2,423.1 701.4,424.6 702.5,426 703.6,427.5 704.8,429 705.9,430.4 707.1,431.9 708.2,433.4 709.4,434.9 710.6,436.4 711.7,437.8 712.9,439.3 714.1,440.8 715.3,442.3 716.5,443.8 717.7,445.3 718.9,446.8 720.1,448.3 721.4,449.8 722.6,451.4 723.8,452.9 725.1,454.4 726.3,455.9 727.6,457.4 728.8,458.9 730.1,460.5 731.4,462 732.7,463.5 733.9,465.1 735.2,466.6 736.5,468.2 737.8,469.7 739.2,471.3 740.5,472.8 741.8,474.4 743.1,475.9 744.5,477.5 745.8,479 747.2,480.6 748.5,482.2 749.9,483.7 751.2,485.3 752.6,486.9 754,488.5 755.4,490 756.8,491.6 758.2,493.2 759.6,494.8 761,496.4 762.5,498 763.9,499.6 765.3,501.2 766.8,502.8 768.2,504.4 769.7,506 771.2,507.6 772.6,509.2 774.1,510.9 775.6,512.5 777.1,514.1 778.6,515.7 780.1,517.4 781.6,519 783.2,520.6 784.7,522.3 786.2,523.9 787.8,525.5 789.3,527.2 790.9,528.8 792.5,530.5 794.1,532.1 795.6,533.8 797.2,535.5 798.8,537.1 800.5,538.8 802.1,540.5 803.7,542.1 805.3,543.8 807,545.5 808.6,547.2 810.3,548.8 812,550.5 813.6,552.2 815.3,553.9 817,555.6 818.7,557.3 820.4,559 822.1,560.7 823.9,562.4 825.6,564.1 827.3,565.8 829.1,567.5 830.9,569.2 832.6,571 834.4,572.7 836.2,574.4 838,576.1 839.8,577.9 841.6,579.6 843.4,581.3 845.3,583.1 847.1,584.8 849,586.6 850.8,588.3 852.7,590.1 854.6,591.8 856.5,593.6 858.4,595.3 860.3,597.1 862.2,598.8 864.1,600.6 866.1,602.4 868,604.1 870,605.9 871.9,607.7 873.9,609.5 875.9,611.3 877.9,613 879.9,614.8 881.9,616.6 884,618.4 886,620.2 888,622 890.1,623.8 892.2,625.6 894.3,627.4 896.4,629.2 898.5,631.1 900.6,632.9 902.7,634.7 904.8,636.5 907,638.3 909.1,640.2 911.3,642 913.5,643.8 915.7,645.7 917.9,647.5 920.1,649.3 922.3,651.2 924.6,653 926.8,654.9 929.1,656.7 931.3,658.6 933.6,660.5 935.9,662.3 938.2,664.2 940.6,666 942.9,667.9 945.2,669.8 947.6,671.7 950,673.5 952.4,675.4 954.8,677.3 957.2,679.2 959.6,681.1 962,683 964.5,684.9 967,686.8 969.4,688.7 971.9,690.6 974.4,692.5 977,694.4 979.5,696.3 982,698.2 984.6,700.1 987.2,702 989.8,704 992.4,705.9 995,707.8 997.6,709.8 1000.3,711.7 1002.9,713.6 1005.6,715.6 1008.3,717.5 1011,719.4 1013.7,721.4 1016.5,723.3 1019.2,725.3 1022,727.3 1024.8,729.2 1027.6,731.2 1030.4,733.1 1033.2,735.1 1036.1,737.1 1039,739.1 1041.8,741 1044.7,743 1047.7,745 1050.6,747 1053.5,749 1056.5,751 1059.5,752.9 1062.5,754.9 1065.5,756.9 1068.6,758.9 1071.6,760.9 1074.7,762.9 1077.8,765 1080.9,767 1084.1,769 1087.2,771 1090.4,773 1093.6,775 1096.8,777.1 1100.1,779.1 1103.3,781.1 1106.6,783.2 1109.9,785.2 1113.2,787.2 1116.6,789.3 1119.9,791.3 1123.3,793.4 1126.7,795.4 1130.1,797.5 1133.6,799.5 1137.1,801.6 1140.6,803.7 1144.1,805.7 1147.6,807.8 1151.2,809.9 1154.8,811.9 1158.4,814 1162,816.1 1165.7,818.2 1169.4,820.3 1173.1,822.4 1176.8,824.4 1180.6,826.5 1184.4,828.6 1188.2,830.7 1192.1,832.8 1196,834.9 1199.9,837 1203.8,839.2 1207.7,841.3 1211.7,843.4 1215.8,845.5 1219.8,847.6 1223.9,849.7 1228,851.9 1232.1,854 1236.3,856.1 1240.5,858.3 1244.8,860.4 1249,862.6 1253.3,864.7 1257.7,866.8 1262,869 1266.5,871.1 1270.9,873.3 1275.4,875.5 1279.9,877.6 1284.5,879.8 1289.1,881.9 1293.7,884.1 1298.4,886.3 1303.1,888.5 1307.8,890.6 1312.6,892.8 1317.5,895 1322.3,897.2 1327.3,899.4 1332.2,901.6 1337.3,903.8 1342.3,906 1347.4,908.2 1352.6,910.4 1357.8,912.6 1363.1,914.8 1368.4,917 1373.7,919.2 1379.2,921.4 1384.6,923.6 1390.2,925.8 1395.7,928.1 1401.4,930.3 1407.1,932.5 1412.9,934.8 1418.7,937 " />
</g>

<g fill="none" stroke="#000000" stroke-opacity="1" stroke-width="1" stroke-linecap="square" stroke-linejoin="bevel" transform="matrix(1.00104,0,0,1.00104,0,0)"
font-family="Cantarell" font-size="10" font-weight="400" font-style="normal" 
>
</g>

<g fill="none" stroke="#000000" stroke-opacity="1" stroke-width="1" stroke-linecap="square" stroke-linejoin="bevel" transform="matrix(1.00104,0,0,1.00104,1333.39,73.0761)"
font-family="Cantarell" font-size="10" font-weight="400" font-style="normal" 
>
</g>

<g fill="none" stroke="#000000" stroke-opacity="1" stroke-width="1" stroke-linecap="square" stroke-linejoin="bevel" transform="matrix(1.00104,0,0,1.00104,1333.39,73.0761)"
font-family="Cantarell" font-size="10" font-weight="400" font-style="normal" 
>
</g>

<g fill="none" stroke="#000000" stroke-opacity="1" stroke-width="1" stroke-linecap="square" stroke-linejoin="bevel" transform="matrix(1.00104,0,0,1.00104,1333.39,73.0761)"
font-family="Cantarell" font-size="10" font-weight="400" font-style="normal" 
>
</g>

<g fill="none" stroke="#000000" stroke-opacity="1" stroke-width="1" stroke-linecap="square" stroke-linejoin="bevel" transform="matrix(1.00104,0,0,1.00104,1333.39,73.0761)"
font-family="Cantarell" font-size="10" font-weight="400" font-style="normal" 
>
</g>

<g fill="none" stroke="#000000" stroke-opacity="1" stroke-width="1" stroke-linecap="square" stroke-linejoin="bevel" transform="matrix(1.00104,0,0,1.00104,1333.39,73.0761)"
font-family="Cantarell" font-size="10" font-weight="400" font-style="normal" 
>
</g>

<g fill="none" stroke="#000000" stroke-opacity="1" stroke-width="1" stroke-linecap="square" stroke-linejoin="bevel" transform="matrix(1.00104,0,0,1.00104,1333.39,73.0761)"
font-family="Sans" font-size="9" font-weight="400" font-style="normal" 
>
<text fill="#000000" fill-opacity="1" stroke="none" xml:space="preserve" x="0" y="0" font-family="Sans" font-size="9" font-weight="400" font-style="normal" 
 >P = 1</text>
</g>

<g fill="none" stroke="#000000" stroke-opacity="1" stroke-width="1" stroke-linecap="square" stroke-linejoin="bevel" transform="matrix(1.00104,0,0,1.00104,1333.39,73.0761)"
font-family="Cantarell" font-size="10" font-weight="400" font-style="normal" 
>
</g>

<g fill="none" stroke="#000000" stroke-opacity="1" stroke-width="1" stroke-linecap="square" stroke-linejoin="bevel" transform="matrix(1.00104,0,0,1.00104,0,0)"
font-family="Cantarell" font-size="10" font-weight="400" font-style="normal" 
>
</g>

<g fill="none" stroke="#009e73" stroke-opacity="1" stroke-width="1" stroke-linecap="round" stroke-linejoin="round" transform="matrix(1.00104,0,0,1.00104,0,0)"
font-family="Cantarell" font-size="10" font-weight="400" font-style="normal" 
>
<path vector-effect="none" fill-rule="evenodd" d="M1371.5,68.5 L1404.5,68.5"/>
</g>

<g fill="none" stroke="#000000" stroke-opacity="1" stroke-width="1" stroke-linecap="square" stroke-linejoin="bevel" transform="matrix(1.00104,0,0,1.00104,0,0)"
font-family="Cantarell" font-size="10" font-weight="400" font-style="normal" 
>
</g>

<g fill="none" stroke="#000000" stroke-opacity="1" stroke-width="1" stroke-linecap="square" stroke-linejoin="bevel" transform="matrix(1.00104,0,0,1.00104,0,0)"
font-family="Cantarell" font-size="10" font-weight="400" font-style="normal" 
>
</g>

<g fill="none" stroke="#000000" stroke-opacity="1" stroke-width="1" stroke-linecap="square" stroke-linejoin="bevel" transform="matrix(1.00104,0,0,1.00104,0,0)"
font-family="Cantarell" font-size="10" font-weight="400" font-style="normal" 
>
</g>

<g fill="none" stroke="#000000" stroke-opacity="1" stroke-width="1" stroke-linecap="square" stroke-linejoin="bevel" transform="matrix(1.00104,0,0,1.00104,0,0)"
font-family="Cantarell" font-size="10" font-weight="400" font-style="normal" 
>
</g>

<g fill="none" stroke="#009e73" stroke-opacity="1" stroke-width="1" stroke-linecap="round" stroke-linejoin="round" transform="matrix(1.00104,0,0,1.00104,0,0)"
font-family="Cantarell" font-size="10" font-weight="400" font-style="normal" 
>
<polyline fill="none" vector-effect="none" points="523.7,42.1 523.7,42.1 523.7,43.2 523.7,44.3 523.8,45.5 523.9,46.6 523.9,47.7 524,48.8 524.1,49.9 524.2,51 524.3,52.2 524.4,53.3 524.5,54.4 524.7,55.5 524.8,56.6 524.9,57.8 525.1,58.9 525.2,60 525.4,61.1 525.5,62.2 525.7,63.4 525.8,64.5 526,65.6 526.2,66.7 526.3,67.8 526.5,68.9 526.7,70.1 526.9,71.2 527.1,72.3 527.3,73.4 527.5,74.5 527.7,75.7 527.9,76.8 528.1,77.9 528.3,79 528.5,80.1 528.7,81.3 529,82.4 529.2,83.5 529.4,84.6 529.7,85.7 529.9,86.8 530.1,88 530.4,89.1 530.6,90.2 530.9,91.3 531.1,92.4 531.4,93.6 531.6,94.7 531.9,95.8 532.2,96.9 532.4,98 532.7,99.1 533,100.3 533.2,101.4 533.5,102.5 533.8,103.6 534.1,104.7 534.4,105.9 534.6,107 534.9,108.1 535.2,109.2 535.5,110.3 535.8,111.5 536.1,112.6 536.4,113.7 536.7,114.8 537,115.9 537.4,117 537.7,118.2 538,119.3 538.3,120.4 538.6,121.5 539,122.6 539.3,123.8 539.6,124.9 539.9,126 540.3,127.1 540.6,128.2 541,129.4 541.3,130.5 541.6,131.6 542,132.7 542.3,133.8 542.7,134.9 543,136.1 543.4,137.2 543.8,138.3 544.1,139.4 544.5,140.5 544.8,141.7 545.2,142.8 545.6,143.9 545.9,145 546.3,146.1 546.7,147.3 547.1,148.4 547.5,149.5 547.8,150.6 548.2,151.7 548.6,152.8 549,154 549.4,155.1 549.8,156.2 550.2,157.3 550.6,158.4 551,159.6 551.4,160.7 551.8,161.8 552.2,162.9 552.6,164 553,165.1 553.4,166.3 553.8,167.4 554.3,168.5 554.7,169.6 555.1,170.7 555.5,171.9 556,173 556.4,174.1 556.8,175.2 557.2,176.3 557.7,177.5 558.1,178.6 558.6,179.7 559,180.8 559.4,181.9 559.9,183 560.3,184.2 560.8,185.3 561.2,186.4 561.7,187.5 562.1,188.6 562.6,189.8 563.1,190.9 563.5,192 564,193.1 564.4,194.2 564.9,195.4 565.4,196.5 565.9,197.6 566.3,198.7 566.8,199.8 567.3,200.9 567.8,202.1 568.2,203.2 568.7,204.3 569.2,205.4 569.7,206.5 570.2,207.7 570.7,208.8 571.2,209.9 571.7,211 572.2,212.1 572.7,213.2 573.2,214.4 573.7,215.5 574.2,216.6 574.7,217.7 575.2,218.8 575.7,220 576.2,221.1 576.7,222.2 577.2,223.3 577.8,224.4 578.3,225.6 578.8,226.7 579.3,227.8 579.9,228.9 580.4,230 580.9,231.1 581.4,232.3 582,233.4 582.5,234.5 583.1,235.6 583.6,236.7 584.1,237.9 584.7,239 585.2,240.1 585.8,241.2 586.3,242.3 586.9,243.5 587.4,244.6 588,245.7 588.5,246.8 589.1,247.9 589.7,249 590.2,250.2 590.8,251.3 591.4,252.4 591.9,253.5 592.5,254.6 593.1,255.8 593.6,256.9 594.2,258 594.8,259.1 595.4,260.2 596,261.4 596.5,262.5 597.1,263.6 597.7,264.7 598.3,265.8 598.9,266.9 599.5,268.1 600.1,269.2 600.7,270.3 601.3,271.4 601.9,272.5 602.5,273.7 603.1,274.8 603.7,275.9 604.3,277 604.9,278.1 605.5,279.2 606.1,280.4 606.8,281.5 607.4,282.6 608,283.7 608.6,284.8 609.2,286 609.9,287.1 610.5,288.2 611.1,289.3 611.7,290.4 612.4,291.6 613,292.7 613.7,293.8 614.3,294.9 614.9,296 615.6,297.1 616.2,298.3 616.9,299.4 617.5,300.5 618.2,301.6 618.8,302.7 619.5,303.9 620.1,305 620.8,306.1 621.4,307.2 622.1,308.3 622.8,309.5 623.4,310.6 624.1,311.7 624.8,312.8 625.4,313.9 626.1,315 626.8,316.2 627.5,317.3 628.1,318.4 628.8,319.5 629.5,320.6 630.2,321.8 630.9,322.9 631.6,324 632.2,325.1 632.9,326.2 633.6,327.3 634.3,328.5 635,329.6 635.7,330.7 636.4,331.8 637.1,332.9 637.8,334.1 638.5,335.2 639.2,336.3 639.9,337.4 640.7,338.5 641.4,339.7 642.1,340.8 642.8,341.9 643.5,343 644.2,344.1 645,345.2 645.7,346.4 646.4,347.5 647.2,348.6 647.9,349.7 648.6,350.8 649.4,352 650.1,353.1 650.8,354.2 651.6,355.3 652.3,356.4 653.1,357.6 653.8,358.7 654.5,359.8 655.3,360.9 656.1,362 656.8,363.1 657.6,364.3 658.3,365.4 659.1,366.5 659.8,367.6 660.6,368.7 661.4,369.9 662.1,371 662.9,372.1 663.7,373.2 664.5,374.3 665.2,375.5 666,376.6 666.8,377.7 667.6,378.8 668.3,379.9 669.1,381 669.9,382.2 670.7,383.3 671.5,384.4 672.3,385.5 673.1,386.6 673.9,387.8 674.7,388.9 675.5,390 676.3,391.1 677.1,392.2 677.9,393.3 678.7,394.5 679.5,395.6 680.3,396.7 681.1,397.8 682,398.9 682.8,400.1 683.6,401.2 684.4,402.3 685.2,403.4 686.1,404.5 686.9,405.7 687.7,406.8 688.6,407.9 689.4,409 690.2,410.1 691.1,411.2 691.9,412.4 692.7,413.5 693.6,414.6 694.4,415.7 695.3,416.8 696.1,418 697,419.1 697.8,420.2 698.7,421.3 699.5,422.4 700.4,423.6 701.3,424.7 702.1,425.8 703,426.9 703.9,428 704.7,429.1 705.6,430.3 706.5,431.4 707.4,432.5 708.2,433.6 709.1,434.7 710,435.9 710.9,437 711.8,438.1 712.7,439.2 713.5,440.3 714.4,441.4 715.3,442.6 716.2,443.7 717.1,444.8 718,445.9 718.9,447 719.8,448.2 720.7,449.3 721.6,450.4 722.6,451.5 723.5,452.6 724.4,453.8 725.3,454.9 726.2,456 727.1,457.1 728.1,458.2 729,459.3 729.9,460.5 730.8,461.6 731.8,462.7 732.7,463.8 733.6,464.9 734.6,466.1 735.5,467.2 736.5,468.3 737.4,469.4 738.4,470.5 739.3,471.7 740.3,472.8 741.2,473.9 742.2,475 743.1,476.1 744.1,477.2 745,478.4 746,479.5 747,480.6 747.9,481.7 748.9,482.8 749.9,484 750.9,485.1 751.8,486.2 752.8,487.3 753.8,488.4 754.8,489.5 755.8,490.7 756.8,491.8 757.7,492.9 758.7,494 759.7,495.1 760.7,496.3 761.7,497.4 762.7,498.5 763.7,499.6 764.7,500.7 765.7,501.9 766.7,503 767.8,504.1 768.8,505.2 769.8,506.3 770.8,507.4 771.8,508.6 772.9,509.7 773.9,510.8 774.9,511.9 775.9,513 777,514.2 778,515.3 779,516.4 780.1,517.5 781.1,518.6 782.2,519.8 783.2,520.9 784.3,522 785.3,523.1 786.4,524.2 787.4,525.3 788.5,526.5 789.5,527.6 790.6,528.7 791.7,529.8 792.7,530.9 793.8,532.1 794.9,533.2 795.9,534.3 797,535.4 798.1,536.5 799.2,537.7 800.3,538.8 801.3,539.9 802.4,541 803.5,542.1 804.6,543.2 805.7,544.4 806.8,545.5 807.9,546.6 809,547.7 810.1,548.8 811.2,550 812.3,551.1 813.4,552.2 814.5,553.3 815.7,554.4 816.8,555.5 817.9,556.7 819,557.8 820.2,558.9 821.3,560 822.4,561.1 823.6,562.3 824.7,563.4 825.8,564.5 827,565.6 828.1,566.7 829.3,567.9 830.4,569 831.6,570.1 832.7,571.2 833.9,572.3 835,573.4 836.2,574.6 837.4,575.7 838.5,576.8 839.7,577.9 840.9,579 842,580.2 843.2,581.3 844.4,582.4 845.6,583.5 846.8,584.6 847.9,585.8 849.1,586.9 850.3,588 851.5,589.1 852.7,590.2 853.9,591.3 855.1,592.5 856.3,593.6 857.5,594.7 858.7,595.8 860,596.9 861.2,598.1 862.4,599.2 863.6,600.3 864.8,601.4 866.1,602.5 867.3,603.6 868.5,604.8 869.8,605.9 871,607 872.2,608.1 873.5,609.2 874.7,610.4 876,611.5 877.2,612.6 878.5,613.7 879.7,614.8 881,616 882.3,617.1 883.5,618.2 884.8,619.3 886.1,620.4 887.3,621.5 888.6,622.7 889.9,623.8 891.2,624.9 892.5,626 893.8,627.1 895,628.3 896.3,629.4 897.6,630.5 898.9,631.6 900.2,632.7 901.5,633.9 902.9,635 904.2,636.1 905.5,637.2 906.8,638.3 908.1,639.4 909.4,640.6 910.8,641.7 912.1,642.8 913.4,643.9 914.8,645 916.1,646.2 917.4,647.3 918.8,648.4 920.1,649.5 921.5,650.6 922.8,651.8 924.2,652.9 925.6,654 926.9,655.1 928.3,656.2 929.7,657.3 931,658.5 932.4,659.6 933.8,660.7 935.2,661.8 936.5,662.9 937.9,664.1 939.3,665.2 940.7,666.3 942.1,667.4 943.5,668.5 944.9,669.6 946.3,670.8 947.7,671.9 949.1,673 950.6,674.1 952,675.2 953.4,676.4 954.8,677.5 956.3,678.6 957.7,679.7 959.1,680.8 960.6,682 962,683.1 963.5,684.2 964.9,685.3 966.4,686.4 967.8,687.5 969.3,688.7 970.7,689.8 972.2,690.9 973.7,692 975.2,693.1 976.6,694.3 978.1,695.4 979.6,696.5 981.1,697.6 982.6,698.7 984.1,699.9 985.6,701 987.1,702.1 988.6,703.2 990.1,704.3 991.6,705.4 993.1,706.6 994.6,707.7 996.2,708.8 997.7,709.9 999.2,711 1000.8,712.2 1002.3,713.3 1003.8,714.4 1005.4,715.5 1006.9,716.6 1008.5,717.7 1010,718.9 1011.6,720 1013.2,721.1 1014.7,722.2 1016.3,723.3 1017.9,724.5 1019.5,725.6 1021,726.7 1022.6,727.8 1024.2,728.9 1025.8,730.1 1027.4,731.2 1029,732.3 1030.6,733.4 1032.2,734.5 1033.9,735.6 1035.5,736.8 1037.1,737.9 1038.7,739 1040.4,740.1 1042,741.2 1043.6,742.4 1045.3,743.5 1046.9,744.6 1048.6,745.7 1050.2,746.8 1051.9,748 1053.6,749.1 1055.2,750.2 1056.9,751.3 1058.6,752.4 1060.3,753.5 1062,754.7 1063.7,755.8 1065.4,756.9 1067.1,758 1068.8,759.1 1070.5,760.3 1072.2,761.4 1073.9,762.5 1075.6,763.6 1077.3,764.7 1079.1,765.9 1080.8,767 1082.6,768.1 1084.3,769.2 1086,770.3 1087.8,771.4 1089.6,772.6 1091.3,773.7 1093.1,774.8 1094.9,775.9 1096.6,777 1098.4,778.2 1100.2,779.3 1102,780.4 1103.8,781.5 1105.6,782.6 1107.4,783.7 1109.2,784.9 1111,786 1112.9,787.1 1114.7,788.2 1116.5,789.3 1118.4,790.5 1120.2,791.6 1122.1,792.7 1123.9,793.8 1125.8,794.9 1127.6,796.1 1129.5,797.2 1131.4,798.3 1133.2,799.4 1135.1,800.5 1137,801.6 1138.9,802.8 1140.8,803.9 1142.7,805 1144.6,806.1 1146.5,807.2 1148.5,808.4 1150.4,809.5 1152.3,810.6 1154.3,811.7 1156.2,812.8 1158.2,814 1160.1,815.1 1162.1,816.2 1164,817.3 1166,818.4 1168,819.5 1170,820.7 1172,821.8 1174,822.9 1176,824 1178,825.1 1180,826.3 1182,827.4 1184,828.5 1186.1,829.6 1188.1,830.7 1190.2,831.8 1192.2,833 1194.3,834.1 1196.3,835.2 1198.4,836.3 1200.5,837.4 1202.6,838.6 1204.7,839.7 1206.8,840.8 1208.9,841.9 1211,843 1213.1,844.2 1215.2,845.3 1217.4,846.4 1219.5,847.5 1221.6,848.6 1223.8,849.7 1226,850.9 1228.1,852 1230.3,853.1 1232.5,854.2 1234.7,855.3 1236.9,856.5 1239.1,857.6 1241.3,858.7 1243.5,859.8 1245.7,860.9 1248,862.1 1250.2,863.2 1252.4,864.3 1254.7,865.4 1257,866.5 1259.2,867.6 1261.5,868.8 1263.8,869.9 1266.1,871 1268.4,872.1 1270.7,873.2 1273,874.4 1275.4,875.5 1277.7,876.6 1280,877.7 1282.4,878.8 1284.8,880 1287.1,881.1 1289.5,882.2 1291.9,883.3 1294.3,884.4 1296.7,885.5 1299.1,886.7 1301.5,887.8 1304,888.9 1306.4,890 1308.9,891.1 1311.3,892.3 1313.8,893.4 1316.3,894.5 1318.8,895.6 1321.3,896.7 1323.8,897.8 1326.3,899 1328.8,900.1 1331.4,901.2 1333.9,902.3 1336.5,903.4 1339.1,904.6 1341.6,905.7 1344.2,906.8 1346.8,907.9 1349.5,909 1352.1,910.2 1354.7,911.3 1357.4,912.4 1360,913.5 1362.7,914.6 1365.4,915.7 1368.1,916.9 1370.8,918 1373.5,919.1 1376.2,920.2 1379,921.3 1381.7,922.5 1384.5,923.6 1387.3,924.7 1390.1,925.8 1392.9,926.9 1395.7,928.1 1398.5,929.2 1401.3,930.3 1404.2,931.4 1407.1,932.5 1410,933.6 1412.9,934.8 1415.8,935.9 1418.7,937 " />
</g>

<g fill="none" stroke="#000000" stroke-opacity="1" stroke-width="1" stroke-linecap="square" stroke-linejoin="bevel" transform="matrix(1.00104,0,0,1.00104,0,0)"
font-family="Cantarell" font-size="10" font-weight="400" font-style="normal" 
>
</g>

<g fill="none" stroke="#000000" stroke-opacity="1" stroke-width="1" stroke-linecap="square" stroke-linejoin="bevel" transform="matrix(1.00104,0,0,1.00104,1313.37,87.0907)"
font-family="Cantarell" font-size="10" font-weight="400" font-style="normal" 
>
</g>

<g fill="none" stroke="#000000" stroke-opacity="1" stroke-width="1" stroke-linecap="square" stroke-linejoin="bevel" transform="matrix(1.00104,0,0,1.00104,1313.37,87.0907)"
font-family="Cantarell" font-size="10" font-weight="400" font-style="normal" 
>
</g>

<g fill="none" stroke="#000000" stroke-opacity="1" stroke-width="1" stroke-linecap="square" stroke-linejoin="bevel" transform="matrix(1.00104,0,0,1.00104,1313.37,87.0907)"
font-family="Cantarell" font-size="10" font-weight="400" font-style="normal" 
>
</g>

<g fill="none" stroke="#000000" stroke-opacity="1" stroke-width="1" stroke-linecap="square" stroke-linejoin="bevel" transform="matrix(1.00104,0,0,1.00104,1313.37,87.0907)"
font-family="Cantarell" font-size="10" font-weight="400" font-style="normal" 
>
</g>

<g fill="none" stroke="#000000" stroke-opacity="1" stroke-width="1" stroke-linecap="square" stroke-linejoin="bevel" transform="matrix(1.00104,0,0,1.00104,1313.37,87.0907)"
font-family="Cantarell" font-size="10" font-weight="400" font-style="normal" 
>
</g>

<g fill="none" stroke="#000000" stroke-opacity="1" stroke-width="1" stroke-linecap="square" stroke-linejoin="bevel" transform="matrix(1.00104,0,0,1.00104,1313.37,87.0907)"
font-family="Sans" font-size="9" font-weight="400" font-style="normal" 
>
<text fill="#000000" fill-opacity="1" stroke="none" xml:space="preserve" x="0" y="0" font-family="Sans" font-size="9" font-weight="400" font-style="normal" 
 >P = 0.75</text>
</g>

<g fill="none" stroke="#000000" stroke-opacity="1" stroke-width="1" stroke-linecap="square" stroke-linejoin="bevel" transform="matrix(1.00104,0,0,1.00104,1313.37,87.0907)"
font-family="Cantarell" font-size="10" font-weight="400" font-style="normal" 
>
</g>

<g fill="none" stroke="#000000" stroke-opacity="1" stroke-width="1" stroke-linecap="square" stroke-linejoin="bevel" transform="matrix(1.00104,0,0,1.00104,0,0)"
font-family="Cantarell" font-size="10" font-weight="400" font-style="normal" 
>
</g>

<g fill="none" stroke="#56b4e9" stroke-opacity="1" stroke-width="1" stroke-linecap="round" stroke-linejoin="round" transform="matrix(1.00104,0,0,1.00104,0,0)"
font-family="Cantarell" font-size="10" font-weight="400" font-style="normal" 
>
<path vector-effect="none" fill-rule="evenodd" d="M1371.5,82.5 L1404.5,82.5"/>
</g>

<g fill="none" stroke="#000000" stroke-opacity="1" stroke-width="1" stroke-linecap="square" stroke-linejoin="bevel" transform="matrix(1.00104,0,0,1.00104,0,0)"
font-family="Cantarell" font-size="10" font-weight="400" font-style="normal" 
>
</g>

<g fill="none" stroke="#000000" stroke-opacity="1" stroke-width="1" stroke-linecap="square" stroke-linejoin="bevel" transform="matrix(1.00104,0,0,1.00104,0,0)"
font-family="Cantarell" font-size="10" font-weight="400" font-style="normal" 
>
</g>

<g fill="none" stroke="#000000" stroke-opacity="1" stroke-width="1" stroke-linecap="square" stroke-linejoin="bevel" transform="matrix(1.00104,0,0,1.00104,0,0)"
font-family="Cantarell" font-size="10" font-weight="400" font-style="normal" 
>
</g>

<g fill="none" stroke="#000000" stroke-opacity="1" stroke-width="1" stroke-linecap="square" stroke-linejoin="bevel" transform="matrix(1.00104,0,0,1.00104,0,0)"
font-family="Cantarell" font-size="10" font-weight="400" font-style="normal" 
>
</g>

<g fill="none" stroke="#56b4e9" stroke-opacity="1" stroke-width="1" stroke-linecap="round" stroke-linejoin="round" transform="matrix(1.00104,0,0,1.00104,0,0)"
font-family="Cantarell" font-size="10" font-weight="400" font-style="normal" 
>
<polyline fill="none" vector-effect="none" points="523.7,42.1 523.7,42.1 523.7,48 524,52.1 524.4,55.7 524.7,58.9 525.1,62 525.5,64.9 526,67.7 526.4,70.4 526.8,73 527.3,75.6 527.7,78 528.2,80.5 528.7,82.8 529.2,85.2 529.6,87.4 530.1,89.7 530.6,91.9 531.1,94.1 531.6,96.2 532.1,98.4 532.6,100.5 533.1,102.5 533.6,104.6 534.1,106.6 534.7,108.6 535.2,110.6 535.7,112.6 536.2,114.5 536.8,116.4 537.3,118.4 537.8,120.3 538.4,122.1 538.9,124 539.5,125.9 540,127.7 540.6,129.5 541.1,131.4 541.7,133.2 542.3,134.9 542.8,136.7 543.4,138.5 543.9,140.3 544.5,142 545.1,143.7 545.7,145.5 546.2,147.2 546.8,148.9 547.4,150.6 548,152.3 548.6,154 549.1,155.6 549.7,157.3 550.3,159 550.9,160.6 551.5,162.3 552.1,163.9 552.7,165.5 553.3,167.1 553.9,168.7 554.5,170.4 555.1,172 555.7,173.5 556.3,175.1 556.9,176.7 557.6,178.3 558.2,179.9 558.8,181.4 559.4,183 560,184.5 560.6,186.1 561.3,187.6 561.9,189.1 562.5,190.7 563.1,192.2 563.8,193.7 564.4,195.2 565,196.7 565.7,198.2 566.3,199.7 566.9,201.2 567.6,202.7 568.2,204.2 568.9,205.7 569.5,207.2 570.2,208.6 570.8,210.1 571.5,211.6 572.1,213 572.8,214.5 573.4,215.9 574.1,217.4 574.7,218.8 575.4,220.3 576,221.7 576.7,223.1 577.4,224.6 578,226 578.7,227.4 579.3,228.8 580,230.2 580.7,231.6 581.3,233 582,234.4 582.7,235.8 583.4,237.2 584,238.6 584.7,240 585.4,241.4 586.1,242.8 586.8,244.2 587.4,245.5 588.1,246.9 588.8,248.3 589.5,249.7 590.2,251 590.9,252.4 591.6,253.7 592.3,255.1 592.9,256.4 593.6,257.8 594.3,259.1 595,260.5 595.7,261.8 596.4,263.2 597.1,264.5 597.8,265.8 598.5,267.2 599.2,268.5 600,269.8 600.7,271.1 601.4,272.5 602.1,273.8 602.8,275.1 603.5,276.4 604.2,277.7 604.9,279 605.6,280.3 606.4,281.6 607.1,282.9 607.8,284.2 608.5,285.5 609.2,286.8 610,288.1 610.7,289.4 611.4,290.7 612.1,292 612.9,293.3 613.6,294.5 614.3,295.8 615.1,297.1 615.8,298.4 616.5,299.6 617.3,300.9 618,302.2 618.7,303.4 619.5,304.7 620.2,306 621,307.2 621.7,308.5 622.5,309.7 623.2,311 624,312.2 624.7,313.5 625.4,314.7 626.2,316 627,317.2 627.7,318.5 628.5,319.7 629.2,321 630,322.2 630.7,323.4 631.5,324.7 632.2,325.9 633,327.1 633.8,328.3 634.5,329.6 635.3,330.8 636.1,332 636.8,333.2 637.6,334.5 638.4,335.7 639.1,336.9 639.9,338.1 640.7,339.3 641.5,340.5 642.2,341.7 643,342.9 643.8,344.1 644.6,345.4 645.3,346.6 646.1,347.8 646.9,349 647.7,350.2 648.5,351.3 649.3,352.5 650.1,353.7 650.8,354.9 651.6,356.1 652.4,357.3 653.2,358.5 654,359.7 654.8,360.9 655.6,362 656.4,363.2 657.2,364.4 658,365.6 658.8,366.8 659.6,367.9 660.4,369.1 661.2,370.3 662,371.5 662.8,372.6 663.6,373.8 664.4,375 665.2,376.1 666,377.3 666.8,378.5 667.7,379.6 668.5,380.8 669.3,381.9 670.1,383.1 670.9,384.3 671.7,385.4 672.6,386.6 673.4,387.7 674.2,388.9 675,390 675.9,391.2 676.7,392.3 677.5,393.5 678.3,394.6 679.2,395.7 680,396.9 680.8,398 681.7,399.2 682.5,400.3 683.3,401.5 684.2,402.6 685,403.7 685.8,404.9 686.7,406 687.5,407.1 688.4,408.3 689.2,409.4 690,410.5 690.9,411.6 691.7,412.8 692.6,413.9 693.4,415 694.3,416.1 695.1,417.3 696,418.4 696.8,419.5 697.7,420.6 698.5,421.7 699.4,422.8 700.3,424 701.1,425.1 702,426.2 702.8,427.3 703.7,428.4 704.6,429.5 705.4,430.6 706.3,431.7 707.2,432.8 708,433.9 708.9,435.1 709.8,436.2 710.6,437.3 711.5,438.4 712.4,439.5 713.3,440.6 714.1,441.7 715,442.8 715.9,443.9 716.8,444.9 717.7,446 718.5,447.1 719.4,448.2 720.3,449.3 721.2,450.4 722.1,451.5 723,452.6 723.9,453.7 724.7,454.8 725.6,455.8 726.5,456.9 727.4,458 728.3,459.1 729.2,460.2 730.1,461.3 731,462.3 731.9,463.4 732.8,464.5 733.7,465.6 734.6,466.6 735.5,467.7 736.4,468.8 737.3,469.9 738.3,470.9 739.2,472 740.1,473.1 741,474.2 741.9,475.2 742.8,476.3 743.7,477.4 744.6,478.4 745.6,479.5 746.5,480.6 747.4,481.6 748.3,482.7 749.2,483.7 750.2,484.8 751.1,485.9 752,486.9 752.9,488 753.9,489 754.8,490.1 755.7,491.2 756.7,492.2 757.6,493.3 758.5,494.3 759.5,495.4 760.4,496.4 761.4,497.5 762.3,498.5 763.2,499.6 764.2,500.6 765.1,501.7 766.1,502.7 767,503.8 768,504.8 768.9,505.9 769.9,506.9 770.8,507.9 771.8,509 772.7,510 773.7,511.1 774.6,512.1 775.6,513.1 776.5,514.2 777.5,515.2 778.5,516.3 779.4,517.3 780.4,518.3 781.4,519.4 782.3,520.4 783.3,521.4 784.3,522.5 785.2,523.5 786.2,524.5 787.2,525.6 788.1,526.6 789.1,527.6 790.1,528.7 791.1,529.7 792.1,530.7 793,531.7 794,532.8 795,533.8 796,534.8 797,535.8 798,536.9 798.9,537.9 799.9,538.9 800.9,539.9 801.9,540.9 802.9,542 803.9,543 804.9,544 805.9,545 806.9,546 807.9,547 808.9,548.1 809.9,549.1 810.9,550.1 811.9,551.1 812.9,552.1 813.9,553.1 814.9,554.1 815.9,555.1 816.9,556.1 818,557.2 819,558.2 820,559.2 821,560.2 822,561.2 823,562.2 824.1,563.2 825.1,564.2 826.1,565.2 827.1,566.2 828.2,567.2 829.2,568.2 830.2,569.2 831.3,570.2 832.3,571.2 833.3,572.2 834.4,573.2 835.4,574.2 836.4,575.2 837.5,576.2 838.5,577.2 839.5,578.2 840.6,579.2 841.6,580.2 842.7,581.2 843.7,582.2 844.8,583.2 845.8,584.2 846.9,585.1 847.9,586.1 849,587.1 850,588.1 851.1,589.1 852.2,590.1 853.2,591.1 854.3,592.1 855.3,593.1 856.4,594 857.5,595 858.5,596 859.6,597 860.7,598 861.7,599 862.8,599.9 863.9,600.9 865,601.9 866,602.9 867.1,603.9 868.2,604.8 869.3,605.8 870.4,606.8 871.4,607.8 872.5,608.8 873.6,609.7 874.7,610.7 875.8,611.7 876.9,612.7 878,613.6 879.1,614.6 880.2,615.6 881.3,616.6 882.4,617.5 883.5,618.5 884.6,619.5 885.7,620.4 886.8,621.4 887.9,622.4 889,623.4 890.1,624.3 891.2,625.3 892.3,626.3 893.4,627.2 894.6,628.2 895.7,629.2 896.8,630.1 897.9,631.1 899,632.1 900.2,633 901.3,634 902.4,634.9 903.5,635.9 904.7,636.9 905.8,637.8 906.9,638.8 908.1,639.7 909.2,640.7 910.3,641.7 911.5,642.6 912.6,643.6 913.8,644.5 914.9,645.5 916.1,646.5 917.2,647.4 918.4,648.4 919.5,649.3 920.7,650.3 921.8,651.2 923,652.2 924.1,653.1 925.3,654.1 926.4,655 927.6,656 928.8,656.9 929.9,657.9 931.1,658.8 932.3,659.8 933.4,660.7 934.6,661.7 935.8,662.6 937,663.6 938.1,664.5 939.3,665.5 940.5,666.4 941.7,667.4 942.9,668.3 944,669.3 945.2,670.2 946.4,671.1 947.6,672.1 948.8,673 950,674 951.2,674.9 952.4,675.9 953.6,676.8 954.8,677.7 956,678.7 957.2,679.6 958.4,680.6 959.6,681.5 960.8,682.4 962,683.4 963.2,684.3 964.5,685.3 965.7,686.2 966.9,687.1 968.1,688.1 969.3,689 970.6,689.9 971.8,690.9 973,691.8 974.2,692.7 975.5,693.7 976.7,694.6 977.9,695.5 979.2,696.5 980.4,697.4 981.7,698.3 982.9,699.2 984.1,700.2 985.4,701.1 986.6,702 987.9,703 989.1,703.9 990.4,704.8 991.6,705.7 992.9,706.7 994.2,707.6 995.4,708.5 996.7,709.5 998,710.4 999.2,711.3 1000.5,712.2 1001.8,713.1 1003,714.1 1004.3,715 1005.6,715.9 1006.9,716.8 1008.1,717.8 1009.4,718.7 1010.7,719.6 1012,720.5 1013.3,721.4 1014.6,722.4 1015.9,723.3 1017.2,724.2 1018.5,725.1 1019.8,726 1021.1,727 1022.4,727.9 1023.7,728.8 1025,729.7 1026.3,730.6 1027.6,731.5 1028.9,732.5 1030.2,733.4 1031.5,734.3 1032.9,735.2 1034.2,736.1 1035.5,737 1036.8,737.9 1038.2,738.8 1039.5,739.8 1040.8,740.7 1042.2,741.6 1043.5,742.5 1044.8,743.4 1046.2,744.3 1047.5,745.2 1048.9,746.1 1050.2,747 1051.6,747.9 1052.9,748.9 1054.3,749.8 1055.6,750.7 1057,751.6 1058.3,752.5 1059.7,753.4 1061.1,754.3 1062.4,755.2 1063.8,756.1 1065.2,757 1066.6,757.9 1067.9,758.8 1069.3,759.7 1070.7,760.6 1072.1,761.5 1073.5,762.4 1074.9,763.3 1076.2,764.2 1077.6,765.1 1079,766 1080.4,766.9 1081.8,767.8 1083.2,768.7 1084.6,769.6 1086,770.5 1087.5,771.4 1088.9,772.3 1090.3,773.2 1091.7,774.1 1093.1,775 1094.5,775.9 1096,776.8 1097.4,777.7 1098.8,778.6 1100.3,779.5 1101.7,780.4 1103.1,781.3 1104.6,782.2 1106,783.1 1107.5,784 1108.9,784.9 1110.4,785.7 1111.8,786.6 1113.3,787.5 1114.7,788.4 1116.2,789.3 1117.6,790.2 1119.1,791.1 1120.6,792 1122.1,792.9 1123.5,793.8 1125,794.7 1126.5,795.5 1128,796.4 1129.5,797.3 1130.9,798.2 1132.4,799.1 1133.9,800 1135.4,800.9 1136.9,801.8 1138.4,802.6 1139.9,803.5 1141.4,804.4 1142.9,805.3 1144.5,806.2 1146,807.1 1147.5,807.9 1149,808.8 1150.5,809.7 1152.1,810.6 1153.6,811.5 1155.1,812.4 1156.7,813.2 1158.2,814.1 1159.7,815 1161.3,815.9 1162.8,816.8 1164.4,817.6 1165.9,818.5 1167.5,819.4 1169.1,820.3 1170.6,821.2 1172.2,822 1173.8,822.9 1175.3,823.8 1176.9,824.7 1178.5,825.6 1180.1,826.4 1181.6,827.3 1183.2,828.2 1184.8,829.1 1186.4,829.9 1188,830.8 1189.6,831.7 1191.2,832.6 1192.8,833.4 1194.4,834.3 1196.1,835.2 1197.7,836.1 1199.3,836.9 1200.9,837.8 1202.6,838.7 1204.2,839.5 1205.8,840.4 1207.5,841.3 1209.1,842.2 1210.7,843 1212.4,843.9 1214,844.8 1215.7,845.6 1217.4,846.5 1219,847.4 1220.7,848.2 1222.4,849.1 1224,850 1225.7,850.9 1227.4,851.7 1229.1,852.6 1230.8,853.5 1232.5,854.3 1234.2,855.2 1235.9,856.1 1237.6,856.9 1239.3,857.8 1241,858.6 1242.7,859.5 1244.4,860.4 1246.1,861.2 1247.9,862.1 1249.6,863 1251.3,863.8 1253.1,864.7 1254.8,865.6 1256.6,866.4 1258.3,867.3 1260.1,868.1 1261.8,869 1263.6,869.9 1265.4,870.7 1267.1,871.6 1268.9,872.4 1270.7,873.3 1272.5,874.2 1274.3,875 1276.1,875.9 1277.9,876.7 1279.7,877.6 1281.5,878.5 1283.3,879.3 1285.1,880.2 1286.9,881 1288.7,881.9 1290.6,882.8 1292.4,883.6 1294.2,884.5 1296.1,885.3 1297.9,886.2 1299.8,887 1301.6,887.9 1303.5,888.7 1305.4,889.6 1307.2,890.4 1309.1,891.3 1311,892.2 1312.9,893 1314.8,893.9 1316.7,894.7 1318.6,895.6 1320.5,896.4 1322.4,897.3 1324.3,898.1 1326.2,899 1328.1,899.8 1330.1,900.7 1332,901.5 1333.9,902.4 1335.9,903.2 1337.8,904.1 1339.8,904.9 1341.8,905.8 1343.7,906.6 1345.7,907.5 1347.7,908.3 1349.7,909.2 1351.7,910 1353.7,910.9 1355.7,911.7 1357.7,912.6 1359.7,913.4 1361.7,914.3 1363.7,915.1 1365.8,915.9 1367.8,916.8 1369.9,917.6 1371.9,918.5 1374,919.3 1376,920.2 1378.1,921 1380.2,921.9 1382.3,922.7 1384.4,923.5 1386.4,924.4 1388.6,925.2 1390.7,926.1 1392.8,926.9 1394.9,927.8 1397,928.6 1399.2,929.4 1401.3,930.3 1403.5,931.1 1405.6,932 1407.8,932.8 1409.9,933.6 1412.1,934.5 1414.3,935.3 1416.5,936.2 1418.7,937 " />
</g>

<g fill="none" stroke="#000000" stroke-opacity="1" stroke-width="1" stroke-linecap="square" stroke-linejoin="bevel" transform="matrix(1.00104,0,0,1.00104,0,0)"
font-family="Cantarell" font-size="10" font-weight="400" font-style="normal" 
>
</g>

<g fill="none" stroke="#000000" stroke-opacity="1" stroke-width="1" stroke-linecap="square" stroke-linejoin="bevel" transform="matrix(1.00104,0,0,1.00104,0,0)"
font-family="Cantarell" font-size="10" font-weight="400" font-style="normal" 
>
</g>

<g fill="none" stroke="#000000" stroke-opacity="1" stroke-width="1" stroke-linecap="round" stroke-linejoin="round" transform="matrix(1.00104,0,0,1.00104,0,0)"
font-family="Cantarell" font-size="10" font-weight="400" font-style="normal" 
>
<polyline fill="none" vector-effect="none" points="523.5,42.5 523.5,937.5 1418.5,937.5 1418.5,42.5 523.5,42.5 " />
</g>

<g fill="none" stroke="#000000" stroke-opacity="1" stroke-width="1" stroke-linecap="square" stroke-linejoin="bevel" transform="matrix(1.00104,0,0,1.00104,0,0)"
font-family="Cantarell" font-size="10" font-weight="400" font-style="normal" 
>
</g>

<g fill="none" stroke="#000000" stroke-opacity="1" stroke-width="1" stroke-linecap="square" stroke-linejoin="bevel" transform="matrix(1,0,0,1,0,0)"
font-family="Cantarell" font-size="10" font-weight="400" font-style="normal" 
>
</g>
</g>
</svg>
