<?xml version="1.0" encoding="UTF-8" standalone="no"?>
<svg width="677.333mm" height="341.136mm"
 viewBox="0 0 1920 967"
 xmlns="http://www.w3.org/2000/svg" xmlns:xlink="http://www.w3.org/1999/xlink"  version="1.2" baseProfile="tiny">
<title>Qt SVG Document</title>
<desc>Generated with Qt</desc>
<defs>
</defs>
<g fill="none" stroke="black" stroke-width="1" fill-rule="evenodd" stroke-linecap="square" stroke-linejoin="bevel" >

<g fill="none" stroke="#000000" stroke-opacity="1" stroke-width="1" stroke-linecap="square" stroke-linejoin="bevel" transform="matrix(1,0,0,1,0,0)"
font-family="Cantarell" font-size="10" font-weight="400" font-style="normal" 
>
</g>

<g fill="none" stroke="#000000" stroke-opacity="1" stroke-width="1" stroke-linecap="square" stroke-linejoin="bevel" transform="matrix(1.00104,0,0,1.00104,0,0)"
font-family="Cantarell" font-size="10" font-weight="400" font-style="normal" 
>
</g>

<g fill="none" stroke="#a0a0a4" stroke-opacity="1" stroke-dasharray="0.5,1" stroke-dashoffset="0" stroke-width="0.5" stroke-linecap="round" stroke-linejoin="round" transform="matrix(1.00104,0,0,1.00104,0,0)"
font-family="Cantarell" font-size="10" font-weight="400" font-style="normal" 
>
<polyline fill="none" vector-effect="none" points="523.5,937.5 1418.5,937.5 " />
</g>

<g fill="none" stroke="#000000" stroke-opacity="1" stroke-width="1" stroke-linecap="round" stroke-linejoin="round" transform="matrix(1.00104,0,0,1.00104,0,0)"
font-family="Cantarell" font-size="10" font-weight="400" font-style="normal" 
>
<polyline fill="none" vector-effect="none" points="523.5,937.5 529.5,937.5 " />
<polyline fill="none" vector-effect="none" points="1418.5,937.5 1413.5,937.5 " />
</g>

<g fill="none" stroke="#000000" stroke-opacity="1" stroke-width="1" stroke-linecap="square" stroke-linejoin="bevel" transform="matrix(1.00104,0,0,1.00104,0,0)"
font-family="Cantarell" font-size="10" font-weight="400" font-style="normal" 
>
</g>

<g fill="none" stroke="#000000" stroke-opacity="1" stroke-width="1" stroke-linecap="square" stroke-linejoin="bevel" transform="matrix(1.00104,0,0,1.00104,506.528,941.981)"
font-family="Cantarell" font-size="10" font-weight="400" font-style="normal" 
>
</g>

<g fill="none" stroke="#000000" stroke-opacity="1" stroke-width="1" stroke-linecap="square" stroke-linejoin="bevel" transform="matrix(1.00104,0,0,1.00104,506.528,941.981)"
font-family="Cantarell" font-size="10" font-weight="400" font-style="normal" 
>
</g>

<g fill="none" stroke="#000000" stroke-opacity="1" stroke-width="1" stroke-linecap="square" stroke-linejoin="bevel" transform="matrix(1.00104,0,0,1.00104,506.528,941.981)"
font-family="Cantarell" font-size="10" font-weight="400" font-style="normal" 
>
</g>

<g fill="none" stroke="#000000" stroke-opacity="1" stroke-width="1" stroke-linecap="square" stroke-linejoin="bevel" transform="matrix(1.00104,0,0,1.00104,506.528,941.981)"
font-family="Cantarell" font-size="10" font-weight="400" font-style="normal" 
>
</g>

<g fill="none" stroke="#000000" stroke-opacity="1" stroke-width="1" stroke-linecap="square" stroke-linejoin="bevel" transform="matrix(1.00104,0,0,1.00104,506.528,941.981)"
font-family="Cantarell" font-size="10" font-weight="400" font-style="normal" 
>
</g>

<g fill="none" stroke="#000000" stroke-opacity="1" stroke-width="1" stroke-linecap="square" stroke-linejoin="bevel" transform="matrix(1.00104,0,0,1.00104,506.528,941.981)"
font-family="Sans" font-size="9" font-weight="400" font-style="normal" 
>
<text fill="#000000" fill-opacity="1" stroke="none" xml:space="preserve" x="0" y="0" font-family="Sans" font-size="9" font-weight="400" font-style="normal" 
 >-2</text>
</g>

<g fill="none" stroke="#000000" stroke-opacity="1" stroke-width="1" stroke-linecap="square" stroke-linejoin="bevel" transform="matrix(1.00104,0,0,1.00104,506.528,941.981)"
font-family="Cantarell" font-size="10" font-weight="400" font-style="normal" 
>
</g>

<g fill="none" stroke="#000000" stroke-opacity="1" stroke-width="1" stroke-linecap="square" stroke-linejoin="bevel" transform="matrix(1.00104,0,0,1.00104,0,0)"
font-family="Cantarell" font-size="10" font-weight="400" font-style="normal" 
>
</g>

<g fill="none" stroke="#a0a0a4" stroke-opacity="1" stroke-dasharray="0.5,1" stroke-dashoffset="0" stroke-width="0.5" stroke-linecap="round" stroke-linejoin="round" transform="matrix(1.00104,0,0,1.00104,0,0)"
font-family="Cantarell" font-size="10" font-weight="400" font-style="normal" 
>
<polyline fill="none" vector-effect="none" points="523.5,713.5 1418.5,713.5 " />
</g>

<g fill="none" stroke="#000000" stroke-opacity="1" stroke-width="1" stroke-linecap="round" stroke-linejoin="round" transform="matrix(1.00104,0,0,1.00104,0,0)"
font-family="Cantarell" font-size="10" font-weight="400" font-style="normal" 
>
<polyline fill="none" vector-effect="none" points="523.5,713.5 529.5,713.5 " />
<polyline fill="none" vector-effect="none" points="1418.5,713.5 1413.5,713.5 " />
</g>

<g fill="none" stroke="#000000" stroke-opacity="1" stroke-width="1" stroke-linecap="square" stroke-linejoin="bevel" transform="matrix(1.00104,0,0,1.00104,0,0)"
font-family="Cantarell" font-size="10" font-weight="400" font-style="normal" 
>
</g>

<g fill="none" stroke="#000000" stroke-opacity="1" stroke-width="1" stroke-linecap="square" stroke-linejoin="bevel" transform="matrix(1.00104,0,0,1.00104,494.515,717.748)"
font-family="Cantarell" font-size="10" font-weight="400" font-style="normal" 
>
</g>

<g fill="none" stroke="#000000" stroke-opacity="1" stroke-width="1" stroke-linecap="square" stroke-linejoin="bevel" transform="matrix(1.00104,0,0,1.00104,494.515,717.748)"
font-family="Cantarell" font-size="10" font-weight="400" font-style="normal" 
>
</g>

<g fill="none" stroke="#000000" stroke-opacity="1" stroke-width="1" stroke-linecap="square" stroke-linejoin="bevel" transform="matrix(1.00104,0,0,1.00104,494.515,717.748)"
font-family="Cantarell" font-size="10" font-weight="400" font-style="normal" 
>
</g>

<g fill="none" stroke="#000000" stroke-opacity="1" stroke-width="1" stroke-linecap="square" stroke-linejoin="bevel" transform="matrix(1.00104,0,0,1.00104,494.515,717.748)"
font-family="Cantarell" font-size="10" font-weight="400" font-style="normal" 
>
</g>

<g fill="none" stroke="#000000" stroke-opacity="1" stroke-width="1" stroke-linecap="square" stroke-linejoin="bevel" transform="matrix(1.00104,0,0,1.00104,494.515,717.748)"
font-family="Cantarell" font-size="10" font-weight="400" font-style="normal" 
>
</g>

<g fill="none" stroke="#000000" stroke-opacity="1" stroke-width="1" stroke-linecap="square" stroke-linejoin="bevel" transform="matrix(1.00104,0,0,1.00104,494.515,717.748)"
font-family="Sans" font-size="9" font-weight="400" font-style="normal" 
>
<text fill="#000000" fill-opacity="1" stroke="none" xml:space="preserve" x="0" y="0" font-family="Sans" font-size="9" font-weight="400" font-style="normal" 
 >-1.5</text>
</g>

<g fill="none" stroke="#000000" stroke-opacity="1" stroke-width="1" stroke-linecap="square" stroke-linejoin="bevel" transform="matrix(1.00104,0,0,1.00104,494.515,717.748)"
font-family="Cantarell" font-size="10" font-weight="400" font-style="normal" 
>
</g>

<g fill="none" stroke="#000000" stroke-opacity="1" stroke-width="1" stroke-linecap="square" stroke-linejoin="bevel" transform="matrix(1.00104,0,0,1.00104,0,0)"
font-family="Cantarell" font-size="10" font-weight="400" font-style="normal" 
>
</g>

<g fill="none" stroke="#a0a0a4" stroke-opacity="1" stroke-dasharray="0.5,1" stroke-dashoffset="0" stroke-width="0.5" stroke-linecap="round" stroke-linejoin="round" transform="matrix(1.00104,0,0,1.00104,0,0)"
font-family="Cantarell" font-size="10" font-weight="400" font-style="normal" 
>
<polyline fill="none" vector-effect="none" points="523.5,489.5 1418.5,489.5 " />
</g>

<g fill="none" stroke="#000000" stroke-opacity="1" stroke-width="1" stroke-linecap="round" stroke-linejoin="round" transform="matrix(1.00104,0,0,1.00104,0,0)"
font-family="Cantarell" font-size="10" font-weight="400" font-style="normal" 
>
<polyline fill="none" vector-effect="none" points="523.5,489.5 529.5,489.5 " />
<polyline fill="none" vector-effect="none" points="1418.5,489.5 1413.5,489.5 " />
</g>

<g fill="none" stroke="#000000" stroke-opacity="1" stroke-width="1" stroke-linecap="square" stroke-linejoin="bevel" transform="matrix(1.00104,0,0,1.00104,0,0)"
font-family="Cantarell" font-size="10" font-weight="400" font-style="normal" 
>
</g>

<g fill="none" stroke="#000000" stroke-opacity="1" stroke-width="1" stroke-linecap="square" stroke-linejoin="bevel" transform="matrix(1.00104,0,0,1.00104,506.528,494.515)"
font-family="Cantarell" font-size="10" font-weight="400" font-style="normal" 
>
</g>

<g fill="none" stroke="#000000" stroke-opacity="1" stroke-width="1" stroke-linecap="square" stroke-linejoin="bevel" transform="matrix(1.00104,0,0,1.00104,506.528,494.515)"
font-family="Cantarell" font-size="10" font-weight="400" font-style="normal" 
>
</g>

<g fill="none" stroke="#000000" stroke-opacity="1" stroke-width="1" stroke-linecap="square" stroke-linejoin="bevel" transform="matrix(1.00104,0,0,1.00104,506.528,494.515)"
font-family="Cantarell" font-size="10" font-weight="400" font-style="normal" 
>
</g>

<g fill="none" stroke="#000000" stroke-opacity="1" stroke-width="1" stroke-linecap="square" stroke-linejoin="bevel" transform="matrix(1.00104,0,0,1.00104,506.528,494.515)"
font-family="Cantarell" font-size="10" font-weight="400" font-style="normal" 
>
</g>

<g fill="none" stroke="#000000" stroke-opacity="1" stroke-width="1" stroke-linecap="square" stroke-linejoin="bevel" transform="matrix(1.00104,0,0,1.00104,506.528,494.515)"
font-family="Cantarell" font-size="10" font-weight="400" font-style="normal" 
>
</g>

<g fill="none" stroke="#000000" stroke-opacity="1" stroke-width="1" stroke-linecap="square" stroke-linejoin="bevel" transform="matrix(1.00104,0,0,1.00104,506.528,494.515)"
font-family="Sans" font-size="9" font-weight="400" font-style="normal" 
>
<text fill="#000000" fill-opacity="1" stroke="none" xml:space="preserve" x="0" y="0" font-family="Sans" font-size="9" font-weight="400" font-style="normal" 
 >-1</text>
</g>

<g fill="none" stroke="#000000" stroke-opacity="1" stroke-width="1" stroke-linecap="square" stroke-linejoin="bevel" transform="matrix(1.00104,0,0,1.00104,506.528,494.515)"
font-family="Cantarell" font-size="10" font-weight="400" font-style="normal" 
>
</g>

<g fill="none" stroke="#000000" stroke-opacity="1" stroke-width="1" stroke-linecap="square" stroke-linejoin="bevel" transform="matrix(1.00104,0,0,1.00104,0,0)"
font-family="Cantarell" font-size="10" font-weight="400" font-style="normal" 
>
</g>

<g fill="none" stroke="#a0a0a4" stroke-opacity="1" stroke-dasharray="0.5,1" stroke-dashoffset="0" stroke-width="0.5" stroke-linecap="round" stroke-linejoin="round" transform="matrix(1.00104,0,0,1.00104,0,0)"
font-family="Cantarell" font-size="10" font-weight="400" font-style="normal" 
>
<polyline fill="none" vector-effect="none" points="523.5,265.5 1418.5,265.5 " />
</g>

<g fill="none" stroke="#000000" stroke-opacity="1" stroke-width="1" stroke-linecap="round" stroke-linejoin="round" transform="matrix(1.00104,0,0,1.00104,0,0)"
font-family="Cantarell" font-size="10" font-weight="400" font-style="normal" 
>
<polyline fill="none" vector-effect="none" points="523.5,265.5 529.5,265.5 " />
<polyline fill="none" vector-effect="none" points="1418.5,265.5 1413.5,265.5 " />
</g>

<g fill="none" stroke="#000000" stroke-opacity="1" stroke-width="1" stroke-linecap="square" stroke-linejoin="bevel" transform="matrix(1.00104,0,0,1.00104,0,0)"
font-family="Cantarell" font-size="10" font-weight="400" font-style="normal" 
>
</g>

<g fill="none" stroke="#000000" stroke-opacity="1" stroke-width="1" stroke-linecap="square" stroke-linejoin="bevel" transform="matrix(1.00104,0,0,1.00104,494.515,270.282)"
font-family="Cantarell" font-size="10" font-weight="400" font-style="normal" 
>
</g>

<g fill="none" stroke="#000000" stroke-opacity="1" stroke-width="1" stroke-linecap="square" stroke-linejoin="bevel" transform="matrix(1.00104,0,0,1.00104,494.515,270.282)"
font-family="Cantarell" font-size="10" font-weight="400" font-style="normal" 
>
</g>

<g fill="none" stroke="#000000" stroke-opacity="1" stroke-width="1" stroke-linecap="square" stroke-linejoin="bevel" transform="matrix(1.00104,0,0,1.00104,494.515,270.282)"
font-family="Cantarell" font-size="10" font-weight="400" font-style="normal" 
>
</g>

<g fill="none" stroke="#000000" stroke-opacity="1" stroke-width="1" stroke-linecap="square" stroke-linejoin="bevel" transform="matrix(1.00104,0,0,1.00104,494.515,270.282)"
font-family="Cantarell" font-size="10" font-weight="400" font-style="normal" 
>
</g>

<g fill="none" stroke="#000000" stroke-opacity="1" stroke-width="1" stroke-linecap="square" stroke-linejoin="bevel" transform="matrix(1.00104,0,0,1.00104,494.515,270.282)"
font-family="Cantarell" font-size="10" font-weight="400" font-style="normal" 
>
</g>

<g fill="none" stroke="#000000" stroke-opacity="1" stroke-width="1" stroke-linecap="square" stroke-linejoin="bevel" transform="matrix(1.00104,0,0,1.00104,494.515,270.282)"
font-family="Sans" font-size="9" font-weight="400" font-style="normal" 
>
<text fill="#000000" fill-opacity="1" stroke="none" xml:space="preserve" x="0" y="0" font-family="Sans" font-size="9" font-weight="400" font-style="normal" 
 >-0.5</text>
</g>

<g fill="none" stroke="#000000" stroke-opacity="1" stroke-width="1" stroke-linecap="square" stroke-linejoin="bevel" transform="matrix(1.00104,0,0,1.00104,494.515,270.282)"
font-family="Cantarell" font-size="10" font-weight="400" font-style="normal" 
>
</g>

<g fill="none" stroke="#000000" stroke-opacity="1" stroke-width="1" stroke-linecap="square" stroke-linejoin="bevel" transform="matrix(1.00104,0,0,1.00104,0,0)"
font-family="Cantarell" font-size="10" font-weight="400" font-style="normal" 
>
</g>

<g fill="none" stroke="#a0a0a4" stroke-opacity="1" stroke-dasharray="0.5,1" stroke-dashoffset="0" stroke-width="0.5" stroke-linecap="round" stroke-linejoin="round" transform="matrix(1.00104,0,0,1.00104,0,0)"
font-family="Cantarell" font-size="10" font-weight="400" font-style="normal" 
>
<polyline fill="none" vector-effect="none" points="523.5,42.5 1418.5,42.5 " />
</g>

<g fill="none" stroke="#000000" stroke-opacity="1" stroke-width="1" stroke-linecap="round" stroke-linejoin="round" transform="matrix(1.00104,0,0,1.00104,0,0)"
font-family="Cantarell" font-size="10" font-weight="400" font-style="normal" 
>
<polyline fill="none" vector-effect="none" points="523.5,42.5 529.5,42.5 " />
<polyline fill="none" vector-effect="none" points="1418.5,42.5 1413.5,42.5 " />
</g>

<g fill="none" stroke="#000000" stroke-opacity="1" stroke-width="1" stroke-linecap="square" stroke-linejoin="bevel" transform="matrix(1.00104,0,0,1.00104,0,0)"
font-family="Cantarell" font-size="10" font-weight="400" font-style="normal" 
>
</g>

<g fill="none" stroke="#000000" stroke-opacity="1" stroke-width="1" stroke-linecap="square" stroke-linejoin="bevel" transform="matrix(1.00104,0,0,1.00104,506.528,46.048)"
font-family="Cantarell" font-size="10" font-weight="400" font-style="normal" 
>
</g>

<g fill="none" stroke="#000000" stroke-opacity="1" stroke-width="1" stroke-linecap="square" stroke-linejoin="bevel" transform="matrix(1.00104,0,0,1.00104,506.528,46.048)"
font-family="Cantarell" font-size="10" font-weight="400" font-style="normal" 
>
</g>

<g fill="none" stroke="#000000" stroke-opacity="1" stroke-width="1" stroke-linecap="square" stroke-linejoin="bevel" transform="matrix(1.00104,0,0,1.00104,506.528,46.048)"
font-family="Cantarell" font-size="10" font-weight="400" font-style="normal" 
>
</g>

<g fill="none" stroke="#000000" stroke-opacity="1" stroke-width="1" stroke-linecap="square" stroke-linejoin="bevel" transform="matrix(1.00104,0,0,1.00104,506.528,46.048)"
font-family="Cantarell" font-size="10" font-weight="400" font-style="normal" 
>
</g>

<g fill="none" stroke="#000000" stroke-opacity="1" stroke-width="1" stroke-linecap="square" stroke-linejoin="bevel" transform="matrix(1.00104,0,0,1.00104,506.528,46.048)"
font-family="Cantarell" font-size="10" font-weight="400" font-style="normal" 
>
</g>

<g fill="none" stroke="#000000" stroke-opacity="1" stroke-width="1" stroke-linecap="square" stroke-linejoin="bevel" transform="matrix(1.00104,0,0,1.00104,506.528,46.048)"
font-family="Sans" font-size="9" font-weight="400" font-style="normal" 
>
<text fill="#000000" fill-opacity="1" stroke="none" xml:space="preserve" x="0" y="0" font-family="Sans" font-size="9" font-weight="400" font-style="normal" 
 > 0</text>
</g>

<g fill="none" stroke="#000000" stroke-opacity="1" stroke-width="1" stroke-linecap="square" stroke-linejoin="bevel" transform="matrix(1.00104,0,0,1.00104,506.528,46.048)"
font-family="Cantarell" font-size="10" font-weight="400" font-style="normal" 
>
</g>

<g fill="none" stroke="#000000" stroke-opacity="1" stroke-width="1" stroke-linecap="square" stroke-linejoin="bevel" transform="matrix(1.00104,0,0,1.00104,0,0)"
font-family="Cantarell" font-size="10" font-weight="400" font-style="normal" 
>
</g>

<g fill="none" stroke="#a0a0a4" stroke-opacity="1" stroke-dasharray="0.5,1" stroke-dashoffset="0" stroke-width="0.5" stroke-linecap="round" stroke-linejoin="round" transform="matrix(1.00104,0,0,1.00104,0,0)"
font-family="Cantarell" font-size="10" font-weight="400" font-style="normal" 
>
<polyline fill="none" vector-effect="none" points="523.5,937.5 523.5,42.5 " />
</g>

<g fill="none" stroke="#000000" stroke-opacity="1" stroke-width="1" stroke-linecap="round" stroke-linejoin="round" transform="matrix(1.00104,0,0,1.00104,0,0)"
font-family="Cantarell" font-size="10" font-weight="400" font-style="normal" 
>
<polyline fill="none" vector-effect="none" points="523.5,937.5 523.5,931.5 " />
<polyline fill="none" vector-effect="none" points="523.5,42.5 523.5,47.5 " />
</g>

<g fill="none" stroke="#000000" stroke-opacity="1" stroke-width="1" stroke-linecap="square" stroke-linejoin="bevel" transform="matrix(1.00104,0,0,1.00104,0,0)"
font-family="Cantarell" font-size="10" font-weight="400" font-style="normal" 
>
</g>

<g fill="none" stroke="#000000" stroke-opacity="1" stroke-width="1" stroke-linecap="square" stroke-linejoin="bevel" transform="matrix(1.00104,0,0,1.00104,519.041,955.996)"
font-family="Cantarell" font-size="10" font-weight="400" font-style="normal" 
>
</g>

<g fill="none" stroke="#000000" stroke-opacity="1" stroke-width="1" stroke-linecap="square" stroke-linejoin="bevel" transform="matrix(1.00104,0,0,1.00104,519.041,955.996)"
font-family="Cantarell" font-size="10" font-weight="400" font-style="normal" 
>
</g>

<g fill="none" stroke="#000000" stroke-opacity="1" stroke-width="1" stroke-linecap="square" stroke-linejoin="bevel" transform="matrix(1.00104,0,0,1.00104,519.041,955.996)"
font-family="Cantarell" font-size="10" font-weight="400" font-style="normal" 
>
</g>

<g fill="none" stroke="#000000" stroke-opacity="1" stroke-width="1" stroke-linecap="square" stroke-linejoin="bevel" transform="matrix(1.00104,0,0,1.00104,519.041,955.996)"
font-family="Cantarell" font-size="10" font-weight="400" font-style="normal" 
>
</g>

<g fill="none" stroke="#000000" stroke-opacity="1" stroke-width="1" stroke-linecap="square" stroke-linejoin="bevel" transform="matrix(1.00104,0,0,1.00104,519.041,955.996)"
font-family="Cantarell" font-size="10" font-weight="400" font-style="normal" 
>
</g>

<g fill="none" stroke="#000000" stroke-opacity="1" stroke-width="1" stroke-linecap="square" stroke-linejoin="bevel" transform="matrix(1.00104,0,0,1.00104,519.041,955.996)"
font-family="Sans" font-size="9" font-weight="400" font-style="normal" 
>
<text fill="#000000" fill-opacity="1" stroke="none" xml:space="preserve" x="0" y="0" font-family="Sans" font-size="9" font-weight="400" font-style="normal" 
 > 0</text>
</g>

<g fill="none" stroke="#000000" stroke-opacity="1" stroke-width="1" stroke-linecap="square" stroke-linejoin="bevel" transform="matrix(1.00104,0,0,1.00104,519.041,955.996)"
font-family="Cantarell" font-size="10" font-weight="400" font-style="normal" 
>
</g>

<g fill="none" stroke="#000000" stroke-opacity="1" stroke-width="1" stroke-linecap="square" stroke-linejoin="bevel" transform="matrix(1.00104,0,0,1.00104,0,0)"
font-family="Cantarell" font-size="10" font-weight="400" font-style="normal" 
>
</g>

<g fill="none" stroke="#a0a0a4" stroke-opacity="1" stroke-dasharray="0.5,1" stroke-dashoffset="0" stroke-width="0.5" stroke-linecap="round" stroke-linejoin="round" transform="matrix(1.00104,0,0,1.00104,0,0)"
font-family="Cantarell" font-size="10" font-weight="400" font-style="normal" 
>
<polyline fill="none" vector-effect="none" points="747.5,937.5 747.5,42.5 " />
</g>

<g fill="none" stroke="#000000" stroke-opacity="1" stroke-width="1" stroke-linecap="round" stroke-linejoin="round" transform="matrix(1.00104,0,0,1.00104,0,0)"
font-family="Cantarell" font-size="10" font-weight="400" font-style="normal" 
>
<polyline fill="none" vector-effect="none" points="747.5,937.5 747.5,931.5 " />
<polyline fill="none" vector-effect="none" points="747.5,42.5 747.5,47.5 " />
</g>

<g fill="none" stroke="#000000" stroke-opacity="1" stroke-width="1" stroke-linecap="square" stroke-linejoin="bevel" transform="matrix(1.00104,0,0,1.00104,0,0)"
font-family="Cantarell" font-size="10" font-weight="400" font-style="normal" 
>
</g>

<g fill="none" stroke="#000000" stroke-opacity="1" stroke-width="1" stroke-linecap="square" stroke-linejoin="bevel" transform="matrix(1.00104,0,0,1.00104,737.268,955.996)"
font-family="Cantarell" font-size="10" font-weight="400" font-style="normal" 
>
</g>

<g fill="none" stroke="#000000" stroke-opacity="1" stroke-width="1" stroke-linecap="square" stroke-linejoin="bevel" transform="matrix(1.00104,0,0,1.00104,737.268,955.996)"
font-family="Cantarell" font-size="10" font-weight="400" font-style="normal" 
>
</g>

<g fill="none" stroke="#000000" stroke-opacity="1" stroke-width="1" stroke-linecap="square" stroke-linejoin="bevel" transform="matrix(1.00104,0,0,1.00104,737.268,955.996)"
font-family="Cantarell" font-size="10" font-weight="400" font-style="normal" 
>
</g>

<g fill="none" stroke="#000000" stroke-opacity="1" stroke-width="1" stroke-linecap="square" stroke-linejoin="bevel" transform="matrix(1.00104,0,0,1.00104,737.268,955.996)"
font-family="Cantarell" font-size="10" font-weight="400" font-style="normal" 
>
</g>

<g fill="none" stroke="#000000" stroke-opacity="1" stroke-width="1" stroke-linecap="square" stroke-linejoin="bevel" transform="matrix(1.00104,0,0,1.00104,737.268,955.996)"
font-family="Cantarell" font-size="10" font-weight="400" font-style="normal" 
>
</g>

<g fill="none" stroke="#000000" stroke-opacity="1" stroke-width="1" stroke-linecap="square" stroke-linejoin="bevel" transform="matrix(1.00104,0,0,1.00104,737.268,955.996)"
font-family="Sans" font-size="9" font-weight="400" font-style="normal" 
>
<text fill="#000000" fill-opacity="1" stroke="none" xml:space="preserve" x="0" y="0" font-family="Sans" font-size="9" font-weight="400" font-style="normal" 
 > 0.5</text>
</g>

<g fill="none" stroke="#000000" stroke-opacity="1" stroke-width="1" stroke-linecap="square" stroke-linejoin="bevel" transform="matrix(1.00104,0,0,1.00104,737.268,955.996)"
font-family="Cantarell" font-size="10" font-weight="400" font-style="normal" 
>
</g>

<g fill="none" stroke="#000000" stroke-opacity="1" stroke-width="1" stroke-linecap="square" stroke-linejoin="bevel" transform="matrix(1.00104,0,0,1.00104,0,0)"
font-family="Cantarell" font-size="10" font-weight="400" font-style="normal" 
>
</g>

<g fill="none" stroke="#a0a0a4" stroke-opacity="1" stroke-dasharray="0.5,1" stroke-dashoffset="0" stroke-width="0.5" stroke-linecap="round" stroke-linejoin="round" transform="matrix(1.00104,0,0,1.00104,0,0)"
font-family="Cantarell" font-size="10" font-weight="400" font-style="normal" 
>
<polyline fill="none" vector-effect="none" points="971.5,937.5 971.5,42.5 " />
</g>

<g fill="none" stroke="#000000" stroke-opacity="1" stroke-width="1" stroke-linecap="round" stroke-linejoin="round" transform="matrix(1.00104,0,0,1.00104,0,0)"
font-family="Cantarell" font-size="10" font-weight="400" font-style="normal" 
>
<polyline fill="none" vector-effect="none" points="971.5,937.5 971.5,931.5 " />
<polyline fill="none" vector-effect="none" points="971.5,42.5 971.5,47.5 " />
</g>

<g fill="none" stroke="#000000" stroke-opacity="1" stroke-width="1" stroke-linecap="square" stroke-linejoin="bevel" transform="matrix(1.00104,0,0,1.00104,0,0)"
font-family="Cantarell" font-size="10" font-weight="400" font-style="normal" 
>
</g>

<g fill="none" stroke="#000000" stroke-opacity="1" stroke-width="1" stroke-linecap="square" stroke-linejoin="bevel" transform="matrix(1.00104,0,0,1.00104,966.507,955.996)"
font-family="Cantarell" font-size="10" font-weight="400" font-style="normal" 
>
</g>

<g fill="none" stroke="#000000" stroke-opacity="1" stroke-width="1" stroke-linecap="square" stroke-linejoin="bevel" transform="matrix(1.00104,0,0,1.00104,966.507,955.996)"
font-family="Cantarell" font-size="10" font-weight="400" font-style="normal" 
>
</g>

<g fill="none" stroke="#000000" stroke-opacity="1" stroke-width="1" stroke-linecap="square" stroke-linejoin="bevel" transform="matrix(1.00104,0,0,1.00104,966.507,955.996)"
font-family="Cantarell" font-size="10" font-weight="400" font-style="normal" 
>
</g>

<g fill="none" stroke="#000000" stroke-opacity="1" stroke-width="1" stroke-linecap="square" stroke-linejoin="bevel" transform="matrix(1.00104,0,0,1.00104,966.507,955.996)"
font-family="Cantarell" font-size="10" font-weight="400" font-style="normal" 
>
</g>

<g fill="none" stroke="#000000" stroke-opacity="1" stroke-width="1" stroke-linecap="square" stroke-linejoin="bevel" transform="matrix(1.00104,0,0,1.00104,966.507,955.996)"
font-family="Cantarell" font-size="10" font-weight="400" font-style="normal" 
>
</g>

<g fill="none" stroke="#000000" stroke-opacity="1" stroke-width="1" stroke-linecap="square" stroke-linejoin="bevel" transform="matrix(1.00104,0,0,1.00104,966.507,955.996)"
font-family="Sans" font-size="9" font-weight="400" font-style="normal" 
>
<text fill="#000000" fill-opacity="1" stroke="none" xml:space="preserve" x="0" y="0" font-family="Sans" font-size="9" font-weight="400" font-style="normal" 
 > 1</text>
</g>

<g fill="none" stroke="#000000" stroke-opacity="1" stroke-width="1" stroke-linecap="square" stroke-linejoin="bevel" transform="matrix(1.00104,0,0,1.00104,966.507,955.996)"
font-family="Cantarell" font-size="10" font-weight="400" font-style="normal" 
>
</g>

<g fill="none" stroke="#000000" stroke-opacity="1" stroke-width="1" stroke-linecap="square" stroke-linejoin="bevel" transform="matrix(1.00104,0,0,1.00104,0,0)"
font-family="Cantarell" font-size="10" font-weight="400" font-style="normal" 
>
</g>

<g fill="none" stroke="#a0a0a4" stroke-opacity="1" stroke-dasharray="0.5,1" stroke-dashoffset="0" stroke-width="0.5" stroke-linecap="round" stroke-linejoin="round" transform="matrix(1.00104,0,0,1.00104,0,0)"
font-family="Cantarell" font-size="10" font-weight="400" font-style="normal" 
>
<polyline fill="none" vector-effect="none" points="1195.5,937.5 1195.5,42.5 " />
</g>

<g fill="none" stroke="#000000" stroke-opacity="1" stroke-width="1" stroke-linecap="round" stroke-linejoin="round" transform="matrix(1.00104,0,0,1.00104,0,0)"
font-family="Cantarell" font-size="10" font-weight="400" font-style="normal" 
>
<polyline fill="none" vector-effect="none" points="1195.5,937.5 1195.5,931.5 " />
<polyline fill="none" vector-effect="none" points="1195.5,42.5 1195.5,47.5 " />
</g>

<g fill="none" stroke="#000000" stroke-opacity="1" stroke-width="1" stroke-linecap="square" stroke-linejoin="bevel" transform="matrix(1.00104,0,0,1.00104,0,0)"
font-family="Cantarell" font-size="10" font-weight="400" font-style="normal" 
>
</g>

<g fill="none" stroke="#000000" stroke-opacity="1" stroke-width="1" stroke-linecap="square" stroke-linejoin="bevel" transform="matrix(1.00104,0,0,1.00104,1184.73,955.996)"
font-family="Cantarell" font-size="10" font-weight="400" font-style="normal" 
>
</g>

<g fill="none" stroke="#000000" stroke-opacity="1" stroke-width="1" stroke-linecap="square" stroke-linejoin="bevel" transform="matrix(1.00104,0,0,1.00104,1184.73,955.996)"
font-family="Cantarell" font-size="10" font-weight="400" font-style="normal" 
>
</g>

<g fill="none" stroke="#000000" stroke-opacity="1" stroke-width="1" stroke-linecap="square" stroke-linejoin="bevel" transform="matrix(1.00104,0,0,1.00104,1184.73,955.996)"
font-family="Cantarell" font-size="10" font-weight="400" font-style="normal" 
>
</g>

<g fill="none" stroke="#000000" stroke-opacity="1" stroke-width="1" stroke-linecap="square" stroke-linejoin="bevel" transform="matrix(1.00104,0,0,1.00104,1184.73,955.996)"
font-family="Cantarell" font-size="10" font-weight="400" font-style="normal" 
>
</g>

<g fill="none" stroke="#000000" stroke-opacity="1" stroke-width="1" stroke-linecap="square" stroke-linejoin="bevel" transform="matrix(1.00104,0,0,1.00104,1184.73,955.996)"
font-family="Cantarell" font-size="10" font-weight="400" font-style="normal" 
>
</g>

<g fill="none" stroke="#000000" stroke-opacity="1" stroke-width="1" stroke-linecap="square" stroke-linejoin="bevel" transform="matrix(1.00104,0,0,1.00104,1184.73,955.996)"
font-family="Sans" font-size="9" font-weight="400" font-style="normal" 
>
<text fill="#000000" fill-opacity="1" stroke="none" xml:space="preserve" x="0" y="0" font-family="Sans" font-size="9" font-weight="400" font-style="normal" 
 > 1.5</text>
</g>

<g fill="none" stroke="#000000" stroke-opacity="1" stroke-width="1" stroke-linecap="square" stroke-linejoin="bevel" transform="matrix(1.00104,0,0,1.00104,1184.73,955.996)"
font-family="Cantarell" font-size="10" font-weight="400" font-style="normal" 
>
</g>

<g fill="none" stroke="#000000" stroke-opacity="1" stroke-width="1" stroke-linecap="square" stroke-linejoin="bevel" transform="matrix(1.00104,0,0,1.00104,0,0)"
font-family="Cantarell" font-size="10" font-weight="400" font-style="normal" 
>
</g>

<g fill="none" stroke="#a0a0a4" stroke-opacity="1" stroke-dasharray="0.5,1" stroke-dashoffset="0" stroke-width="0.5" stroke-linecap="round" stroke-linejoin="round" transform="matrix(1.00104,0,0,1.00104,0,0)"
font-family="Cantarell" font-size="10" font-weight="400" font-style="normal" 
>
<polyline fill="none" vector-effect="none" points="1418.5,937.5 1418.5,42.5 " />
</g>

<g fill="none" stroke="#000000" stroke-opacity="1" stroke-width="1" stroke-linecap="round" stroke-linejoin="round" transform="matrix(1.00104,0,0,1.00104,0,0)"
font-family="Cantarell" font-size="10" font-weight="400" font-style="normal" 
>
<polyline fill="none" vector-effect="none" points="1418.5,937.5 1418.5,931.5 " />
<polyline fill="none" vector-effect="none" points="1418.5,42.5 1418.5,47.5 " />
</g>

<g fill="none" stroke="#000000" stroke-opacity="1" stroke-width="1" stroke-linecap="square" stroke-linejoin="bevel" transform="matrix(1.00104,0,0,1.00104,0,0)"
font-family="Cantarell" font-size="10" font-weight="400" font-style="normal" 
>
</g>

<g fill="none" stroke="#000000" stroke-opacity="1" stroke-width="1" stroke-linecap="square" stroke-linejoin="bevel" transform="matrix(1.00104,0,0,1.00104,1414.97,955.996)"
font-family="Cantarell" font-size="10" font-weight="400" font-style="normal" 
>
</g>

<g fill="none" stroke="#000000" stroke-opacity="1" stroke-width="1" stroke-linecap="square" stroke-linejoin="bevel" transform="matrix(1.00104,0,0,1.00104,1414.97,955.996)"
font-family="Cantarell" font-size="10" font-weight="400" font-style="normal" 
>
</g>

<g fill="none" stroke="#000000" stroke-opacity="1" stroke-width="1" stroke-linecap="square" stroke-linejoin="bevel" transform="matrix(1.00104,0,0,1.00104,1414.97,955.996)"
font-family="Cantarell" font-size="10" font-weight="400" font-style="normal" 
>
</g>

<g fill="none" stroke="#000000" stroke-opacity="1" stroke-width="1" stroke-linecap="square" stroke-linejoin="bevel" transform="matrix(1.00104,0,0,1.00104,1414.97,955.996)"
font-family="Cantarell" font-size="10" font-weight="400" font-style="normal" 
>
</g>

<g fill="none" stroke="#000000" stroke-opacity="1" stroke-width="1" stroke-linecap="square" stroke-linejoin="bevel" transform="matrix(1.00104,0,0,1.00104,1414.97,955.996)"
font-family="Cantarell" font-size="10" font-weight="400" font-style="normal" 
>
</g>

<g fill="none" stroke="#000000" stroke-opacity="1" stroke-width="1" stroke-linecap="square" stroke-linejoin="bevel" transform="matrix(1.00104,0,0,1.00104,1414.97,955.996)"
font-family="Sans" font-size="9" font-weight="400" font-style="normal" 
>
<text fill="#000000" fill-opacity="1" stroke="none" xml:space="preserve" x="0" y="0" font-family="Sans" font-size="9" font-weight="400" font-style="normal" 
 > 2</text>
</g>

<g fill="none" stroke="#000000" stroke-opacity="1" stroke-width="1" stroke-linecap="square" stroke-linejoin="bevel" transform="matrix(1.00104,0,0,1.00104,1414.97,955.996)"
font-family="Cantarell" font-size="10" font-weight="400" font-style="normal" 
>
</g>

<g fill="none" stroke="#000000" stroke-opacity="1" stroke-width="1" stroke-linecap="square" stroke-linejoin="bevel" transform="matrix(1.00104,0,0,1.00104,0,0)"
font-family="Cantarell" font-size="10" font-weight="400" font-style="normal" 
>
</g>

<g fill="none" stroke="#000000" stroke-opacity="1" stroke-width="1" stroke-linecap="round" stroke-linejoin="round" transform="matrix(1.00104,0,0,1.00104,0,0)"
font-family="Cantarell" font-size="10" font-weight="400" font-style="normal" 
>
<polyline fill="none" vector-effect="none" points="523.5,42.5 523.5,937.5 1418.5,937.5 1418.5,42.5 523.5,42.5 " />
</g>

<g fill="none" stroke="#000000" stroke-opacity="1" stroke-width="1" stroke-linecap="square" stroke-linejoin="bevel" transform="matrix(1.00104,0,0,1.00104,0,0)"
font-family="Cantarell" font-size="10" font-weight="400" font-style="normal" 
>
</g>

<g fill="none" stroke="#000000" stroke-opacity="1" stroke-width="1" stroke-linecap="square" stroke-linejoin="bevel" transform="matrix(1.00104,0,0,1.00104,944.984,25.0261)"
font-family="Cantarell" font-size="10" font-weight="400" font-style="normal" 
>
</g>

<g fill="none" stroke="#000000" stroke-opacity="1" stroke-width="1" stroke-linecap="square" stroke-linejoin="bevel" transform="matrix(1.00104,0,0,1.00104,944.984,25.0261)"
font-family="Cantarell" font-size="10" font-weight="400" font-style="normal" 
>
</g>

<g fill="none" stroke="#000000" stroke-opacity="1" stroke-width="1" stroke-linecap="square" stroke-linejoin="bevel" transform="matrix(1.00104,0,0,1.00104,944.984,25.0261)"
font-family="Cantarell" font-size="10" font-weight="400" font-style="normal" 
>
</g>

<g fill="none" stroke="#000000" stroke-opacity="1" stroke-width="1" stroke-linecap="square" stroke-linejoin="bevel" transform="matrix(1.00104,0,0,1.00104,944.984,25.0261)"
font-family="Cantarell" font-size="10" font-weight="400" font-style="normal" 
>
</g>

<g fill="none" stroke="#000000" stroke-opacity="1" stroke-width="1" stroke-linecap="square" stroke-linejoin="bevel" transform="matrix(1.00104,0,0,1.00104,944.984,25.0261)"
font-family="Cantarell" font-size="10" font-weight="400" font-style="normal" 
>
</g>

<g fill="none" stroke="#000000" stroke-opacity="1" stroke-width="1" stroke-linecap="square" stroke-linejoin="bevel" transform="matrix(1.00104,0,0,1.00104,944.984,25.0261)"
font-family="Sans" font-size="9" font-weight="400" font-style="normal" 
>
<text fill="#000000" fill-opacity="1" stroke="none" xml:space="preserve" x="0" y="0" font-family="Sans" font-size="9" font-weight="400" font-style="normal" 
 >Variant 3</text>
</g>

<g fill="none" stroke="#000000" stroke-opacity="1" stroke-width="1" stroke-linecap="square" stroke-linejoin="bevel" transform="matrix(1.00104,0,0,1.00104,944.984,25.0261)"
font-family="Cantarell" font-size="10" font-weight="400" font-style="normal" 
>
</g>

<g fill="none" stroke="#000000" stroke-opacity="1" stroke-width="1" stroke-linecap="square" stroke-linejoin="bevel" transform="matrix(1.00104,0,0,1.00104,1274.33,59.0615)"
font-family="Cantarell" font-size="10" font-weight="400" font-style="normal" 
>
</g>

<g fill="none" stroke="#000000" stroke-opacity="1" stroke-width="1" stroke-linecap="square" stroke-linejoin="bevel" transform="matrix(1.00104,0,0,1.00104,1274.33,59.0615)"
font-family="Cantarell" font-size="10" font-weight="400" font-style="normal" 
>
</g>

<g fill="none" stroke="#000000" stroke-opacity="1" stroke-width="1" stroke-linecap="square" stroke-linejoin="bevel" transform="matrix(1.00104,0,0,1.00104,1274.33,59.0615)"
font-family="Cantarell" font-size="10" font-weight="400" font-style="normal" 
>
</g>

<g fill="none" stroke="#000000" stroke-opacity="1" stroke-width="1" stroke-linecap="square" stroke-linejoin="bevel" transform="matrix(1.00104,0,0,1.00104,1274.33,59.0615)"
font-family="Cantarell" font-size="10" font-weight="400" font-style="normal" 
>
</g>

<g fill="none" stroke="#000000" stroke-opacity="1" stroke-width="1" stroke-linecap="square" stroke-linejoin="bevel" transform="matrix(1.00104,0,0,1.00104,1274.33,59.0615)"
font-family="Cantarell" font-size="10" font-weight="400" font-style="normal" 
>
</g>

<g fill="none" stroke="#000000" stroke-opacity="1" stroke-width="1" stroke-linecap="square" stroke-linejoin="bevel" transform="matrix(1.00104,0,0,1.00104,1274.33,59.0615)"
font-family="Sans" font-size="9" font-weight="400" font-style="normal" 
>
<text fill="#000000" fill-opacity="1" stroke="none" xml:space="preserve" x="0" y="0" font-family="Sans" font-size="9" font-weight="400" font-style="normal" 
 >Braquistocrona</text>
</g>

<g fill="none" stroke="#000000" stroke-opacity="1" stroke-width="1" stroke-linecap="square" stroke-linejoin="bevel" transform="matrix(1.00104,0,0,1.00104,1274.33,59.0615)"
font-family="Cantarell" font-size="10" font-weight="400" font-style="normal" 
>
</g>

<g fill="none" stroke="#000000" stroke-opacity="1" stroke-width="1" stroke-linecap="square" stroke-linejoin="bevel" transform="matrix(1.00104,0,0,1.00104,0,0)"
font-family="Cantarell" font-size="10" font-weight="400" font-style="normal" 
>
</g>

<g fill="none" stroke="#9400d3" stroke-opacity="1" stroke-width="1" stroke-linecap="round" stroke-linejoin="round" transform="matrix(1.00104,0,0,1.00104,0,0)"
font-family="Cantarell" font-size="10" font-weight="400" font-style="normal" 
>
<path vector-effect="none" fill-rule="evenodd" d="M1371.5,54.5 L1404.5,54.5"/>
</g>

<g fill="none" stroke="#000000" stroke-opacity="1" stroke-width="1" stroke-linecap="square" stroke-linejoin="bevel" transform="matrix(1.00104,0,0,1.00104,0,0)"
font-family="Cantarell" font-size="10" font-weight="400" font-style="normal" 
>
</g>

<g fill="none" stroke="#000000" stroke-opacity="1" stroke-width="1" stroke-linecap="square" stroke-linejoin="bevel" transform="matrix(1.00104,0,0,1.00104,0,0)"
font-family="Cantarell" font-size="10" font-weight="400" font-style="normal" 
>
</g>

<g fill="none" stroke="#000000" stroke-opacity="1" stroke-width="1" stroke-linecap="square" stroke-linejoin="bevel" transform="matrix(1.00104,0,0,1.00104,0,0)"
font-family="Cantarell" font-size="10" font-weight="400" font-style="normal" 
>
</g>

<g fill="none" stroke="#000000" stroke-opacity="1" stroke-width="1" stroke-linecap="square" stroke-linejoin="bevel" transform="matrix(1.00104,0,0,1.00104,0,0)"
font-family="Cantarell" font-size="10" font-weight="400" font-style="normal" 
>
</g>

<g fill="none" stroke="#9400d3" stroke-opacity="1" stroke-width="1" stroke-linecap="round" stroke-linejoin="round" transform="matrix(1.00104,0,0,1.00104,0,0)"
font-family="Cantarell" font-size="10" font-weight="400" font-style="normal" 
>
<polyline fill="none" vector-effect="none" points="523.7,42.1 523.7,42.1 523.7,42.3 523.7,42.7 523.7,43.5 523.8,44.5 523.9,45.9 524,47.6 524.1,49.5 524.3,51.8 524.6,54.3 524.9,57.2 525.3,60.4 525.8,63.8 526.4,67.5 527.1,71.6 527.8,75.9 528.7,80.5 529.7,85.3 530.8,90.5 532.1,95.9 533.4,101.6 535,107.6 536.6,113.8 538.5,120.3 540.5,127.1 542.6,134.1 544.9,141.3 547.4,148.8 550.1,156.5 553,164.5 556.1,172.7 559.4,181.2 562.9,189.8 566.6,198.7 570.5,207.7 574.7,217 579,226.5 583.7,236.2 588.5,246 593.6,256.1 598.9,266.3 604.5,276.7 610.4,287.3 616.5,298 622.8,308.8 629.5,319.9 636.4,331 643.6,342.3 651,353.7 658.7,365.2 666.8,376.9 675.1,388.6 683.6,400.5 692.5,412.4 701.7,424.4 711.1,436.5 720.9,448.7 731,460.9 741.3,473.2 752,485.5 762.9,497.9 774.2,510.3 785.7,522.7 797.6,535.1 809.8,547.6 822.2,560 835,572.5 848.1,584.9 861.5,597.4 875.1,609.8 889.1,622.1 903.4,634.5 918,646.7 932.9,658.9 948.1,671.1 963.5,683.2 979.3,695.2 995.4,707.1 1011.7,719 1028.3,730.7 1045.3,742.3 1062.5,753.9 1079.9,765.3 1097.7,776.5 1115.7,787.7 1134,798.7 1152.6,809.5 1171.4,820.3 1190.5,830.8 1209.9,841.2 1229.5,851.4 1249.3,861.4 1269.4,871.3 1289.7,881 1310.3,890.4 1331.1,899.7 1352.1,908.8 1373.3,917.6 1394.7,926.3 1416.4,934.7 " />
</g>

<g fill="none" stroke="#000000" stroke-opacity="1" stroke-width="1" stroke-linecap="square" stroke-linejoin="bevel" transform="matrix(1.00104,0,0,1.00104,0,0)"
font-family="Cantarell" font-size="10" font-weight="400" font-style="normal" 
>
</g>

<g fill="none" stroke="#000000" stroke-opacity="1" stroke-width="1" stroke-linecap="square" stroke-linejoin="bevel" transform="matrix(1.00104,0,0,1.00104,1311.37,73.0761)"
font-family="Cantarell" font-size="10" font-weight="400" font-style="normal" 
>
</g>

<g fill="none" stroke="#000000" stroke-opacity="1" stroke-width="1" stroke-linecap="square" stroke-linejoin="bevel" transform="matrix(1.00104,0,0,1.00104,1311.37,73.0761)"
font-family="Cantarell" font-size="10" font-weight="400" font-style="normal" 
>
</g>

<g fill="none" stroke="#000000" stroke-opacity="1" stroke-width="1" stroke-linecap="square" stroke-linejoin="bevel" transform="matrix(1.00104,0,0,1.00104,1311.37,73.0761)"
font-family="Cantarell" font-size="10" font-weight="400" font-style="normal" 
>
</g>

<g fill="none" stroke="#000000" stroke-opacity="1" stroke-width="1" stroke-linecap="square" stroke-linejoin="bevel" transform="matrix(1.00104,0,0,1.00104,1311.37,73.0761)"
font-family="Cantarell" font-size="10" font-weight="400" font-style="normal" 
>
</g>

<g fill="none" stroke="#000000" stroke-opacity="1" stroke-width="1" stroke-linecap="square" stroke-linejoin="bevel" transform="matrix(1.00104,0,0,1.00104,1311.37,73.0761)"
font-family="Cantarell" font-size="10" font-weight="400" font-style="normal" 
>
</g>

<g fill="none" stroke="#000000" stroke-opacity="1" stroke-width="1" stroke-linecap="square" stroke-linejoin="bevel" transform="matrix(1.00104,0,0,1.00104,1311.37,73.0761)"
font-family="Sans" font-size="9" font-weight="400" font-style="normal" 
>
<text fill="#000000" fill-opacity="1" stroke="none" xml:space="preserve" x="0" y="0" font-family="Sans" font-size="9" font-weight="400" font-style="normal" 
 >Variant 3</text>
</g>

<g fill="none" stroke="#000000" stroke-opacity="1" stroke-width="1" stroke-linecap="square" stroke-linejoin="bevel" transform="matrix(1.00104,0,0,1.00104,1311.37,73.0761)"
font-family="Cantarell" font-size="10" font-weight="400" font-style="normal" 
>
</g>

<g fill="none" stroke="#000000" stroke-opacity="1" stroke-width="1" stroke-linecap="square" stroke-linejoin="bevel" transform="matrix(1.00104,0,0,1.00104,0,0)"
font-family="Cantarell" font-size="10" font-weight="400" font-style="normal" 
>
</g>

<g fill="none" stroke="#009e73" stroke-opacity="1" stroke-width="1" stroke-linecap="round" stroke-linejoin="round" transform="matrix(1.00104,0,0,1.00104,0,0)"
font-family="Cantarell" font-size="10" font-weight="400" font-style="normal" 
>
<path vector-effect="none" fill-rule="evenodd" d="M1371.5,68.5 L1404.5,68.5"/>
</g>

<g fill="none" stroke="#000000" stroke-opacity="1" stroke-width="1" stroke-linecap="square" stroke-linejoin="bevel" transform="matrix(1.00104,0,0,1.00104,0,0)"
font-family="Cantarell" font-size="10" font-weight="400" font-style="normal" 
>
</g>

<g fill="none" stroke="#000000" stroke-opacity="1" stroke-width="1" stroke-linecap="square" stroke-linejoin="bevel" transform="matrix(1.00104,0,0,1.00104,0,0)"
font-family="Cantarell" font-size="10" font-weight="400" font-style="normal" 
>
</g>

<g fill="none" stroke="#000000" stroke-opacity="1" stroke-width="1" stroke-linecap="square" stroke-linejoin="bevel" transform="matrix(1.00104,0,0,1.00104,0,0)"
font-family="Cantarell" font-size="10" font-weight="400" font-style="normal" 
>
</g>

<g fill="none" stroke="#000000" stroke-opacity="1" stroke-width="1" stroke-linecap="square" stroke-linejoin="bevel" transform="matrix(1.00104,0,0,1.00104,0,0)"
font-family="Cantarell" font-size="10" font-weight="400" font-style="normal" 
>
</g>

<g fill="none" stroke="#009e73" stroke-opacity="1" stroke-width="1" stroke-linecap="round" stroke-linejoin="round" transform="matrix(1.00104,0,0,1.00104,0,0)"
font-family="Cantarell" font-size="10" font-weight="400" font-style="normal" 
>
<polyline fill="none" vector-effect="none" points="523.7,42.1 523.7,42.1 523.7,42.1 523.7,42.1 523.7,42.1 523.7,42.1 523.7,42.1 523.7,42.1 523.7,42.1 523.7,42.1 523.7,42.1 523.7,42.2 523.7,42.2 523.7,42.2 523.7,42.2 523.7,42.3 523.7,42.3 523.7,42.3 523.7,42.4 523.7,42.5 523.7,42.5 523.7,42.6 523.7,42.7 523.7,42.8 523.7,43 523.7,43.1 523.7,43.3 523.7,43.5 523.7,43.7 523.8,43.9 523.8,44.1 523.8,44.4 523.8,44.7 523.8,45 523.8,45.4 523.8,45.8 523.9,46.2 523.9,46.6 523.9,47.1 524,47.7 524,48.2 524.1,48.9 524.1,49.5 524.2,50.2 524.2,51 524.3,51.8 524.4,52.7 524.5,53.6 524.6,54.6 524.7,55.6 524.9,56.7 525,57.9 525.2,59.2 525.3,60.5 525.5,61.9 525.7,63.4 526,64.9 526.2,66.6 526.5,68.3 526.8,70.1 527.1,72 527.4,74 527.8,76.1 528.2,78.3 528.7,80.6 529.2,83 529.7,85.6 530.2,88.2 530.8,91 531.5,93.8 532.2,96.8 532.9,100 533.7,103.2 534.6,106.6 535.5,110.1 536.5,113.8 537.5,117.6 538.7,121.6 539.9,125.7 541.1,129.9 542.5,134.3 543.9,138.9 545.5,143.7 547.1,148.6 548.9,153.6 550.7,158.9 552.7,164.3 554.7,169.9 556.9,175.7 559.2,181.6 561.7,187.8 564.3,194.1 567,200.7 569.9,207.4 573,214.3 576.2,221.5 579.6,228.8 583.2,236.4 587,244.1 591,252.1 595.2,260.3 599.6,268.7 604.2,277.3 609,286.1 614.1,295.2 619.5,304.4 625.1,313.9 631,323.7 637.2,333.6 643.6,343.8 650.4,354.2 657.5,364.8 664.9,375.7 672.7,386.8 680.8,398.1 689.3,409.7 698.2,421.4 707.5,433.4 717.2,445.6 727.3,458.1 737.8,470.8 748.9,483.6 760.4,496.7 772.4,510.1 784.9,523.6 798,537.3 811.6,551.2 825.7,565.3 840.5,579.6 855.9,594.1 872,608.8 888.7,623.6 906.1,638.6 924.2,653.8 943,669.1 962.7,684.5 983.2,700.1 1004.5,715.7 1026.6,731.5 1049.7,747.3 1073.8,763.2 1098.9,779.2 1125,795.2 1152.2,811.2 1180.6,827.3 1210.3,843.2 1241.2,859.2 1273.5,875 1307.3,890.8 1342.7,906.4 1379.8,921.8 1418.7,937 " />
</g>

<g fill="none" stroke="#000000" stroke-opacity="1" stroke-width="1" stroke-linecap="square" stroke-linejoin="bevel" transform="matrix(1.00104,0,0,1.00104,0,0)"
font-family="Cantarell" font-size="10" font-weight="400" font-style="normal" 
>
</g>

<g fill="none" stroke="#000000" stroke-opacity="1" stroke-width="1" stroke-linecap="square" stroke-linejoin="bevel" transform="matrix(1.00104,0,0,1.00104,0,0)"
font-family="Cantarell" font-size="10" font-weight="400" font-style="normal" 
>
</g>

<g fill="none" stroke="#000000" stroke-opacity="1" stroke-width="1" stroke-linecap="round" stroke-linejoin="round" transform="matrix(1.00104,0,0,1.00104,0,0)"
font-family="Cantarell" font-size="10" font-weight="400" font-style="normal" 
>
<polyline fill="none" vector-effect="none" points="523.5,42.5 523.5,937.5 1418.5,937.5 1418.5,42.5 523.5,42.5 " />
</g>

<g fill="none" stroke="#000000" stroke-opacity="1" stroke-width="1" stroke-linecap="square" stroke-linejoin="bevel" transform="matrix(1.00104,0,0,1.00104,0,0)"
font-family="Cantarell" font-size="10" font-weight="400" font-style="normal" 
>
</g>

<g fill="none" stroke="#000000" stroke-opacity="1" stroke-width="1" stroke-linecap="square" stroke-linejoin="bevel" transform="matrix(1,0,0,1,0,0)"
font-family="Cantarell" font-size="10" font-weight="400" font-style="normal" 
>
</g>
</g>
</svg>
